<?xml version="1.0" encoding="UTF-8"?>
<svg xmlns="http://www.w3.org/2000/svg" viewBox="0 0 1024 1024">
  <defs>
    <style>
      .cls-1 {
        fill: #0088ef;
      }

      .cls-1, .cls-2 {
        stroke-width: 0px;
      }

      .cls-2 {
        fill: #000;
        mix-blend-mode: multiply;
      }

      .cls-3 {
        isolation: isolate;
      }
    </style>
  </defs>
  <g class="cls-3">
    <g id="Arcade">
      <rect class="cls-2" y="0" width="1024" height="1024" rx="143.49" ry="143.49"/>
      <g>
        <path id="path14" class="cls-1" d="M828.27,524.5l-34.63-104.37h-97.86c-2.2,0-3.87,1.36-4.88,3.52l-17.91,39.03c-.97,2.2-.53,3.92,1.67,3.92h15.62c7.44,0,11.7,4.31,11.7,11.71l.09,122.32c0,1.8,1.45,3.26,3.26,3.26h46.29c1.8,0,3.26-1.45,3.26-3.26v-128.66c0-1.23,1.41-2.2,2.6-2.2l-.04.04c1.23,0,2.33.92,2.73,2.16l42.72,129.54c.44,1.36,1.89,2.38,3.34,2.38h45.14c1.45,0,2.9-1.01,3.34-2.38l41.67-129.54c.39-1.23,1.49-2.16,2.73-2.16l-.05-.04c1.19,0,2.6.97,2.6,2.2v128.66c0,1.8,1.45,3.26,3.26,3.26h46.29c1.8,0,3.25-1.45,3.25-3.26v-180.49h-91.56l-34.63,104.37"/>
        <path id="path16" class="cls-1" d="M585.92,470.9c.39-1.23,1.49-2.15,2.73-2.15l.44-.05.44.05c1.23,0,2.33.92,2.73,2.15l24.02,56.06c.79,1.85.18,2.99-1.67,2.99h-51.04c-1.85,0-2.46-1.14-1.67-2.99l24.02-56.06ZM478.3,603.87h50.6l12.67-29.57h95.04l12.67,29.57h50.6c1.8,0,3.26-1.45,3.26-3.26l-78.67-180.49h-98.69c-2.2,0-3.87,1.36-4.89,3.52l-17.91,39.03c-.97,2.2-.53,3.92,1.67,3.92h12.45c7.43,0,11.7,4.31,11.7,11.71l-53.77,122.32c0,1.8,1.45,3.26,3.26,3.26"/>
        <path id="path18" class="cls-1" d="M354.74,555.3c-1.8,0-3.26-1.45-3.26-3.26v-82.19c0-1.8,1.45-3.26,3.26-3.26h67.41c7.39,0,11.7,4.31,11.7,11.71v65.29c0,7.39-4.31,11.7-11.7,11.7h-67.41ZM449.13,603.87c20.64,0,35.42-14.79,35.42-35.42v-112.9c0-20.64-14.78-35.42-35.42-35.42h-156.64c-2.2,0-3.87,1.36-4.89,3.52l-17.91,39.03c-.97,2.2-.53,3.92,1.67,3.92h15.62c7.39,0,11.7,4.31,11.7,11.71v122.32c0,1.8,1.45,3.26,3.26,3.26h147.18"/>
        <path id="path20" class="cls-1" d="M180.42,470.9c.4-1.23,1.5-2.15,2.73-2.15l.44-.05.44.05c1.23,0,2.33.92,2.73,2.15l24.02,56.06c.79,1.85.18,2.99-1.67,2.99h-51.04c-1.85,0-2.46-1.14-1.67-2.99l24.02-56.06ZM72.79,603.87h50.6l12.67-29.57h95.04l12.67,29.57h50.6c1.8,0,3.26-1.45,3.26-3.26l-78.67-180.49h-98.69c-2.2,0-3.87,1.36-4.88,3.52l-17.91,39.03c-.97,2.2-.53,3.92,1.67,3.92h12.45c7.44,0,11.71,4.31,11.71,11.71l-53.77,122.32c0,1.8,1.45,3.26,3.25,3.26"/>
      </g>
    </g>
  </g>
</svg>