<?xml version="1.0" encoding="UTF-8"?>
<svg xmlns="http://www.w3.org/2000/svg" viewBox="0 0 1024 1024">
  <defs>
    <style>
      .cls-1 {
        fill: #0088ef;
      }

      .cls-1, .cls-2 {
        stroke-width: 0px;
      }

      .cls-2 {
        fill: #000000;
        mix-blend-mode: multiply;
      }

      .cls-3 {
        isolation: isolate;
      }
    </style>
  </defs>
  <g class="cls-3">
    <g id="Arcade">
      <rect class="cls-2" y="0" width="1024" height="1024" rx="143.49" ry="143.49"/>
      <g>
        <path class="cls-1" d="M126.39,822.24s101.34-11.47,180.28-76.64c75.23-61.74,102.4-115.45,121.19-176.4,18.79-60.95,21.61-206.3,21.61-249.51v-117.92h-46.75v44.1c-.79,65.62-6.53,190.33-36.6,271.39-72.15,195.01-239.72,212.65-239.72,212.65v92.34Z"/>
        <path class="cls-1" d="M897.61,822.24s-100.9-11.47-180.28-76.64c-75.23-61.74-102.4-115.45-121.18-176.4-18.79-60.95-21.61-206.3-21.61-249.51v-117.92h46.74v44.1c.88,65.62,6.53,190.33,36.6,271.39,72.59,195.01,239.72,212.65,239.72,212.65v92.34Z"/>
        <path class="cls-1" d="M555.24,201.76h-86.35v620.48h86.35V201.76Z"/>
      </g>
    </g>
  </g>
</svg>