<?xml version="1.0" encoding="UTF-8"?>
<svg xmlns="http://www.w3.org/2000/svg" viewBox="0 0 1024 1024">
  <defs>
    <style>
      .cls-1 {
        fill: #ed1c24;
      }

      .cls-1, .cls-2 {
        stroke-width: 0px;
      }

      .cls-2 {
        fill: #000;
        mix-blend-mode: multiply;
      }

      .cls-3 {
        isolation: isolate;
      }
    </style>
  </defs>
  <g class="cls-3">
    <g id="Arcade">
      <rect class="cls-2" y="0" width="1024" height="1024" rx="143.49" ry="143.49"/>
      <path class="cls-1" d="M126.39,729.9s167.58-17.64,239.72-212.65c30.08-81.05,35.81-205.77,36.6-271.39v-44.1h46.75v117.92c0,43.22-2.82,188.57-21.61,249.51-18.79,60.95-45.95,114.66-121.19,176.4-78.94,65.18-180.28,76.64-180.28,76.64v-92.34ZM897.61,729.9s-167.14-17.64-239.72-212.65c-30.08-81.05-35.72-205.77-36.6-271.39v-44.1h-46.74v117.92c0,43.22,2.82,188.57,21.61,249.51,18.79,60.95,45.95,114.66,121.18,176.4,79.38,65.18,180.28,76.64,180.28,76.64v-92.34ZM555.24,201.76h-86.35v620.48h86.35V201.76Z"/>
    </g>
  </g>
</svg>