<?xml version="1.0" encoding="UTF-8"?>
<svg xmlns="http://www.w3.org/2000/svg" viewBox="0 0 1024 1024">
  <defs>
    <style>
      .cls-1 {
        fill: #ed1c24;
      }

      .cls-1, .cls-2, .cls-3, .cls-4, .cls-5, .cls-6 {
        stroke-width: 0px;
      }

      .cls-2 {
        fill: #000000;
        mix-blend-mode: multiply;
      }

      .cls-3 {
        fill: #000000;
      }

      .cls-4 {
        fill: #fff200;
      }

      .cls-5 {
        fill: #ff0049;
      }

      .cls-7 {
        isolation: isolate;
      }

      .cls-6 {
        fill: #fff;
      }
    </style>
  </defs>
  <g class="cls-7">
    <g id="Arcade">
      <rect class="cls-2" y="0" width="1024" height="1024" rx="143.49" ry="143.49"/>
      <path class="cls-1" d="M992.64,327.32l-151.35-176.79c-5.79-6.76-14.24-10.65-23.14-10.65H220.73c-7.97,0-15.62,3.12-21.31,8.69L33.19,311.34c-11.4,11.16-12.26,29.22-1.97,41.41l451.21,534.56c5.7,6.75,14.04,10.69,22.87,10.81.14,0,.27,0,.41,0,8.68,0,16.96-3.71,22.74-10.19l463.79-520.53c10.14-11.38,10.31-28.49.39-40.07Z"/>
      <path class="cls-3" d="M819.12,168.89H221.7S55.47,331.64,55.47,331.64l157.44,186.52c4.67,6.92,10.29,13.59,16.87,19.99l276.9,328.05,257.31-288.79,1.14-1.28,205.34-230.45-151.35-176.79ZM600.29,231.52c23.67,6.24,53.9,18.9,74.75,36.14v75.93c-19.12,12.06-46.46,20.47-71.14,25.94-2.39-3.67-3.61-7.48-3.61-11.42v-126.58ZM508.61,226.52v129.92c0,1.95.05,3.89.15,5.8.06,1.34.18,2.66.29,3.98.04.5.07,1,.12,1.5.16,1.68.38,3.35.61,5,.01.09.02.18.04.26.26,1.76.56,3.5.9,5.23,0,0,0,0,0,0-11.7.16-26.73.18-38.43.15-.17-.23-.34-.44-.51-.67-1.5-2.04-3.06-4.06-4.72-6.05-1.79-2.24-3.61-4.41-5.49-6.52-.18-.2-.35-.4-.53-.6-3.53-3.94-7.32-7.76-11.79-11.63-.06-.05-.12-.11-.18-.16-1.49-1.29-3.04-2.58-4.69-3.89-.11-.09-.22-.17-.33-.25-4-3.2-8.19-6.18-12.53-8.96-.32-.21-.64-.42-.96-.62-1.23-.77-2.46-1.54-3.71-2.28-1.89-1.13-3.79-2.21-5.71-3.25-.28-.15-.56-.29-.84-.44-12.65-6.75-25.98-11.59-40.08-14.71-.38-.09-.77-.16-1.15-.25-2.65-.57-5.31-1.09-8.02-1.54-.06,0-.12-.02-.18-.03-1.72-.28-3.44-.55-5.18-.78,4.42-9.81,10.82-21.65,18.21-30.91.48.86.92,1.72,1.32,2.59.01.02.02.05.03.07.38.84.71,1.68,1.01,2.54.07.22.13.44.2.65.22.68.43,1.37.6,2.06.22.95.41,1.91.54,2.88l1.82,13.75h101.82v-16.37c-.07-1.78-.19-3.54-.34-5.29-.04-.46-.08-.93-.13-1.39-.16-1.58-.34-3.15-.58-4.7-.03-.19-.05-.38-.08-.57-.26-1.66-.57-3.3-.9-4.93-.11-.55-.23-1.09-.36-1.64-.29-1.27-.6-2.53-.93-3.78-.12-.44-.22-.89-.35-1.33-.42-1.49-.89-2.96-1.38-4.43-.23-.68-.47-1.36-.71-2.03-.34-.95-.7-1.9-1.07-2.84-.36-.9-.72-1.81-1.1-2.7-.46-1.08-.94-2.17-1.45-3.24-.38-.81-.78-1.62-1.19-2.43-.34-.68-.7-1.36-1.05-2.03-.78-1.47-1.6-2.92-2.45-4.36-.33-.56-.65-1.11-.99-1.67-.56-.9-1.14-1.8-1.72-2.69-.33-.51-.67-1.01-1.01-1.51-1.37-2.01-2.8-4-4.32-5.96,0,0-.01-.02-.02-.02,11.49-2.53,27.96-5.68,39.49-6.92ZM198.83,267.95c-.57,2.06-1.08,4.14-1.51,6.24,0,.01,0,.02,0,.03-.4,1.97-.74,3.96-1.02,5.96-.02.16-.05.32-.07.49-.24,1.83-.43,3.68-.56,5.53-.02.31-.06.62-.09.94-.14,2.12-.22,4.25-.22,6.41v130.91c-25.18-29.87-50.35-59.74-75.52-89.6,27.78-26.74,55.56-53.48,83.34-80.22-1.77,4.35-3.22,8.79-4.34,13.32ZM211.21,449.77c0-.24.02-.47.02-.71-.01-.36-.05-.73-.05-1.09v-154.44c0-27.34,13.25-51.45,39.76-72.32,26.74-21.06,57.59-31.59,92.54-31.59s65.09,10.53,91.13,31.59c26.27,20.87,39.88,44.98,40.82,72.32h-72.13c-1.64-12.38-8.21-23.37-19.7-32.97-11.26-9.61-24.63-14.41-40.11-14.41s-29.44,4.9-41.87,14.69c-12.2,9.61-18.3,20.51-18.3,32.7v49.6c.43-.17.87-.32,1.3-.49,17.88-7.99,38.06-12.48,59.43-12.48,45.31,0,85.98,20.06,110.47,51.16,8.13,9.57,13.86,19.71,17.24,30.42,2.78,7.4,4.76,15.14,5.87,23.14.06.39.12.79.17,1.18.12.97.23,1.94.32,2.92.1,1.01.19,2.03.26,3.06.05.71.1,1.42.14,2.13.09,1.82.16,3.65.16,5.49s-.06,3.63-.15,5.43c-.04.79-.1,1.57-.15,2.35-.06.88-.14,1.75-.22,2.62-.94,9.88-3.21,19.35-6.64,28.32-3.55,10.9-9.54,21.22-18.01,30.97-24.37,29.91-64.06,48.97-108.57,48.97-73.38,0-133.71-51.62-133.71-118.55ZM506.99,795.86c-34.64-40.87-69.29-81.74-103.94-122.61,56.04,23.13,141.38,29.43,212.07,0-36.05,40.87-72.09,81.74-108.13,122.61ZM675.04,570.83c-59.74-10.9-130.16,10.96-152.01,36.56-29.53,19.7-145.07,10.23-181.83-23.32,1.24.03,2.48.08,3.72.08,2.85,0,5.69-.08,8.53-.23,1-.05,1.99-.15,2.98-.22,1.82-.13,3.64-.25,5.45-.44,1.22-.12,2.42-.29,3.63-.45,1.56-.2,3.12-.39,4.68-.63,1.33-.2,2.65-.45,3.97-.68,1.4-.25,2.79-.5,4.18-.79,1.42-.29,2.83-.61,4.23-.94,1.25-.29,2.5-.59,3.74-.91,1.5-.39,2.99-.8,4.48-1.23,1.1-.32,2.19-.64,3.27-.98,1.59-.49,3.17-1.01,4.74-1.55.92-.32,1.83-.65,2.74-.98,1.7-.62,3.39-1.26,5.07-1.93.69-.28,1.36-.57,2.05-.86,1.86-.78,3.71-1.58,5.54-2.43.33-.16.66-.32.99-.48,16.17-7.67,30.75-17.97,42.88-30.5,5.13-4.97,9.71-10.11,13.71-15.42,68.33-3.12,136.76-7.95,203.27-12.95v61.27ZM749.31,570.76h-58.44v-87.82c-110.95-22.32-166.43-64.48-166.43-126.49v-163.81h58.72v168.48c0,19.39,13.56,35.12,40.68,47.19,9.17,4.21,19.29,7.87,30.36,10.98,11.08,3.11,23.3,5.58,36.67,7.41v-234.05h58.44v378.13ZM766.43,243.03v-19.54h44.18c33.52,39.37,67.03,78.73,100.55,118.1-22.27,25.04-44.53,50.08-66.8,75.13,18.85-48.51-5.26-123.43-77.93-173.7Z"/>
      <circle class="cls-2" cx="344.92" cy="449.67" r="65.14" transform="translate(-94.09 91.28) rotate(-13.28)"/>
      <path class="cls-1" d="M992.64,327.32l-151.35-176.79c-5.79-6.76-14.24-10.65-23.14-10.65H220.73c-7.97,0-15.62,3.12-21.31,8.69L33.19,311.34c-11.4,11.16-12.26,29.22-1.97,41.41l451.21,534.56c5.7,6.75,14.04,10.69,22.87,10.81.14,0,.27,0,.41,0,8.68,0,16.96-3.71,22.74-10.19l463.79-520.53c10.14-11.38,10.31-28.49.39-40.07ZM765.14,576.13l-1.14,1.28-257.31,288.79-276.9-328.05c-6.58-6.4-12.21-13.07-16.87-19.99L55.47,331.64l166.24-162.76h597.42s151.35,176.79,151.35,176.79l-205.34,230.45Z"/>
      <path class="cls-5" d="M749.31,570.76h-58.44v-87.82c-110.95-22.32-166.43-64.48-166.43-126.49v-163.81h58.72v168.48c0,19.39,13.56,35.12,40.68,47.19,9.17,4.21,19.29,7.87,30.36,10.98,11.08,3.11,23.3,5.58,36.67,7.41v-234.05h58.44v378.13Z"/>
      <path class="cls-5" d="M211.21,449.77c0-.24.02-.47.02-.71-.01-.36-.05-.73-.05-1.09v-154.44c0-27.34,13.25-51.45,39.76-72.32,26.74-21.06,57.59-31.59,92.54-31.59s65.09,10.53,91.13,31.59c26.27,20.87,39.88,44.98,40.82,72.32h-72.13c-1.64-12.38-8.21-23.37-19.7-32.97-11.26-9.61-24.63-14.41-40.11-14.41s-29.44,4.9-41.87,14.69c-12.2,9.61-18.3,20.51-18.3,32.7v49.6c.43-.17.87-.32,1.3-.49,17.88-7.99,38.06-12.48,59.43-12.48,45.31,0,85.98,20.06,110.47,51.16,8.13,9.57,13.86,19.71,17.24,30.42,2.78,7.4,4.76,15.14,5.87,23.14.06.39.12.79.17,1.18.12.97.23,1.94.32,2.92.1,1.01.19,2.03.26,3.06.05.71.1,1.42.14,2.13.09,1.82.16,3.65.16,5.49s-.06,3.63-.15,5.43c-.04.79-.1,1.57-.15,2.35-.06.88-.14,1.75-.22,2.62-.94,9.88-3.21,19.35-6.64,28.32-3.55,10.9-9.54,21.22-18.01,30.97-24.37,29.91-64.06,48.97-108.57,48.97-73.38,0-133.71-51.62-133.71-118.55ZM410.07,449.67c0-35.98-29.17-65.14-65.14-65.14s-65.14,29.17-65.14,65.14,29.17,65.14,65.14,65.14,65.14-29.17,65.14-65.14Z"/>
      <path class="cls-6" d="M478.51,444.17c.09,1.82.16,3.65.16,5.49s-.06,3.63-.15,5.43c-.04.79-.1,1.57-.15,2.35-.06.88-.14,1.75-.22,2.62-.94,9.88-3.21,19.35-6.64,28.32-3.55,10.9-9.54,21.22-18.01,30.97-24.37,29.91-64.06,48.97-108.57,48.97-73.38,0-133.71-51.62-133.71-118.55,0-.24.02-.47.02-.71-.01-.36-.05-.73-.05-1.09v-154.44c0-27.34,13.25-51.45,39.76-72.32,26.74-21.06,57.59-31.59,92.54-31.59s65.09,10.53,91.13,31.59c26.27,20.87,39.88,44.98,40.82,72.32h-72.13c-1.64-12.38-8.21-23.37-19.7-32.97-11.26-9.61-24.63-14.41-40.11-14.41s-29.44,4.9-41.87,14.69c-12.2,9.61-18.3,20.51-18.3,32.7v49.6c.43-.17.87-.32,1.3-.49,17.88-7.99,38.06-12.48,59.43-12.48,45.31,0,85.98,20.06,110.47,51.16,8.13,9.57,13.86,19.71,17.24,30.42,2.78,7.4,4.76,15.14,5.87,23.14.06.39.12.79.17,1.18.12.97.23,1.94.32,2.92.1,1.01.19,2.03.26,3.06.05.71.1,1.42.14,2.13ZM410.07,449.67c0-35.98-29.17-65.14-65.14-65.14s-65.14,29.17-65.14,65.14,29.17,65.14,65.14,65.14,65.14-29.17,65.14-65.14ZM690.87,192.63v234.05c-13.37-1.83-25.59-4.3-36.67-7.41-11.08-3.11-21.2-6.77-30.36-10.98-27.12-12.07-40.68-27.8-40.68-47.19v-168.48h-58.72v163.81c0,62.01,55.48,104.18,166.43,126.49v87.82h58.44V192.63h-58.44Z"/>
      <path class="cls-4" d="M478.51,444.17c.09,1.82.16,3.65.16,5.49s-.06,3.63-.15,5.43c-.04.79-.1,1.57-.15,2.35-.06.88-.14,1.75-.22,2.62-.94,9.88-3.21,19.35-6.64,28.32-3.55,10.9-9.54,21.22-18.01,30.97-24.37,29.91-64.06,48.97-108.57,48.97-73.38,0-133.71-51.62-133.71-118.55,0-.24.02-.47.02-.71-.01-.36-.05-.73-.05-1.09v-154.44c0-27.34,13.25-51.45,39.76-72.32,26.74-21.06,57.59-31.59,92.54-31.59s65.09,10.53,91.13,31.59c26.27,20.87,39.88,44.98,40.82,72.32h-72.13c-1.64-12.38-8.21-23.37-19.7-32.97-11.26-9.61-24.63-14.41-40.11-14.41s-29.44,4.9-41.87,14.69c-12.2,9.61-18.3,20.51-18.3,32.7v49.6c.43-.17.87-.32,1.3-.49,17.88-7.99,38.06-12.48,59.43-12.48,45.31,0,85.98,20.06,110.47,51.16,8.13,9.57,13.86,19.71,17.24,30.42,2.78,7.4,4.76,15.14,5.87,23.14.06.39.12.79.17,1.18.12.97.23,1.94.32,2.92.1,1.01.19,2.03.26,3.06.05.71.1,1.42.14,2.13ZM410.07,449.67c0-35.98-29.17-65.14-65.14-65.14s-65.14,29.17-65.14,65.14,29.17,65.14,65.14,65.14,65.14-29.17,65.14-65.14ZM690.87,192.63v234.05c-13.37-1.83-25.59-4.3-36.67-7.41-11.08-3.11-21.2-6.77-30.36-10.98-27.12-12.07-40.68-27.8-40.68-47.19v-168.48h-58.72v163.81c0,62.01,55.48,104.18,166.43,126.49v87.82h58.44V192.63h-58.44Z"/>
    </g>
  </g>
</svg>