<?xml version="1.0" encoding="UTF-8"?>
<svg id="Arcade" xmlns="http://www.w3.org/2000/svg" viewBox="0 0 1024 1024">
  <defs>
    <style>
      .cls-1 {
        fill: #0c4da2;
      }

      .cls-1, .cls-2, .cls-3 {
        stroke-width: 0px;
      }

      .cls-2 {
        fill: #fc0;
      }

      .cls-3 {
        fill: #000;
      }
    </style>
  </defs>
  <rect class="cls-3" y="0" width="1024" height="1024" rx="143.49" ry="143.49"/>
  <g id="layer1">
    <path class="cls-1" d="M675.32,598.91c-11.97,33-45.57,55.29-86.11,55.29-21.36,0-44.2-5.04-62.7-16.16-24.12-14.49-42.14-31.7-56.98-62.28-11.68-28.29-20.61-62.94-21.65-93.59,3.56-60.62,21.97-82.23,55.69-107.23,7.47-5.54,28.36-9.97,34.38-10,13.25-.06,24.29,7.97,30.27,19.82,8.7,17.23-4.04,38.09-16.63,52.94l122.89,84.66,189.8-198.59c-66.21-105.53-187.21-176.18-325.49-176.18-209.36,0-379.07,161.94-379.07,361.7s164.28,350.83,379.07,367.12l286.33-1.28c.02-24.58,2.19-276.21,2.19-276.21h-151.99Z"/>
    <path id="path3950" class="cls-2" d="M538.54,215.55c-172.58,1.09-313.53,126.8-313.53,291.24s155.6,305.71,343.95,301.45l183.02.52v-144.09h-34.57c-10.86,27.17-61.58,53.74-98.36,53.74-19.38,0-68.17-2.63-86.22-8.96-31.87-11.16-77.33-27.18-116.87-93.63-10.59-23.29-40.43-80.05-33.76-162.85,3.23-49.9,34.93-112.2,91.81-140.41,24.8-12.3,49.77-14.32,93.61-10.34,31.47,2.86,62.75,24.99,73.67,51.55,8.44,20.54,6.02,45.58-3.92,59.83-.71,1.02-.72,1.92-.58,2.89.11.74,1.07,1.97,1.07,1.97l17.32,13.53s4.93,3.43,10.69,3.27c3.35-.09,9.33-3.72,9.33-3.72l98.93-103.82c-61.16-82.53-169.86-112.18-235.59-112.18h0Z"/>
  </g>
</svg>