<?xml version="1.0" encoding="UTF-8"?>
<svg xmlns="http://www.w3.org/2000/svg" viewBox="0 0 1024 1024">
  <defs>
    <style>
      .cls-1 {
        fill: #ed1c24;
      }

      .cls-1, .cls-2 {
        stroke-width: 0px;
      }

      .cls-2 {
        fill: #000;
        mix-blend-mode: multiply;
      }

      .cls-3 {
        isolation: isolate;
      }
    </style>
  </defs>
  <g class="cls-3">
    <g id="Arcade">
      <rect class="cls-2" y="0" width="1024" height="1024" rx="143.49" ry="143.49"/>
      <path class="cls-1" d="M496.56,442.5h150.59v34.75h-104.25v12.87h104.25v34.75h-104.25c0,12.78,9.38,18.02,19.31,18.02h84.95v37.32h-109.4c-24.51,0-41.37-20.35-41.31-42.47l.12-95.24ZM375.57,442.5h46.33v82.37c0,11.83,8.92,18.14,19.31,18.02h50.2v37.32h-72.08c-20.46,0-43.76-9.2-43.76-42.47v-95.24ZM802.88,442.5h-104.25c-30,0-42.4,27.59-42.47,42.47v51.48c0,33.39,27.47,45.24,42.47,45.05h104.25v-38.61h-79.8c-5.68,0-19.31-4.2-19.31-16.73v-27.03c0-12.88,9.69-18.02,19.31-18.02h79.8v-38.61ZM877.53,481.27c-12.65.07-18.02,8.02-18.02,17.86v25.74c0,10.69,9.19,18.02,18.02,18.02h52.77c6.26,0,16.73-4.24,16.73-18.02v-25.74c0-8.66-5.27-18.24-16.73-18.17l-52.77.31ZM859.51,442.5h88.81c28.19,0,46.33,19.2,46.33,42.47v51.48c0,36.51-31.54,45.05-46.33,45.05h-88.81c-33.36,0-47.62-26.84-47.62-45.05v-51.48c0-29.64,26.53-42.47,47.62-42.47h0ZM249.44,481.27c-12.65.07-18.02,8.02-18.02,17.86v25.74c0,10.69,9.19,18.02,18.02,18.02h52.77c6.26,0,16.73-4.24,16.73-18.02v-25.74c0-8.66-5.27-18.24-16.73-18.17l-52.77.31ZM231.42,442.5h88.81c28.19,0,46.33,19.2,46.33,42.47v51.48c0,36.51-31.54,45.05-46.33,45.05h-88.81c-33.36,0-46.33-26.84-46.33-45.05v-51.48c0-29.64,25.24-42.47,46.33-42.47ZM176.08,442.5h-104.25c-30,0-42.4,27.59-42.47,42.47v51.48c0,33.39,27.47,45.24,42.47,45.05h104.25v-38.61h-81.09c-5.68,0-19.31-4.2-19.31-16.73v-27.03c0-12.88,9.69-18.02,19.31-18.02h81.09v-38.61Z"/>
    </g>
  </g>
</svg>