<?xml version="1.0" encoding="UTF-8"?>
<svg xmlns="http://www.w3.org/2000/svg" viewBox="0 0 1024 1024">
  <defs>
    <style>
      .cls-1 {
        fill: #000;
        mix-blend-mode: multiply;
      }

      .cls-1, .cls-2, .cls-3 {
        stroke-width: 0px;
      }

      .cls-4 {
        isolation: isolate;
      }

      .cls-2 {
        fill: #ed1c24;
      }

      .cls-2, .cls-3 {
        fill-rule: evenodd;
      }

      .cls-3 {
        fill: #00aeef;
      }
    </style>
  </defs>
  <g class="cls-4">
    <g id="Arcade">
      <rect class="cls-1" x="0" y="0" width="1024" height="1024" rx="143.49" ry="143.49"/>
      <path class="cls-3" d="M598.24,671.5c-28.39,16.76-62.65,27-96.06,27-102.66,0-186.44-83.77-186.44-186.44s83.78-186.44,186.44-186.44c33.41,0,67.67,10.14,96.06,26.89v-200.32c-30.64-7.26-64.14-13.13-96.06-13.13-205.44,0-372.99,167.55-372.99,373s167.55,372.88,372.99,372.88c31.92,0,65.42-5.87,96.06-13.12v-200.32h0Z"/>
      <polygon class="cls-3" points="598.24 496.16 755.12 496.16 894.81 356.56 598.24 356.56 598.24 496.16"/>
      <path class="cls-2" d="M894.81,667.55l-139.69-139.59h-156.88v139.59h296.57Z"/>
    </g>
  </g>
</svg>