<?xml version="1.0" encoding="UTF-8"?>
<svg xmlns="http://www.w3.org/2000/svg" viewBox="0 0 1024 1024">
  <defs>
    <style>
      .cls-1 {
        fill: #00aeef;
      }

      .cls-1, .cls-2, .cls-3, .cls-4 {
        stroke-width: 0px;
      }

      .cls-2 {
        fill: #ed1c24;
      }

      .cls-3 {
        fill: #000;
        mix-blend-mode: multiply;
      }

      .cls-5 {
        isolation: isolate;
      }

      .cls-4 {
        fill: #fff;
      }
    </style>
  </defs>
  <g class="cls-5">
    <g id="Arcade">
      <rect class="cls-3" y="0" width="1024" height="1024" rx="143.49" ry="143.49"/>
      <path class="cls-1" d="M512,339.23c-14.82,0-26.82-10.92-26.82-24.38v-85.34c0-13.46,12-24.38,26.82-24.38v-82.03h-2.55c-139.31,0-252.25,106-252.25,236.75v85.1h254.8v-105.71Z"/>
      <path class="cls-2" d="M514.55,123.1h-2.55v82.03c14.82,0,26.82,10.92,26.82,24.38v85.34c0,13.46-12,24.38-26.82,24.38v105.71h254.8v-85.1c0-130.75-112.94-236.75-252.25-236.75Z"/>
      <path class="cls-4" d="M514.55,109.69h-5.1c-146.48,0-265.66,112.22-265.66,250.16v304.31c0,137.94,119.18,250.16,265.66,250.16h5.1c146.48,0,265.66-112.22,265.66-250.17v-304.3c0-137.94-119.18-250.16-265.66-250.16ZM512,325.82c-7.39,0-13.41-4.92-13.41-10.97v-85.34c0-6.05,6.02-10.97,13.41-10.97s13.41,4.91,13.41,10.97v85.34c0,6.05-6.02,10.97-13.41,10.97ZM270.61,359.84c0-119.72,101.34-217.46,227.98-222.82v57.02c-15.57,5.22-26.82,19.07-26.82,35.47v85.34c0,16.4,11.25,30.25,26.82,35.47v81.18h-227.98v-71.65ZM753.39,664.16c0,123.15-107.15,223.34-238.84,223.34h-5.1c-131.69,0-238.84-100.19-238.84-223.35v-205.73h482.78v205.74ZM753.39,431.5h-227.98v-81.18c15.57-5.22,26.82-19.07,26.82-35.47v-85.34c0-16.4-11.25-30.25-26.82-35.47v-57.02c126.63,5.37,227.98,103.1,227.98,222.82v71.65Z"/>
    </g>
  </g>
</svg>