<?xml version="1.0" encoding="UTF-8"?>
<svg id="Arcade" xmlns="http://www.w3.org/2000/svg" viewBox="0 0 1024 1024">
  <defs>
    <style>
      .cls-1 {
        fill: #ed1c24;
      }

      .cls-1, .cls-2 {
        stroke-width: 0px;
      }

      .cls-2 {
        fill: #000;
      }
    </style>
  </defs>
  <rect class="cls-2" y="0" width="1024" height="1024" rx="143.49" ry="143.49"/>
  <circle class="cls-1" cx="160.55" cy="160.55" r="88.5"/>
  <g>
    <path class="cls-1" d="M512,269.47c-152.91,0-276.87,123.96-276.87,276.87s123.96,276.88,276.87,276.88,276.87-123.97,276.87-276.87-123.96-276.88-276.87-276.88ZM512,880.95c-184.8,0-334.61-149.82-334.61-334.61s149.81-334.61,334.61-334.61,334.61,149.81,334.61,334.61-149.81,334.61-334.61,334.61Z"/>
    <path class="cls-1" d="M512,730.02c-101.45,0-183.69-82.24-183.69-183.69s82.24-183.68,183.69-183.68,183.69,82.24,183.69,183.69-82.24,183.68-183.69,183.68ZM387.47,618.22l124.53,71.9,124.53-71.9v-143.78l-124.53-71.89-124.53,71.89v143.78Z"/>
  </g>
</svg>