<?xml version="1.0" encoding="UTF-8"?>
<svg xmlns="http://www.w3.org/2000/svg" viewBox="0 0 1024 1024">
  <defs>
    <style>
      .cls-1 {
        fill: #000;
        mix-blend-mode: multiply;
      }

      .cls-1, .cls-2 {
        stroke-width: 0px;
      }

      .cls-3 {
        isolation: isolate;
      }

      .cls-2 {
        fill: #fff;
      }
    </style>
  </defs>
  <g class="cls-3">
    <g id="Arcade">
      <rect class="cls-1" y="0" width="1024" height="1024" rx="143.49" ry="143.49"/>
      <g>
        <path class="cls-2" d="M126.75,273.8h109.37c60.15,0,86.93,22.2,86.93,82.82v44.64c0,58.27-19.03,85.87-79.18,85.87h-117.12v-213.33ZM184.31,437.67h50.4c21.26,0,29.02-13.98,29.02-36.42v-44.64c0-27.61-8.93-33.24-29.02-33.24h-50.4v114.3ZM396.11,450.48l-10.69,36.65h-59.91l64.84-213.33h87.52l65.55,213.33h-58.74l-11.28-36.65h-77.3ZM435.23,316.56h-.59l-26.2,92.33h53.57l-26.78-92.33ZM638.81,487.13h-57.56v-163.76h-66.61v-49.57h193.71v49.46h-69.54v163.87ZM749.82,450.48l-10.69,36.65h-59.91l64.84-213.33h87.52l65.67,213.33h-58.74l-11.28-36.65h-77.41ZM788.94,316.56h-.59l-26.2,92.45h53.57l-26.78-92.45Z"/>
        <path class="cls-2" d="M184.32,620.73h99.75v39.59h-99.75v41.59h107.86v46.53H126.75v-213.36h163.31v46.64h-105.74v39.01ZM378.18,711.78l-10.69,36.66h-59.92l64.74-213.36h87.53l65.68,213.36h-58.75l-11.28-36.66h-77.31ZM417.3,577.84h-.59l-26.2,92.46h53.58l-26.79-92.46ZM636.89,618.73c66.62,4.58,83.18,12.57,83.18,61.45,0,35.25,1.53,70.02-97.52,70.02-57.34,0-95.52-1.17-95.52-71.08h57.69c0,22.21,8.46,24.44,37.83,24.44s37.48-1.76,37.48-19.62-3.29-18.21-31.49-19.97l-13.16-.82c-55.57-3.64-88-3.41-88-64.62s36.3-65.09,95.17-65.09c49.23,0,91.29.82,91.29,59.68v8.81h-57.69c0-21.85-9.63-21.85-33.6-21.85-32.43,0-35.13,6.23-35.13,18.21,0,17.04,8.69,17.62,24.67,18.8l24.79,1.64ZM839.09,748.44h-57.57v-163.78h-55.22v-49.46h170.95v49.46h-58.16v163.78Z"/>
      </g>
    </g>
  </g>
</svg>