<?xml version="1.0" encoding="UTF-8"?>
<svg xmlns="http://www.w3.org/2000/svg" viewBox="0 0 1024 1024">
  <defs>
    <style>
      .cls-1 {
        fill: #035aac;
      }

      .cls-1, .cls-2, .cls-3 {
        stroke-width: 0px;
      }

      .cls-2 {
        fill: #000;
        mix-blend-mode: multiply;
      }

      .cls-3 {
        fill: #36bdfe;
      }

      .cls-4 {
        isolation: isolate;
      }
    </style>
  </defs>
  <g class="cls-4">
    <g id="Arcade">
      <rect class="cls-2" y="0" width="1024" height="1024" rx="143.49" ry="143.49"/>
      <g>
        <path class="cls-3" d="M770.5,296.19c-14.66,4.13-29.27,8.37-43.15,14.83-9.01,4.19-17.42,9.39-24.95,15.68-5.32,4.44-10.26,9.82-10.45,17.63.24,2.57-.48,5.06-.7,7.59-1.09,13.02,5.42,22.89,13.06,32.43,5.21,6.5,11.62,11.59,17.92,16.91,18.39,15.57,37.69,30.12,54.58,47.42,6.18,6.32,12.94,12.02,19.26,18.21,10.41,10.19,19.61,21.43,29.23,32.31,20.49,23.18,38.38,48.3,54.55,74.6,12.06,19.63,24.02,39.32,34.54,59.89,5.3,10.37,11.29,20.43,16.43,30.91,12.27,25.05,22.78,50.83,32.11,77.1,2.46,6.92,5.05,13.79,7.18,20.81.55,1.81,1.96,3.94-.54,5.56-5.91-10.74-11.77-21.51-17.73-32.21-22.26-39.93-46.19-78.82-73.62-115.45-14.34-19.15-29.58-37.55-46.22-54.85-22.18-23.07-43.74-46.75-67.27-68.48-23.28-21.49-48.58-40.26-75.94-56.32-40.08-23.51-83.31-39.05-127.87-51.34-29.2-8.06-58.81-14.07-88.89-17.63-12.88-1.52-25.82-2.56-38.79-3.31-12.73-.73-25.44-1.06-38.14-.64-35.18,1.18-69.78,5.81-103.04,18.04-23.08,8.49-44.46,20.04-62.53,36.8-7.38,6.85-14.05,14.73-18.82,23.86-.46,4.44-3.28,7.97-4.64,12.08-2.94,8.91-2.99,8.94,6.1,7.83,16.35-2.01,32.85-2.82,49.15-4.9,33.77-4.31,67.6-1.72,101.39-2.31,10.27-.18,20.49,1.84,30.74,2.77,17.02,1.54,33.92,4.01,50.83,6.33,14.55,2,28.8,5.64,42.93,9.78,20.01,5.87,39.57,13.01,59.16,20.11,10.45,3.79,20.51,8.46,30.58,13.08,34.43,15.79,67.05,34.64,97.32,57.52,22.67,17.14,43.32,36.45,62.96,56.89,1.86,1.93,4.45,3.78,3.32,7.21-4.05-1.69-7.19-4.75-10.72-7.21-41.12-28.68-85.39-51.17-132.55-68.22-32.24-11.66-64.59-22.93-97.95-30.99-18.38-4.44-36.94-8.13-55.59-11.27-2.25,2.39-1.64,5.24-1.39,8.09.83,9.67,4.53,18.56,7.4,27.69,4.92,15.64,16.77,25.55,28.88,35.19,15.44,12.3,32.7,21.67,50.43,30.2,1.37.66,3.37.71,3.62,2.85-13.68.7-27.22-1.03-40.72-2.69-23.03-2.84-45.64-7.74-67.73-14.98-31.68-10.39-57.88-28.33-78.41-54.77-9.74-12.55-18.39-25.65-25.21-39.95-1.18-2.48-2.53-3.53-5.39-3.48-31.76.54-63.41,2.27-94.85,7.23-20.46,3.23-40.91,6.33-60.91,11.86-12.76,3.53-24.51,9.5-36.66,14.49-16.65,6.83-32.77,15.08-50.5,19.04-1.45.32-2.96.42-4.44.61-7.7.95-13.51-1.54-16.56-9.07v-8.09c.24-.2.32-.4.24-.6-.08-.2-.16-.3-.24-.3v-1.8c4.27-11.77,12.22-21.17,19.83-30.78,2.79-3.52,5.45-7.14,8.3-10.62,5.03-6.14,8.23-13,9.53-20.97,2.51-15.38,5.59-30.64,12.22-44.94,5.91-12.74,13.47-24.4,22.8-34.84,24.07-26.92,53.36-46.67,86.22-61.18,35.75-15.78,73.21-25.63,111.94-30.67,9.2-1.2,18.53-1.66,27.67-3.02,13.24-1.97,26.52-2.62,39.77-2.27,26.35.69,52.7,2.28,78.64,7.28,32.52,6.26,65.13,12.14,97.01,21.34,3.66,1.05,6.63.09,9.79-1.7,24.21-13.7,49.23-25.52,76.45-32.05,13.15-3.15,26.48-4.74,40.04-5,20.84-.4,41.59-.04,62.17,3.73,4.28.78,8.54,1.63,12.73,2.81,1.54.43,3.32.55,4.1,2.35Z"/>
        <path class="cls-1" d="M770.5,296.19c-14.97-4.63-30.43-6.69-45.97-7.42-22.42-1.05-44.87-1.33-67.06,3.33-16.32,3.43-31.93,8.91-47.16,15.57-12.58,5.5-24.82,11.69-36.56,18.79-3.23,1.95-6.23,1.54-9.37.61-18.38-5.42-37.09-9.49-55.84-13.38-10.8-2.24-21.69-4.07-32.5-6.27-32.08-6.54-64.56-8.69-97.22-8.66-7.33,0-14.74-.01-21.98.94-24.38,3.22-48.85,5.61-72.96,10.95-33.17,7.35-64.83,18.54-94.78,34.47-19.41,10.32-36.92,23.28-52.88,38.45-12.22,11.62-22.62,24.57-30.64,39.34-7.26,13.37-11.25,27.89-13.89,42.81-.99,5.59-1.94,11.2-3.4,16.67-2.07,7.74-7.84,13.3-12.47,19.48-7.34,9.81-15.69,18.89-21.32,29.94-.87,1.7-.59,4.32-3.22,4.92v-18.88c6.02-15.31,17.05-27.25,27.11-39.79,6.33-7.89,10.76-16.37,12.05-26.58,5.86-46.28,31.23-80.32,67.75-107.4,33.52-24.87,71.31-40.37,111.34-50.86,68.41-17.93,137.43-19.22,206.88-6.83,30.55,5.45,60.93,11.67,90.8,20.18,2.83.81,4.88-.11,7.13-1.4,20.19-11.59,41.1-21.56,63.35-28.66,30.14-9.62,61.01-10.28,92.14-8.03,12.73.92,25.3,2.88,37.7,5.99,2.77.69,4.05,1.86,3.73,4.87-.58,5.6.82,11.29-.77,16.86Z"/>
        <path class="cls-1" d="M969.58,768.07c.61-1.51.12-2.91-.36-4.35-9.39-28.75-20.14-56.98-32.8-84.46-4.45-9.65-8.9-19.33-13.97-28.66-10.91-20.06-21.53-40.3-33.42-59.81-9.17-15.05-18.06-30.32-28.59-44.46-9.43-12.67-17.8-26.18-28.35-37.96-15.14-16.9-29.51-34.51-46.18-50.04-17.27-16.09-34.94-31.68-52.98-46.91-9.9-8.36-21-15.45-29.07-25.95-5.66-7.36-11.37-14.65-13.07-24.03-1.03-5.71-1.28-11.54,1.15-17.1,6.21,15.87,17.42,27.59,30.72,37.81,73.26,56.23,131.89,124.88,177.06,205.49,28.94,51.66,53.96,104.82,71.53,161.4.28.89.1,2.19,1.43,2.55v22.47c-.61-1.14-1.23-2.29-1.84-3.43-.88-.62.39-2.27-1.23-2.53l-.04-.02Z"/>
        <path class="cls-1" d="M51.29,538.54c.11.21.24.42.31.64.01.05-.2.17-.31.25,0-.3,0-.6,0-.9Z"/>
        <path class="cls-1" d="M740.55,632.94c-.23-2.61-2.2-4.17-3.79-5.85-29.98-31.92-63.34-59.75-100.59-82.89-28.04-17.42-57.58-31.93-88.22-44.01-19.56-7.71-39.47-14.56-59.75-20.41-14.1-4.06-28.25-7.76-42.67-10.01-10.2-1.59-20.48-3.13-30.8-4.15-9.58-.94-19.25-1.49-28.74-2.81-30.1-4.19-60.3-2.06-90.46-2.34-8.82-.08-17.81-.27-26.45,1.19-12.43,2.1-25.01,2.11-37.45,3.83-8.91,1.23-17.91,1.92-26.79,3.52-2.6.47-2.44-1.07-2.1-2.6,1.58-7.04,3.84-13.82,7.96-19.85,39.75-5.05,79.66-7.42,119.73-7.22,54.31.28,108.16,4.62,160.48,20.14,69.42,20.59,134.04,50.95,191.07,96.22,21.83,17.33,42.16,36.25,60.67,57.12,2.34,2.64,3.58,5.23,3.35,8.81-.28,4.32-.06,8.68-.08,13.02,0,1.33-.08,2.72-1.9,1.16-.18-.47-.43-.87-1-.9l.02.03c-.08-.56-.33-.92-.97-.83l.28-.22-.27.23c-.09-.97-1.16-.66-1.57-1.2l.03.02Z"/>
        <path class="cls-1" d="M532.68,619.25c-21-9.68-41-20.96-59.16-35.47-13.76-10.99-23.33-24.36-28.03-41.44-2.16-7.86-4.31-15.62-4.52-23.81-.05-1.88-.07-3.8,2.77-3.3.86,2.69,1.75,5.38,2.58,8.08,4.51,14.67,12.4,27.05,24.19,37.05,17.85,15.15,37.85,26.77,59.04,36.45,2.99,1.36,4.54,2.84,4.09,6.25-.69,5.37,1.11,10.89-.95,16.19Z"/>
        <path class="cls-3" d="M969.62,768.09c1.57.28,1.23,1.49,1.23,2.53-.91-.6-1.24-1.48-1.23-2.53Z"/>
        <path class="cls-3" d="M740.52,632.92c.96-.16,1.54.15,1.57,1.2-.8-.03-1.41-.33-1.57-1.2Z"/>
        <path class="cls-3" d="M742.09,634.11c.63-.09.93.22.97.83-.32-.28-.65-.55-.97-.83Z"/>
        <path class="cls-3" d="M743.03,634.91c.59.02.91.33,1,.9-.33-.3-.67-.6-1-.9Z"/>
      </g>
    </g>
  </g>
</svg>