<?xml version="1.0" encoding="UTF-8"?>
<svg xmlns="http://www.w3.org/2000/svg" viewBox="0 0 1024 1024">
  <defs>
    <style>
      .cls-1 {
        fill: #000;
        mix-blend-mode: multiply;
      }

      .cls-1, .cls-2, .cls-3 {
        stroke-width: 0px;
      }

      .cls-2 {
        fill: #0060a8;
      }

      .cls-4 {
        isolation: isolate;
      }

      .cls-3 {
        fill: #fff;
      }
    </style>
  </defs>
  <g class="cls-4">
    <g id="Arcade">
      <rect class="cls-1" y="0" width="1024" height="1024" rx="143.49" ry="143.49"/>
      <g>
        <path id="path7" class="cls-3" d="M58.83,726.42c0-5.33-.97-12.23-3.23-15.13,14.79,0,46.75.1,60.45.1,31.52,0,79.07,18.24,79.07,79.7,0,45.62-33.57,79.62-79.07,79.62-9.98,0-48.09-.12-61.61-.12,2.77-5.33,4.39-12.57,4.39-18.28v-125.89h0ZM81.5,855.11c14.55,1.96,27.98,2.57,40.13.75,11.76-1.75,51.26-10.61,51.02-65.28-.24-51.81-30.93-63.65-54.59-65.1-12.34-.76-24.26-.28-36.56,1.95v127.68h0Z"/>
        <path id="path9" class="cls-3" d="M208.11,760.25l22.65-3.69v20.78c5.81-14.96,23.88-26.98,49.57-16.57l-6.02,16.43c-23.51-11.62-43.55-1.42-43.55,25.78v56.15c0,2.67.55,8.07,2.09,11.53h-23.53c2.38-3.05,3.48-8.86,3.48-11.53v-80.99c0-5.87-1.15-14.97-4.69-17.9h0Z"/>
        <path id="path11" class="cls-3" d="M924.13,771.51v71.72c0,22.5,14.89,28.53,25.92,28.53,4.67.24,11.27-.9,15.88-1.97l2.84-13.9c-5.38,2.14-11.64,2.65-15.38,2.65-6.91,0-11.92-4.78-11.92-12.26,0-6.72-.16-72.54,0-74.65h-.08c.92,0,15.26-.05,16.71,0,4.71.18,8.32.48,11.43,1.78l.02-13.09s-27.55-.04-28.09-.04l.11-33.56-20.88,6.01c2.88,2.8,3.82,11.02,3.82,16.43,0,0-.01,10.03-.01,11.24-.94,0-11.53.05-13.29.05v11.06c1.86,0,12.91,0,12.91,0h0Z"/>
        <path id="path13" class="cls-3" d="M833.91,847.35c8.97,6.68,23.05,12.61,33.38,12.61,14.33,0,24.58-7.26,24.58-20.93,0-25.24-55.21-21.06-55.21-53.08,0-21.65,18.57-29.79,36.28-29.79,5.69,0,18.67,1.29,26.94,4.62l-.07,14.78c-7.33-6.53-18.53-8.11-25.91-8.11-11.72,0-20.5,6.06-20.5,17.93,0,17.44,55.16,16.44,55.16,52.23,0,23.15-19.25,33.94-40.42,33.94-10.32,0-21.08-1.91-30.04-4.58l-4.18-19.62h0Z"/>
        <path id="path15" class="cls-3" d="M500.68,771.74c0-1.31.05-13.04.05-14.54l-22.93,3.7c2.76,3.02,4.88,12.43,4.88,19.16v78.31c0,2.67-1.1,9.15-3.48,12.2h25c-2.38-3.05-3.48-9.53-3.48-12.2v-58.92c0-21.56,12.8-29.1,25.53-29.1,11.53,0,21.94,5.2,21.94,29.1v58.92c0,2.67-1.1,9.15-3.48,12.2h24.25c-2.38-3.05-3.48-9.53-3.48-12.2v-58.92c0-23.9,14.17-29.1,25.71-29.1s23.58,7.54,23.58,29.1v58.92c0,2.67-1.1,9.15-3.48,12.2h23.34c-2.38-3.05-3.48-9.53-3.48-12.2v-70.11c0-11.95-11.69-31.09-39.01-31.09-15.89,0-25.06,7.36-32.03,13.71-5.93-7.21-15.57-13.97-31.07-13.97s-24.03,9.22-28.39,14.84h0Z"/>
        <path id="path17" class="cls-3" d="M446.62,808.47c-3.27,3.21-10.12,5.7-17.2,6.67-18.58,2.54-34.68,5.76-34.68,24.63,0,11.19,11.7,20,20.98,20,24.56,0,30.91-18.47,30.91-33.02v-18.28h0,0ZM388.6,762.3c9.37-3.92,24.5-5.71,33.98-5.71,24.22,0,40.32,12.61,40.32,41.9v48.58c0,9,.13,17.52,3.21,23.5h-19.48l-.7-12.78c-7.38,9.92-16.18,14.36-31.14,14.36-29.5,0-35.95-21.01-35.95-31.11,0-36.03,32.91-36.46,47.19-38.57,7.9-1.17,18.08-3.5,19.61-11.22,2.53-12.78-6.24-22.36-24.15-22.36-13.14,0-23.91,4.16-32.9,9.77v-16.35h0ZM807.14,808.47c-3.27,3.21-10.13,5.7-17.2,6.67-18.58,2.54-34.68,5.76-34.68,24.63,0,11.19,11.7,20,20.98,20,24.56,0,30.91-18.47,30.91-33.02v-18.28h0ZM749.13,762.3c9.37-3.92,24.5-5.71,33.98-5.71,24.22,0,40.32,12.61,40.32,41.9v48.58c0,9-1.88,17.34,3.2,23.5h-19.48l-.7-12.78c-7.38,9.92-16.18,14.36-31.13,14.36-29.5,0-35.95-21.01-35.95-31.11,0-36.03,32.91-36.46,47.19-38.57,7.91-1.17,18.09-3.5,19.61-11.22,2.52-12.78-6.24-22.36-24.15-22.36-13.14,0-23.91,4.16-32.9,9.77v-16.35h0Z"/>
        <path id="path19" class="cls-3" d="M728.4,777.2c-7.31-4.45-18.84-7.97-26.88-7.97-28.23,0-41.17,18.1-41.17,44.17s12.64,45.6,40.26,45.6c9.47,0,22.36-4.43,32.35-10.83l-4.07,19c-10.18,3.15-18.76,4.66-30.11,4.66-38.81,0-57-28.68-57-58.54,0-33,24.4-56.2,57.42-56.2,14.43,0,24.97,3.69,29.23,4.95l-.03,15.17h0Z"/>
        <path id="path21" class="cls-3" d="M293.95,814.77c.01-2.73.36-5.33.66-7.85h75.09c0-26.91-12.91-49.99-43.49-49.99s-50.59,25.88-50.59,58.88c0,29.85,20.98,56.51,56.92,56.51,11.36,0,20.86-2.92,31.12-6.66l3.61-19.08c-8.77,7.53-22.95,11.98-35.74,11.98-23,0-37.67-17.36-37.57-43.8h0ZM296.98,794.99c2.44-13.1,14.06-26.43,27.97-26.43,21.25,0,27.41,17.29,27.41,26.43,0,0-55.37.03-55.37,0h0Z"/>
        <path id="path23" class="cls-2" d="M595.3,158.74c20.87,3.27,42.18,10.86,53.29,14.4,22.39,7.13,58.74,29.3,71.58,39.94,6.07,5.03,18.84,18.2,23.78,24.83,4.82,6.46,14.02,20.45,19.89,29.06,9.34,14.22,20.34,35.41,29.68,54.91,10.43,21.78,11.14,28.09,14.29,46.3l6.89,32.1c.65,5.55,1.18,25.91-10.28,28.77-11.46,2.85-22.06-2.66-27.06-10.72-6.91-11.15-5.96-26.98-13.78-45.1-6.1-14.65-8.77-35.93-18.5-51.24l-7.64-13.46c-13.51-21.69-27.6-38.9-36-50.13-7.4-9.43-21.21-22.25-34.31-31.38-12.11-7.66-31.69-16.38-45.82-20.88-4.5-1.53-23.76-7.43-35.73-9.09-16.24-1.9-26.93-4.58-42.37-5.71-19.06-1.4-28.2-3.17-52.92-.16-9.36,2.65-24.2,3.7-37.56,9.02-10.78,4.58-25.79,11.99-40.48,20.99-15.81,9.04-39.82,27.52-55.74,43.31-16.04,17.87-24.07,27.46-35.13,50.11-4.9,11.21-14.38,28.55-18.2,40.79-2.61,12.42-7.59,35.6-6.75,46.85.38,20.16-1.31,24.32.14,40.8.05,14.84,4.73,25.13,6.67,37.27,1.66,8.39,9.38,37.4,14.16,44.14,21.71,48.75,50.84,69.86,83.31,85.09,9.15,4.86,37.79,12.85,46.08,15.14,14.13,2.66,32.72,4.43,50.61,4.79,18.83.38,44.78-2.28,60.52-8.32,17.04-6.53,36.75-15.82,36.52-15.56,7.91-4.54,19.98-11.96,23.74-15.22,7.27-4.85,11.64-6.73,15.95-11.4,6.21-5.66,9.97-8.92,14.67-15.94,2.62-3.96,6.78-10.01,10.83-15.36,4.36-7.44,6.86-15.29,11.12-24.99,5.09-14.35,4.3-13.66,5.27-28.91.91-4.42-.1-19.27-.87-21.79-2.29-13.7-1.48-25.79-4.49-39.09-4.07-18-7.44-31.47-12.63-48.74-4.88-19.44-19.2-37.46-29.96-50.32-6.66-7.97-27.33-26.81-56.01-38.57-8.07-2.83-21.29-6.04-29.68-7.64-17.92-1.95-20.83-.7-37.99.61-5.9,1.07-19.61,3.99-24.65,5.84-14.74,5.39-20.15,8.82-35.22,18.44-7.01,4.24-12.3,7.49-19.47,14.49-5.72,5.52-9.81,14.9-14.44,20.4-6.35,9-13.41,21.01-18.15,33.96-5.14,12.88-6.79,31.02-6.01,42.69,0,8.9,2.32,25.18,3.24,28.74.92,3.57,3.23,14.62,3.73,16.84.5,2.22,6.02,13.91,6.78,15.61,3.11,6.9,9.07,16.82,19.1,26.95,7.4,8.43,21.72,16.7,32.43,19.9,9.61,5.5,25.81,6.43,34.78,6.45,4.41-.28,15.68-1,21.56-2.47,11.93-2.98,14.13-3.06,26.42-8.63,11.03-5.33,18.51-7.25,26.19-13.17,0,0,10.55-8.61,15.34-14.91,2.53-3.33,6.87-19.17,6.09-28.99-.36-13.44,1.52-21.06-1.11-32.12-2.63-11.06-7.12-23.87-11.99-31.77-4.93-8-15.53-15.79-27.6-22-6.76-3.48-22.76-6.7-29.55-7.54-12.9-1.6-23.69,4.51-30.24,11.49-5.68,6.77-16.91,20.83-12.44,35.36,4.05,13.15,8.93,27.16,27.86,26.12,12.99,2.82,28.01-1.27,33.01,1.13,7.43,4.39,10.28,14.1,7.58,20.87-1.88,13.05-13.87,14.61-26.67,15.61-11.45,2-40.53-3.84-46.93-8.84-4.29-2.66-10.85-9.03-15.48-13.34-3.32-3.1-7.09-10.01-9.66-14.97-3.16-6.1-4.75-10.58-5.56-14.56-.96-4.72-2.95-13.72-2.2-22.73.51-6.07,2.07-8.66,3.62-17.54,3.09-10.07,6.94-17.74,13.12-26.47,8.06-8.52,18.29-18.67,28.27-23.38,8.81-4.85,24.23-6.63,38.19-5.78,11.32,1.13,24.72,2.57,33.57,5.66,15.16,5.64,19.49,6.77,31.93,14.95,10.51,6.78,21.09,19.26,26.99,29.59,12.56,26.78,19.76,56.57,14.52,96.67-.43,6.78-2.45,13.4-6.51,22.37-3.74,8.28-10.31,18.35-20.15,25.93-3.97,3.83-10.22,8.53-15.31,11.29-7.23,4.57-12.09,6.95-19.63,10.9-6.62,3.24-14.34,6.95-24.41,9.87-10.91,4.5-19.28,4.68-33,6.81-13.51,3.53-50.45,1.01-72.46-9.11-15.02-6.58-31.88-18.19-44.69-32.33-7.12-7.78-14.08-21.88-16.13-24.77-10.19-20.42-12.19-39.62-13.82-43.66-2.22-5.48-3.32-17.77-4.81-26.18-1.68-9.43-.64-48.96,8.49-74.34,5.15-10.1,8.16-19.11,11.65-23.84,6.26-9.28,9.29-15.08,14.62-21.67,8.03-10.15,13.87-18.43,21.69-24.27,19.93-16.89,36.58-25.8,59.09-36.95,27.98-11.87,36.38-9.42,62.86-8.98,11.91.11,29.25,4.01,37.77,5.63,15.83,2.2,24.89,6.17,35.6,9.28,11.45,3.33,18.06,8.65,27.46,14.56,7.73,5.2,16.83,12.33,22.84,18.12,15.37,11.75,22.79,24.1,32.21,39.27,1.71,2.54,12.9,27.4,14.68,34.32.83,3.46,3.36,13.41,4.98,19.23,2.09,9.22,3.1,17.39,5.43,27.8,2.09,10.72,5.64,30.97,7.18,49.89,2.59,16.23-1.56,49.37-4,59.54-5.45,18.97-14.97,42.11-33.78,64.41-7.99,9.87-16.48,17.52-26.3,25.83-7.51,6.53-13.94,10.32-25.54,17.54-15.75,9.79-27.73,16.05-49.8,25.04-8.99,3.01-20.31,6.96-32.51,9.59-23.64,2.28-47.94,4.46-74.46,1.17-26.52-3.29-53.09-11.08-68.78-16.1-8.66-3.39-25.44-10.72-32.47-14.66-4.58-2.42-19.92-13.36-22.52-15.99-10.51-6.78-34.05-29.85-49.24-51.35-3.33-6.64-15.3-26.58-17.9-35.31-6.9-14.77-11.71-32.64-14.54-40.27-2.98-17.81-8.02-29.29-9.99-47.17.23-4.21-.81-14.11-1.73-19.59,1.34-12.24-.45-23.78,1.88-37.1,2.05-11.25,4.76-15.94,5.4-26.1.63-4.35,6-17.43,7.43-23.24,4.33-9.58,5.41-17.48,11.06-28.19,8.15-16.69,16.67-35.89,29.75-52.66,3.74-5.2,14.34-17.68,17.95-22,8.54-8.9,13.55-10.3,23.23-19.23,1.01-.66,7.4-8.26,14.1-10.88,11.1-8.94,20.69-12.22,31.25-20.34,21.17-10.99,28.89-14.7,49.9-23.81,12.14-4.51,29.08-7.01,35.18-9.48,11.6-.75,23.38-4.61,35.58-3.84,13.7-.13,27.51.88,41.28,2.19,9.32.6,21.43,1.07,37.86,4.78h0Z"/>
      </g>
    </g>
  </g>
</svg>