<?xml version="1.0" encoding="UTF-8"?>
<svg id="Arcade" xmlns="http://www.w3.org/2000/svg" viewBox="0 0 1024 1024">
  <defs>
    <style>
      .cls-1 {
        fill: none;
      }

      .cls-1, .cls-2, .cls-3, .cls-4, .cls-5, .cls-6, .cls-7, .cls-8, .cls-9, .cls-10 {
        stroke-width: 0px;
      }

      .cls-2 {
        fill: #ffc200;
      }

      .cls-3 {
        fill: #ffc201;
      }

      .cls-4 {
        fill: #fc0;
      }

      .cls-5 {
        fill: #000;
      }

      .cls-6 {
        fill: #b82b00;
      }

      .cls-7 {
        fill: #f60;
      }

      .cls-8 {
        fill: #ff3f00;
      }

      .cls-9 {
        fill: #ff7801;
      }

      .cls-10 {
        fill: #ff9c00;
      }
    </style>
  </defs>
  <rect class="cls-5" y="0" width="1024" height="1024" rx="143.49" ry="143.49"/>
  <g>
    <path class="cls-1" d="M583.45,582.29s-.03.02-.04.03c.01,0,.03.01.04.02,0,0,0,0,0,0h0s0-.03,0-.05Z"/>
    <path class="cls-2" d="M387.21,233.24c6.86,3.94,13.69,7.9,20.53,11.87,6.56,3.8,13.12,7.62,19.69,11.42,5.88,3.39,11.77,6.76,17.65,10.15,6.5,3.75,12.99,7.52,19.49,11.27,5.81,3.36,11.62,6.71,17.42,10.07,5.6,3.24,11.19,6.48,16.79,9.72,5.74,3.31,11.48,6.62,17.22,9.94,5.6,3.23,11.2,6.48,16.8,9.71,5.67,3.28,11.34,6.55,17.01,9.82,5.53,3.19,11.08,6.37,16.61,9.56,5.05,2.91,10.09,5.83,15.14,8.75.62.36,1.23.74,1.84,1.11h0c4.23-2.39,8.47-4.77,12.69-7.18,4.7-2.69,9.39-5.42,14.09-8.12,4.7-2.71,9.4-5.4,14.1-8.1,4.83-2.78,9.67-5.57,14.5-8.36,3.17-1.84,6.32-3.71,9.49-5.55,4.76-2.76,9.52-5.51,14.28-8.25,4.69-2.71,9.39-5.41,14.09-8.12,4.62-2.67,9.24-5.35,13.87-8.02,5.52-3.19,11.05-6.36,16.58-9.54,3.94-2.27,7.87-4.54,11.8-6.82,4.48-2.6,8.96-5.2,13.44-7.8,4.55-2.64,9.1-5.28,13.66-7.9,4.7-2.7,9.43-5.35,14.12-8.06,4.69-2.71,9.36-5.46,14.04-8.19,4-2.32,7.99-4.65,12-6.94.47-.27,1.03-.4,1.55-.59,0,.06,0,.12.01.17.05-.04.09-.08.14-.12-.05-1.71-1.51-2.14-2.63-2.79-27.33-15.81-54.69-31.56-82.01-47.37-36.46-21.09-72.96-42.12-109.41-63.23-3.23-1.87-6.31-4.06-9.94-5.19h-.48c-4.45,1.45-8.22,4.2-12.22,6.5-22.81,13.06-45.53,26.26-68.29,39.4-20.89,12.06-41.78,24.12-62.66,36.2-19.64,11.36-39.31,22.66-58.93,34.05-.95.55-2.04,1.06-1.9,2.47.02.03.04.04.06.07,0-.08.01-.16.02-.24,2.58,1.42,5.19,2.8,7.75,4.27Z"/>
    <path class="cls-9" d="M860.17,481.62h0c-.31,1.11-1.38,1.26-2.2,1.67-9.92,4.99-19.86,9.96-29.8,14.93-27.09,13.55-54.18,27.1-81.27,40.64-.92.46-1.9.82-2.85,1.23h0,0c0,12.91.01,25.83.02,38.74,0,0,0,0,0,0,.8-.32,1.63-.57,2.4-.96,30.77-15.38,61.53-30.78,92.3-46.16,7.27-3.64,14.57-7.23,21.85-10.85v-39.35c-.15.07-.3.1-.46.11Z"/>
    <path class="cls-7" d="M409.1,750.9c4.42,2.55,8.85,5.08,13.27,7.64.33.19.58.54.86.81,0,0,0,0,0,0,1,.47,2.03.88,2.98,1.42,3.36,1.92,6.69,3.91,10.05,5.84.4.23.89.29,1.34.42h0,0v-268.27c.96.4,1.63.59,2.21.93,8.78,5.07,17.54,10.18,26.32,15.25,6.57,3.8,13.16,7.56,19.72,11.35,10.09,5.83,20.17,11.69,30.27,17.52,10.86,6.27,21.74,12.49,32.59,18.77,9.61,5.56,19.18,11.17,28.8,16.72,1.91,1.1,3.93,2.02,5.9,3.02.01-.01.03-.02.04-.03-.02-.7-.05-1.4-.05-2.11,0-77.85,0-155.71,0-233.56h0,0c-.61-.37-1.22-.75-1.84-1.11-5.04-2.92-10.09-5.84-15.14-8.75-5.53-3.19-11.08-6.37-16.61-9.56-5.67-3.27-11.34-6.55-17.01-9.82-5.6-3.24-11.2-6.48-16.8-9.71-5.74-3.31-11.48-6.62-17.22-9.94-5.6-3.24-11.19-6.48-16.79-9.72-5.81-3.36-11.62-6.71-17.42-10.07-6.5-3.76-12.99-7.53-19.49-11.27-5.88-3.39-11.78-6.75-17.65-10.15-6.57-3.79-13.12-7.61-19.69-11.42-6.84-3.96-13.68-7.93-20.53-11.87-2.56-1.47-5.16-2.85-7.75-4.27,0,.08-.01.16-.02.24-.06.79-.14,1.58-.14,2.37-.02,9.1-.02,18.19-.04,27.29,0,.95-.08,1.91-.13,2.86.11.86.32,1.71.32,2.57.02,65.34.01,130.67,0,196.01,0,.93-.08,1.85-.14,3.03-.81-.21-1.37-.23-1.8-.48-7.34-4.22-14.65-8.48-21.98-12.71-5.81-3.35-11.64-6.67-17.45-10.02-5.46-3.15-10.91-6.33-16.37-9.49-5.74-3.32-11.48-6.63-17.21-9.94-5.6-3.23-11.2-6.47-16.8-9.71-5.81-3.35-11.62-6.71-17.42-10.06-5.53-3.19-11.06-6.39-16.59-9.59-5.81-3.35-11.61-6.71-17.42-10.07-5.6-3.24-11.19-6.49-16.79-9.71-4.98-2.86-9.99-5.68-14.98-8.52h0c-.02,1.2-.06,2.4-.06,3.6,0,87.45,0,174.89,0,262.34,0,1.2.02,2.4.03,3.6.75.46,1.48.94,2.24,1.38,56.84,32.83,113.68,65.66,170.52,98.5.75.44,1.44.98,2.17,1.48,3.14,1.74,6.29,3.44,9.4,5.23,6.78,3.89,13.54,7.82,20.31,11.72Z"/>
    <path class="cls-4" d="M661.08,537.73c-1.32.86-2.61,1.79-3.97,2.58-5.87,3.39-11.77,6.71-17.64,10.1-5.39,3.1-10.74,6.26-16.12,9.38-4.62,2.68-9.25,5.34-13.87,8.01-4.83,2.79-9.67,5.57-14.49,8.37-3.24,1.88-6.47,3.78-9.73,5.63-.53.3-1.2.37-1.8.55,0,0,0,0,0,0-.01,0-.03-.01-.04-.02-1.97-1-3.99-1.92-5.9-3.02-9.61-5.55-19.19-11.16-28.8-16.72-10.85-6.27-21.74-12.5-32.59-18.77-10.1-5.83-20.18-11.69-30.27-17.52-6.57-3.8-13.16-7.56-19.72-11.35-8.78-5.08-17.54-10.18-26.32-15.25-.58-.34-1.25-.53-2.21-.93v268.27h0c2.11-1.09,4.26-2.11,6.32-3.29,7.33-4.2,14.63-8.46,21.95-12.68.34-.19.74-.27,1.11-.4,0,0,0,0,0,0,.79-.54,1.55-1.12,2.37-1.6,17.82-10.31,35.65-20.61,53.48-30.9.75-.43,1.57-.75,2.36-1.12,1.89-1.18,3.74-2.41,5.66-3.52,12.34-7.14,24.69-14.26,37.03-21.38.34-.2.72-.31,1.09-.47h0c2.93-1.76,5.83-3.56,8.78-5.27,10.95-6.33,21.91-12.64,32.87-18.95.61-.35,1.29-.6,1.93-.9,0,0,0,0,0,0,.14-.12.29-.24.43-.36,0,0,0,0,0,0,.81-.51,1.6-1.04,2.43-1.52,17.78-10.28,35.56-20.55,53.34-30.82.81-.47,1.6-.98,2.38-1.46v-3.05c0-27.83,0-55.65,0-83.48,0-1.04.03-2.08.05-3.12-3.37-1.68-6.74-3.36-10.11-5.03h0Z"/>
    <polygon class="cls-6" points="466.89 920.58 466.89 920.58 466.89 920.58 466.89 920.58"/>
    <path class="cls-6" d="M466.81,871.24c-6.15-3.53-12.29-7.05-18.44-10.58-5.87-3.37-11.73-6.74-17.59-10.14-2.41-1.4-4.78-2.85-7.17-4.27h0,0c-.15-.92-.42-1.84-.42-2.76-.03-15.42-.02-30.84-.02-46.26,0-11.67,0-23.33,0-35,0-.96.03-1.92.05-2.88,0,0,0,0,0,0,0,0,0,0,0,0-.29-.27-.53-.62-.86-.81-4.42-2.56-8.85-5.09-13.27-7.64-6.77-3.91-13.53-7.83-20.31-11.72-3.11-1.78-6.27-3.49-9.4-5.23-.04.96-.11,1.91-.11,2.87,0,26.15,0,52.31,0,78.46,0,17.28,0,34.55,0,51.83v2.97c.78.48,1.31.82,1.87,1.14,28.01,16.19,56.03,32.38,84.05,48.56.54.31,1.14.54,1.71.8-.01-15.25-.02-30.5-.04-45.75,0-1.2-.03-2.39-.05-3.59Z"/>
    <path class="cls-6" d="M613.05,774.8c-4.51-2.56-9.02-5.11-13.52-7.69-5.95-3.41-11.9-6.84-17.84-10.28-4.08-2.36-8.14-4.74-12.21-7.11h0c-.16-.83-.45-1.66-.45-2.49-.03-8.7-.02-17.4-.02-26.1,0-9.82-.02-19.64-.03-29.45h0c-.36.15-.75.27-1.09.47-12.35,7.12-24.7,14.24-37.03,21.38-1.92,1.11-3.78,2.35-5.66,3.52.02.96.04,1.92.04,2.87,0,17.02,0,34.03,0,51.05,0,.87,0,1.74,0,2.56.61.38,1.08.69,1.56.97,28.19,16.29,56.38,32.59,84.58,48.87.53.31,1.14.46,1.72.68h0c0-15.54,0-31.08,0-46.62,0-.88-.03-1.75-.05-2.63Z"/>
    <path class="cls-6" d="M744.06,540.08c-.95-.41-1.92-.77-2.85-1.24-37.9-18.94-75.79-37.89-113.68-56.85-.03.88-.08,1.76-.08,2.63,0,11.11,0,22.23,0,33.34v2.7c.94.51,1.77.98,2.61,1.41,9.57,4.8,19.15,9.58,28.72,14.38.78.39,1.54.84,2.3,1.27h0,0c3.37,1.68,6.74,3.36,10.11,5.03.8.35,1.62.66,2.4,1.05,22.62,11.31,45.24,22.63,67.87,33.93.84.42,1.74.72,2.62,1.08h0c0-12.91-.01-25.83-.02-38.74h0Z"/>
    <path class="cls-8" d="M443.92,763.74c-2.06,1.18-4.21,2.2-6.32,3.29h0c-.45-.14-.94-.19-1.34-.42-3.36-1.93-6.69-3.91-10.05-5.84-.95-.55-1.98-.95-2.98-1.42,0,0,0,0,0,0-.02.96-.05,1.92-.05,2.88,0,11.67,0,23.33,0,35,0,15.42,0,30.84.02,46.26,0,.92.28,1.84.42,2.76h0c1.01-.74,1.97-1.58,3.05-2.21,6.79-3.97,13.6-7.91,20.42-11.83,6.61-3.8,13.24-7.58,19.86-11.36.06-.04.16-.03.23-.04h0c-.03-1.04-.09-2.07-.09-3.11,0-21.39,0-42.77,0-64.16,0-.95-.07-1.91-.1-2.86h0c-.37.13-.78.21-1.11.4-7.32,4.22-14.62,8.48-21.95,12.68Z"/>
    <path class="cls-8" d="M612.56,666.57s0,0,0,0c0,0,0,0,0,0-.64.3-1.32.55-1.93.9-10.96,6.31-21.92,12.61-32.87,18.95-2.95,1.71-5.86,3.51-8.78,5.27h0c.01,9.82.03,19.64.03,29.45,0,8.7-.01,17.4.02,26.1,0,.83.29,1.66.45,2.49h0,0c.95-.7,1.85-1.49,2.86-2.08,4.59-2.71,9.21-5.38,13.82-8.04,4.76-2.74,9.53-5.46,14.29-8.2,3.52-2.03,7.02-4.08,10.54-6.1.68-.39,1.43-.67,2.14-.99,0,0,0,0,0,0-.03-.95-.09-1.91-.09-2.86,0-17.29,0-34.58,0-51.87,0-.95-.06-1.91-.09-2.86-.15.02-.27-.03-.37-.15Z"/>
    <path class="cls-9" d="M447.09,832.2c-6.82,3.92-13.63,7.86-20.42,11.83-1.08.63-2.04,1.47-3.05,2.21h0c2.39,1.43,4.76,2.88,7.17,4.27,5.85,3.39,11.72,6.77,17.59,10.14,6.14,3.53,12.29,7.05,18.44,10.58,1.2-.6,2.44-1.15,3.6-1.81,8.99-5.13,17.96-10.29,26.93-15.43,4.49-2.57,8.97-5.15,13.46-7.73,0,0,0,0,0,0-.62-.46-1.19-.99-1.86-1.37-6.26-3.64-12.53-7.26-18.8-10.88-7.65-4.41-15.31-8.81-22.96-13.21h0c-.08.01-.17,0-.23.04-6.62,3.78-13.25,7.56-19.86,11.36Z"/>
    <path class="cls-9" d="M600.45,731.4c-4.76,2.74-9.53,5.46-14.29,8.2-4.62,2.66-9.23,5.33-13.82,8.04-1.01.6-1.91,1.38-2.86,2.08h0c4.07,2.37,8.13,4.75,12.21,7.11,5.94,3.44,11.89,6.86,17.84,10.28,4.5,2.58,9.01,5.12,13.52,7.69,7.91-4.59,15.82-9.2,23.74-13.78,6.48-3.74,12.98-7.43,19.47-11.14.13-.08.31-.08.46-.12h0c-.6-.47-1.16-1.02-1.81-1.4-13.35-7.74-26.72-15.47-40.09-23.2-.55-.32-1.13-.57-1.69-.86,0,0,0,0,0,0-.72.33-1.46.6-2.14.99-3.52,2.02-7.02,4.07-10.54,6.1Z"/>
    <path class="cls-8" d="M470.41,869.42c-1.17.67-2.4,1.21-3.6,1.81.02,1.2.05,2.39.05,3.59.02,15.25.03,30.5.04,45.75h0c.71-.28,1.48-.48,2.14-.86,13.29-7.65,26.57-15.32,39.86-22.99.69-.4,1.36-.81,2.01-1.21.03-.51.06-.9.06-1.3,0-15.43,0-30.87,0-46.3,0-.55-.1-1.1-.16-1.66h0c-4.49,2.58-8.97,5.15-13.46,7.73-8.98,5.15-17.95,10.3-26.93,15.43Z"/>
    <path class="cls-8" d="M636.79,761.03c-7.92,4.57-15.83,9.18-23.74,13.78.02.88.05,1.75.05,2.63,0,15.54,0,31.08,0,46.62h0c.57-.26,1.16-.48,1.7-.79,13.48-7.77,26.95-15.55,40.42-23.33.54-.31,1.06-.67,1.66-1.05v-1.7c0-15.17,0-30.34,0-45.52,0-.63-.09-1.27-.14-1.9h0c-.15.04-.33.04-.46.12-6.49,3.71-12.99,7.41-19.47,11.14Z"/>
    <path class="cls-9" d="M612.56,666.57c.1.11.22.16.37.15.02-.17.04-.34.06-.5h0c-.14.12-.29.24-.43.36,0,0,0,0,0,0Z"/>
    <path class="cls-10" d="M786.15,229.64c-4.01,2.3-8.01,4.62-12,6.94-4.68,2.73-9.35,5.48-14.04,8.19-4.69,2.71-9.42,5.36-14.12,8.06-4.56,2.62-9.11,5.27-13.66,7.9-4.48,2.6-8.96,5.2-13.44,7.8-3.93,2.28-7.86,4.55-11.8,6.82-5.52,3.18-11.06,6.36-16.58,9.54-4.63,2.67-9.24,5.35-13.87,8.02-4.69,2.71-9.39,5.41-14.09,8.12-4.76,2.75-9.53,5.49-14.28,8.25-3.17,1.84-6.32,3.71-9.49,5.55-4.83,2.8-9.66,5.58-14.5,8.36-4.7,2.7-9.4,5.4-14.1,8.1-4.7,2.7-9.38,5.43-14.09,8.12-4.22,2.41-8.46,4.79-12.69,7.18h0c0,77.85,0,155.71,0,233.56,0,.7.03,1.4.05,2.11,0,.02,0,.03,0,.05h0c.6-.18,1.27-.25,1.8-.55,3.26-1.85,6.48-3.75,9.73-5.63,4.83-2.79,9.66-5.58,14.49-8.37,4.63-2.67,9.26-5.33,13.87-8.01,5.38-3.12,10.73-6.27,16.12-9.38,5.87-3.38,11.77-6.71,17.64-10.1,1.37-.79,2.65-1.72,3.97-2.58h0c-.77-.42-1.52-.88-2.3-1.27-9.57-4.8-19.15-9.58-28.72-14.38-.85-.42-1.67-.9-2.61-1.41v-2.7c0-11.11,0-22.23,0-33.34,0-.88.06-1.76.08-2.63.59-.39,1.15-.84,1.77-1.16,37.77-18.91,75.54-37.8,113.31-56.7.43-.21.87-.4,1.46-.68.78.37,1.64.76,2.49,1.19,12.85,6.43,25.7,12.86,38.56,19.28.85.42,1.76.73,2.64,1.09h0c.02-.8.07-1.6.07-2.39,0-70.32,0-140.64,0-210.95,0-.82-.07-1.63-.11-2.45,0-.06,0-.12-.01-.17-.52.19-1.08.32-1.55.59ZM656.48,431.84c-14.45,8.67-28.88,17.33-43.36,26.02-.57-2.26-.79-47.97-.34-58.59,1.24-1.23,41.18-25.3,43.7-26.28v58.84ZM758.46,377.23c-14.27,8.57-28.69,17.22-43.51,26.12v-58.91c2.38-1.91,41.69-25.37,43.38-25.91.38,1.77.53,54.44.14,58.69Z"/>
    <path class="cls-8" d="M785.12,443.94c-12.86-6.42-25.71-12.85-38.56-19.28-.85-.42-1.71-.82-2.49-1.19-.6.28-1.04.46-1.46.68-37.77,18.9-75.55,37.79-113.31,56.7-.63.31-1.18.77-1.77,1.16,37.89,18.95,75.78,37.9,113.68,56.85.92.46,1.9.83,2.85,1.24h0c.95-.41,1.92-.77,2.85-1.23,27.09-13.54,54.18-27.09,81.27-40.64,9.93-4.97,19.87-9.93,29.8-14.93.82-.41,1.89-.56,2.2-1.67t0,0c-.82-.48-1.63-1-2.47-1.42-22.48-11.26-44.97-22.5-67.45-33.75-.85-.43-1.66-.94-2.49-1.41h0c-.88-.36-1.79-.67-2.64-1.09Z"/>
    <path class="cls-3" d="M236.27,381.29c5.81,3.36,11.61,6.71,17.42,10.07,5.53,3.2,11.06,6.39,16.59,9.59,5.81,3.35,11.62,6.71,17.42,10.06,5.6,3.23,11.2,6.47,16.8,9.71,5.74,3.31,11.48,6.62,17.21,9.94,5.46,3.16,10.91,6.34,16.37,9.49,5.81,3.35,11.64,6.67,17.45,10.02,7.33,4.23,14.64,8.49,21.98,12.71.43.25,1,.27,1.8.48.05-1.17.14-2.1.14-3.03,0-65.34,0-130.68,0-196.01,0-.86-.21-1.71-.32-2.57-.7.38-1.41.74-2.1,1.14-8.23,4.75-16.45,9.5-24.69,14.23-.75.43-1.58.7-2.38,1.05h0c-3.81,2.18-7.61,4.35-11.41,6.54-4.7,2.71-9.39,5.43-14.08,8.14-4.77,2.75-9.53,5.49-14.3,8.24-4.63,2.67-9.25,5.34-13.88,8.02-4.48,2.6-8.95,5.22-13.45,7.79-1.79,1.02-3.65,1.92-5.48,2.88h0c-.12.15-.24.31-.35.46,0,0,0,0,0,0-.74.57-1.42,1.22-2.22,1.69-15.04,8.71-30.1,17.4-45.15,26.11-8.42,4.87-16.83,9.76-25.24,14.65.04.13.07.26.1.39,0,0,0,0,0,0,5,2.84,10,5.66,14.98,8.52,5.61,3.22,11.2,6.48,16.79,9.71Z"/>
    <path class="cls-3" d="M232.49,210.26c8.48,4.9,16.93,9.86,25.4,14.77,5.51,3.2,11.04,6.37,16.57,9.53.9.51,1.86.89,2.8,1.34,2.29-1.27,4.6-2.52,6.87-3.82,4.9-2.81,9.79-5.63,14.68-8.46,5.37-3.11,10.73-6.23,16.1-9.35,4.68-2.71,9.36-5.43,14.05-8.13,4.82-2.79,9.65-5.57,14.47-8.35,1.52-.87,3.06-1.7,4.54-2.63.58-.36,1.01-.96,1.51-1.45,0,0,0,0,0,0,0,0,0,0,0,0-.46-.31-.9-.66-1.38-.94-23.09-13.34-46.17-26.67-69.26-40.01-.55-.32-1.12-.6-1.74-.93-.78.44-1.54.86-2.3,1.3-18.59,10.74-37.19,21.48-55.78,32.23-4.9,2.83-9.77,5.72-14.66,8.58.07.08.13.16.18.26h0c9.32,5.36,18.65,10.69,27.95,16.07Z"/>
    <path class="cls-10" d="M347.97,195.15c-1.48.93-3.03,1.76-4.54,2.63-4.82,2.78-9.65,5.56-14.47,8.35-4.68,2.71-9.37,5.42-14.05,8.13-5.37,3.11-10.73,6.24-16.1,9.35-4.89,2.83-9.78,5.66-14.68,8.46-2.27,1.3-4.58,2.55-6.87,3.82h0c.02,1.04.07,2.07.07,3.11,0,25.88,0,51.76,0,77.65,0,1.04.02,2.08.03,3.11h0c1.83-.95,3.69-1.85,5.48-2.88,4.5-2.57,8.97-5.2,13.45-7.79,4.62-2.68,9.25-5.35,13.88-8.02,4.77-2.75,9.53-5.49,14.3-8.24,4.7-2.71,9.39-5.43,14.08-8.14,3.8-2.19,7.61-4.36,11.41-6.54,0,0,0,0,0,0,.06-.87.17-1.74.17-2.61,0-26.34,0-52.68,0-79.02,0-.64.06-1.29-.05-1.91-.06-.33-.4-.62-.62-.93,0,0,0,0,0,0-.5.49-.93,1.08-1.51,1.45Z"/>
    <path class="cls-7" d="M277.36,319.77c-.01-1.04-.03-2.08-.03-3.11,0-25.88,0-51.76,0-77.65,0-1.04-.05-2.07-.07-3.11h0c-.93-.44-1.9-.83-2.8-1.34-5.53-3.16-11.06-6.33-16.57-9.53-8.47-4.91-16.92-9.87-25.4-14.77-9.31-5.38-18.64-10.72-27.95-16.07h0c-.04,1.04-.1,2.07-.1,3.11,0,20.3,0,40.6,0,60.9,0,6.71.02,13.43.03,20.14.61.38,1.21.77,1.83,1.13,15.75,9.1,31.5,18.21,47.26,27.3,7.81,4.5,15.63,8.98,23.45,13.46,0,0,0,0,0,0,.12-.15.24-.31.35-.46h0Z"/>
    <path class="cls-5" d="M613.12,457.86c14.49-8.69,28.91-17.35,43.36-26.02v-58.84c-2.52.97-42.46,25.05-43.7,26.28-.45,10.62-.23,56.33.34,58.59Z"/>
    <path class="cls-5" d="M714.95,344.45v58.91c14.82-8.9,29.25-17.56,43.51-26.12.39-4.25.25-56.92-.14-58.69-1.69.54-41,24-43.38,25.91Z"/>
  </g>
</svg>