<?xml version="1.0" encoding="UTF-8"?>
<svg id="Arcade" xmlns="http://www.w3.org/2000/svg" viewBox="0 0 1024 1024">
  <defs>
    <style>
      .cls-1 {
        fill: #00aeef;
      }

      .cls-1, .cls-2, .cls-3, .cls-4, .cls-5 {
        stroke-width: 0px;
      }

      .cls-2 {
        fill: #ed1c24;
      }

      .cls-3 {
        fill: #000;
      }

      .cls-4 {
        fill: none;
        opacity: .75;
      }

      .cls-5 {
        fill: #565252;
      }
    </style>
  </defs>
  <rect class="cls-3" y="0" width="1024" height="1024" rx="143.49" ry="143.49"/>
  <g>
    <path class="cls-1" d="M608.21,75.71l-399.36,103.33s-18.84,1.22-21.88,13.37c-3.04,12.16,1.22,18.84,1.22,18.84l197.55,723.34s2.43,7.9,6.69,10.94c4.25,3.04,11.55,4.86,20.06,2.43,8.51-2.43,344.18-106.66,361.06-114.28,16.88-7.62,36.34-17.34,48.49-37.4,12.61-20.81,16.98-36.45,15.94-61.68-.74-17.95-4.86-37.08-9.73-49.84S628.27,84.22,628.27,84.22c0,0-4.25-6.69-9.12-8.51-4.86-1.82-10.94,0-10.94,0Z"/>
    <circle class="cls-2" cx="719.31" cy="545.86" r="31"/>
    <circle class="cls-2" cx="656.09" cy="604.22" r="31" transform="translate(-223.92 749.51) rotate(-52.02)"/>
    <rect class="cls-3" x="350.8" y="641.22" width="136.77" height="42.25" rx="6" ry="6" transform="translate(-170.98 146.48) rotate(-16.51)"/>
    <rect class="cls-3" x="350.8" y="641.22" width="136.77" height="42.25" rx="6" ry="6" transform="translate(935.05 72.17) rotate(73.49)"/>
    <path class="cls-3" d="M609.7,137.71c6.64,6.64,7.74,12.72,7.74,12.72,0,0,53.37,173.4,57.52,186.4,4.15,13,10.51,30.42,1.66,56.14-5.53,13-9.4,17.98-18.81,24.06-9.4,6.08-19.4,8.75-41.76,15.21-24.89,7.19-278.21,79.09-278.21,79.09,0,0-15.81,4.87-23.23,1.11-6.6-3.35-9.13-13.27-9.13-13.27l-70.24-253.05s-2.22-6.46,1.94-12.72c4.46-6.72,11.62-7.74,11.62-7.74l342.65-88.77s13.27-4.16,18.25.83Z"/>
    <polygon class="cls-5" points="311.9 246.19 549.72 182.98 617.8 392.69 374.66 462.59 311.9 246.19"/>
  </g>
  <path class="cls-4" d="M418.49,301.2l2.04-13.3,5.59,11.2-7.64,2.1M485.04,249.55l-5.17,37.45-15.6-31.73-12.39,3.41-4.04,54.2-21.85-47.06-15.46,4.26-8.77,59.64-2.63-23.19-23.26,6.41,1.31,11.96,9.77-2.69.55,6.43c-4.93,3.83-14.62,5.56-20.66-.57-3.82-3.89-9.03-13.45-.85-25.84,6.69-10.09,21.51-15.67,31.38-14.08,0,0-.67-6.74-1.47-12.93-18.46-1.18-30.23,7.28-37.5,15.14-9.98,10.65-12.63,23.53-6.82,38.43,6.67,17.27,32.77,22.16,49.16,5.46.2-.16.27-.28.46-.37l-.74,4.66,13.1-3.61,3.21-20.55,14.49-3.99,8.21,17.41,21.35-5.88,1.47-37.13,18.33,31.67,8.35-2.3,3.92-41.74,16.14,36.45,12.52-3.45-21.45-60.02-15.08,4.15ZM521.58,305.45l34.97-9.64-1.5-13.65-21.87,6.03-1.29-11.38,19.06-5.25-1.54-13.67-19.22,5.3-1.34-11.29,21.9-6.04-1.54-13.67-34.71,9.57,7.08,63.7M515.17,338.44l-13.31-17.74-14.36,3.96,23.69,28.11,3.35,30.09,12.59-3.47-3.21-26.55,12.83-41.75-14.69,4.05-6.88,23.3M489.3,363.8c-.58,11.02-7.11,19.16-14.57,17.97-7.41-1.13-13.03-11.03-12.43-22.12.59-11.13,7.12-19.12,14.53-18,7.45,1.15,13.07,11.05,12.47,22.15M474.53,329.27c-14.79.63-26.21,15.68-25.48,33.61.8,17.95,13.38,31.99,28.15,31.4,14.79-.66,26.17-15.7,25.47-33.65-.8-17.95-13.41-31.98-28.14-31.37ZM425.28,369.09c-6.89,1.9-8.67,2.39-8.67,2.39l-1.21-11.85s.26-.07,8.15-2.25c8.86-2.44,10.17,9.38,1.73,11.71M430.55,394.16c-6.92,1.91-11.06,3.05-11.06,3.05l-1.41-12.7,10.48-2.89c10-2.75,13.06,9.49,1.99,12.54ZM424.42,343.25c-6.79,1.77-23.49,6.47-23.49,6.47l.13-.04,6.99,63.27s20.09-5.54,28.24-7.78c11.65-3.21,23.92-25,4.57-34.71,11.31-20.84-7.95-29.35-16.45-27.21Z"/>
</svg>