<?xml version="1.0" encoding="UTF-8" standalone="no"?>
<svg
   xmlns:dc="http://purl.org/dc/elements/1.1/"
   xmlns:cc="http://creativecommons.org/ns#"
   xmlns:rdf="http://www.w3.org/1999/02/22-rdf-syntax-ns#"
   xmlns:svg="http://www.w3.org/2000/svg"
   xmlns="http://www.w3.org/2000/svg"
   viewBox="0 0 1365.3333 1365.3333"
   height="1365.3333"
   width="1365.3333"
   xml:space="preserve"
   id="svg2"
   version="1.1"><metadata
     id="metadata8"><rdf:RDF><cc:Work
         rdf:about=""><dc:format>image/svg+xml</dc:format><dc:type
           rdf:resource="http://purl.org/dc/dcmitype/StillImage" /></cc:Work></rdf:RDF></metadata><defs
     id="defs6"><clipPath
       id="clipPath18"
       clipPathUnits="userSpaceOnUse"><path
         id="path16"
         d="M 0,1024 H 1024 V 0 H 0 Z" /></clipPath><clipPath
       id="clipPath26"
       clipPathUnits="userSpaceOnUse"><path
         id="path24"
         d="M 0,1024 H 1024 V 0 H 0 Z" /></clipPath><clipPath
       id="clipPath30"
       clipPathUnits="userSpaceOnUse"><path
         id="path28"
         d="M 0,1024 H 1024 V 0 H 0 Z" /></clipPath><linearGradient
       id="linearGradient44"
       spreadMethod="pad"
       gradientTransform="matrix(-249.63,-51.76001,51.76001,-249.63,507.72989,595.13062)"
       gradientUnits="userSpaceOnUse"
       y2="0"
       x2="1"
       y1="0"
       x1="0"><stop
         id="stop36"
         offset="0"
         style="stop-opacity:1;stop-color:#8b8eaa" /><stop
         id="stop38"
         offset="0.25"
         style="stop-opacity:1;stop-color:#8286a4" /><stop
         id="stop40"
         offset="0.94"
         style="stop-opacity:1;stop-color:#4b557b" /><stop
         id="stop42"
         offset="1"
         style="stop-opacity:1;stop-color:#4b557b" /></linearGradient><linearGradient
       id="linearGradient66"
       spreadMethod="pad"
       gradientTransform="matrix(-250.31172,144.50215,144.50215,250.31172,756.14966,499.50696)"
       gradientUnits="userSpaceOnUse"
       y2="0"
       x2="1"
       y1="0"
       x1="0"><stop
         id="stop50"
         offset="0"
         style="stop-opacity:1;stop-color:#d8d7e1" /><stop
         id="stop52"
         offset="0.07"
         style="stop-opacity:1;stop-color:#bdbdce" /><stop
         id="stop54"
         offset="0.25"
         style="stop-opacity:1;stop-color:#868aa7" /><stop
         id="stop56"
         offset="0.43"
         style="stop-opacity:1;stop-color:#62698c" /><stop
         id="stop58"
         offset="0.6"
         style="stop-opacity:1;stop-color:#49547a" /><stop
         id="stop60"
         offset="0.75"
         style="stop-opacity:1;stop-color:#38476f" /><stop
         id="stop62"
         offset="0.89"
         style="stop-opacity:1;stop-color:#2e4068" /><stop
         id="stop64"
         offset="1"
         style="stop-opacity:1;stop-color:#2b3d66" /></linearGradient><linearGradient
       id="linearGradient80"
       spreadMethod="pad"
       gradientTransform="matrix(-6.2499881,256.39001,-256.39001,-6.2499881,489.21631,642.2099)"
       gradientUnits="userSpaceOnUse"
       y2="0"
       x2="1"
       y1="0"
       x1="0"><stop
         id="stop72"
         offset="0"
         style="stop-opacity:1;stop-color:#ffffff" /><stop
         id="stop74"
         offset="0.02"
         style="stop-opacity:1;stop-color:#ffffff" /><stop
         id="stop76"
         offset="0.52"
         style="stop-opacity:1;stop-color:#a7a8be" /><stop
         id="stop78"
         offset="1"
         style="stop-opacity:1;stop-color:#7a7e9d" /></linearGradient><linearGradient
       id="linearGradient92"
       spreadMethod="pad"
       gradientTransform="matrix(-274.56741,-48.411907,-48.411907,274.56741,510.31015,683.59485)"
       gradientUnits="userSpaceOnUse"
       y2="0"
       x2="1"
       y1="0"
       x1="0"><stop
         id="stop86"
         offset="0"
         style="stop-opacity:1;stop-color:#8b8eaa" /><stop
         id="stop88"
         offset="0.25"
         style="stop-opacity:1;stop-color:#8286a4" /><stop
         id="stop90"
         offset="1"
         style="stop-opacity:1;stop-color:#4b557b" /></linearGradient><linearGradient
       id="linearGradient108"
       spreadMethod="pad"
       gradientTransform="matrix(126.13761,218.49498,218.49498,-126.13761,458.72482,675.69946)"
       gradientUnits="userSpaceOnUse"
       y2="0"
       x2="1"
       y1="0"
       x1="0"><stop
         id="stop98"
         offset="0"
         style="stop-opacity:1;stop-color:#ffffff" /><stop
         id="stop100"
         offset="0.02"
         style="stop-opacity:1;stop-color:#ffffff" /><stop
         id="stop102"
         offset="0.52"
         style="stop-opacity:1;stop-color:#a7a8be" /><stop
         id="stop104"
         offset="1"
         style="stop-opacity:1;stop-color:#7a7e9d" /><stop
         id="stop106"
         offset="1"
         style="stop-opacity:1;stop-color:#7a7e9d" /></linearGradient><linearGradient
       id="linearGradient120"
       spreadMethod="pad"
       gradientTransform="matrix(-274.56741,-48.411911,-48.411911,274.56741,491.32605,795.79871)"
       gradientUnits="userSpaceOnUse"
       y2="0"
       x2="1"
       y1="0"
       x1="0"><stop
         id="stop114"
         offset="0"
         style="stop-opacity:1;stop-color:#8b8eaa" /><stop
         id="stop116"
         offset="0.25"
         style="stop-opacity:1;stop-color:#8286a4" /><stop
         id="stop118"
         offset="1"
         style="stop-opacity:1;stop-color:#4b557b" /></linearGradient><linearGradient
       id="linearGradient136"
       spreadMethod="pad"
       gradientTransform="matrix(126.1382,218.44705,218.44705,-126.1382,305.87094,764.67944)"
       gradientUnits="userSpaceOnUse"
       y2="0"
       x2="1"
       y1="0"
       x1="0"><stop
         id="stop126"
         offset="0"
         style="stop-opacity:1;stop-color:#ffffff" /><stop
         id="stop128"
         offset="0.02"
         style="stop-opacity:1;stop-color:#ffffff" /><stop
         id="stop130"
         offset="0.52"
         style="stop-opacity:1;stop-color:#a7a8be" /><stop
         id="stop132"
         offset="1"
         style="stop-opacity:1;stop-color:#7a7e9d" /><stop
         id="stop134"
         offset="1"
         style="stop-opacity:1;stop-color:#7a7e9d" /></linearGradient></defs><g
     transform="matrix(1.3333333,0,0,-1.3333333,0,1365.3333)"
     id="g10"><g
       id="g12"><g
         clip-path="url(#clipPath18)"
         id="g14"><g
           id="g20"><g
             id="g22" /><g
             id="g238"><g
               id="g236"
               clip-path="url(#clipPath26)"><g
                 id="g148"><g
                   id="g138" /><g
                   id="g146"><g
                     id="g144"
                     clip-path="url(#clipPath30)"><g
                       id="g142"
                       transform="translate(143.49,1024)"><path
                         id="path140"
                         style="fill:#000000;fill-opacity:1;fill-rule:nonzero;stroke:none"
                         d="m 0,0 h 737.02 c 79.247,0 143.49,-64.243 143.49,-143.49 v -737.02 c 0,-79.247 -64.243,-143.49 -143.49,-143.49 H 0 c -79.247,0 -143.49,64.243 -143.49,143.49 v 737.02 C -143.49,-64.243 -79.247,0 0,0" /></g></g></g></g><g
                 id="g158"><g
                   id="g156"><g
                     id="g154"><g
                       id="g152"><path
                         id="path150"
                         style="fill:url(#linearGradient44);stroke:none"
                         d="m 341.3,740.46 1.2,0.68 -75.29,43.56 -2.85,-281.53 248.24,-146.47 0.89,88.43 -172.18,97.18 V 740.47 Z M 515.45,641.08 514.14,510.1 h -0.01 l -115.24,66.59 1.49,130.86 0.09,0.05 114.99,-66.53 z" /></g></g></g></g><g
                 id="g168"><g
                   id="g166"><g
                     id="g164"><g
                       id="g162"><path
                         id="path160"
                         style="fill:url(#linearGradient66);stroke:none"
                         d="m 627.54,706.13 v 0 l -112.09,-65.05 -1.31,-130.97 111.32,62.11 1.49,44.86 56.08,33.65 0.05,-107.2 -169.54,-98.44 -0.05,0.04 -0.89,-88.43 244.44,139.81 0.95,285.34 -130.11,-75.52 z" /></g></g></g></g><g
                 id="g178"><g
                   id="g176"><g
                     id="g174"><g
                       id="g172"><path
                         id="path170"
                         style="fill:url(#linearGradient80);stroke:none"
                         d="m 627.54,706.13 -112,67.23 -115.07,-65.75 114.99,-66.53 112.09,65.05 z M 342.5,741.14 267.21,784.7 513,925.05 703.57,813.65 628.44,768.87 512.54,838.41 Z" /></g></g></g></g><g
                 id="g188"><g
                   id="g186"><g
                     id="g184"><g
                       id="g182"><path
                         id="path180"
                         style="fill:url(#linearGradient92);stroke:none"
                         d="m 400.457,707.626 v 0 L 515.45,641.101 Z" /></g></g></g></g><g
                 id="g198"><g
                   id="g196"><g
                     id="g194"><g
                       id="g192"><path
                         id="path190"
                         style="fill:url(#linearGradient108);stroke:none"
                         d="m 400.457,707.626 v 0 L 515.45,641.101 Z" /></g></g></g></g><g
                 id="g208"><g
                   id="g206"><g
                     id="g204"><g
                       id="g202"><path
                         id="path200"
                         style="fill:url(#linearGradient120);stroke:none"
                         d="M 342.5,741.14 267.21,784.7 Z" /></g></g></g></g><g
                 id="g218"><g
                   id="g216"><g
                     id="g214"><g
                       id="g212"><path
                         id="path210"
                         style="fill:url(#linearGradient136);stroke:none"
                         d="M 342.5,741.14 267.21,784.7 Z" /></g></g></g></g><g
                 id="g222"
                 transform="translate(933.1,270.31)"><path
                   id="path220"
                   style="fill:#b3bad0;fill-opacity:1;fill-rule:nonzero;stroke:none"
                   d="m 0,0 c 2,-1.55 3.11,-3.32 3.11,-5.33 v -33.74 c 0,-2 -1.11,-3.78 -3.11,-5.33 -1.84,-1.42 -4.1,-2.2 -6.43,-2.22 h -11.33 c -2.44,0 -4.67,0.89 -6.67,2.22 -1.77,1.55 -2.88,3.33 -2.88,5.33 v 33.74 c 0,2.01 1.1,3.78 2.88,5.33 2,1.34 4.22,2 6.67,2.22 H -6.43 C -4,2 -1.77,1.33 0,0 M 5.33,10.43 C 2,11.98 -1.77,12.65 -5.99,12.87 H -18.2 c -4.22,-0.22 -7.99,-0.89 -11.33,-2.44 -3.55,-1.78 -6.22,-3.77 -8.22,-6.44 -2.01,-2.61 -3.1,-5.81 -3.11,-9.1 v -34.4 c 0,-3.33 1.1,-6.22 3.11,-8.88 2,-2.67 4.67,-4.88 8.22,-6.44 3.55,-1.64 7.42,-2.47 11.33,-2.44 h 12.21 c 4.21,0 7.98,0.89 11.32,2.44 3.26,1.39 6.09,3.61 8.22,6.44 2,2.66 3.11,5.76 3.11,8.88 v 34.4 c -0.22,3.32 -1.1,6.44 -3.11,9.1 -2,2.67 -4.67,4.66 -8.22,6.44 M -119.42,-0.66 c 1.99,-1.34 2.88,-3.11 3.11,-5.33 v -32.63 c -0.22,-2.22 -1.11,-3.99 -3.11,-5.32 -1.78,-1.55 -4,-2.22 -6.44,-2.22 h -19.31 V 1.57 h 19.31 c 2.44,0 4.67,-0.66 6.44,-2.22 z m -39.29,12.88 v -69.04 h 33.29 c 4.22,0.22 7.99,0.89 11.33,2.44 3.55,1.77 6.22,3.77 8.21,6.44 2,2.66 2.89,5.76 3.11,9.1 v 33.3 c -0.22,3.32 -1.1,6.22 -3.11,8.88 -2.13,2.83 -4.96,5.05 -8.21,6.44 -3.55,1.64 -7.42,2.47 -11.33,2.44 z m -108.33,-68.83 v 53.72 l 27.96,-53.72 h 13.54 v 68.82 h -13.76 v -43.96 l -23.09,43.96 h -18.2 V -56.61 Z M -347.4,1.34 v 10.88 h -31.07 c -3.99,0 -7.77,-0.89 -11.1,-2.44 -3.33,-1.56 -6,-3.78 -7.99,-6.44 -1.99,-2.66 -2.89,-5.55 -3.11,-8.88 v -33.51 c 0.22,-3.11 1.11,-6 2.89,-8.66 2,-2.66 4.66,-4.66 7.77,-6.43 3.47,-1.65 7.26,-2.48 11.1,-2.45 h 31.52 v 10.88 h -30.19 c -2.44,0 -4.66,0.67 -6.65,2.01 -1.79,1.33 -2.89,2.88 -2.89,5.1 v 12.43 h 39.73 v 11.1 h -39.73 v 9.1 c 0,2.22 1.1,3.99 2.89,5.33 1.99,1.34 4.2,2 6.65,2 h 30.18 z" /></g><g
                 id="g226"
                 transform="translate(512.66,169.98)"><path
                   id="path224"
                   style="fill:#ffffff;fill-opacity:1;fill-rule:nonzero;stroke:none"
                   d="M 0,0 V 18.87 H -95.23 V -70.81 H 0.89 v 20.2 h -71.05 v 16.87 h 40.85 v 18.86 H -70.16 V 0 l 70.15,0 z m 119.89,9.76 c -1.57,3.32 -4.22,5.55 -7.56,7.1 -3.55,1.34 -8.44,2 -14.43,2 H 43.07 c -6.22,0 -10.89,-0.66 -14.43,-2 C 25.09,15.31 22.43,13.08 21.1,9.76 19.55,6.43 18.65,2 18.88,-3.56 v -45.06 c -0.22,-5.55 0.66,-10 2.22,-13.32 1.33,-3.11 3.99,-5.55 7.54,-6.89 3.55,-1.55 8.21,-2.21 14.43,-1.99 H 97.9 c 6,-0.22 10.88,0.45 14.43,1.99 3.33,1.34 5.99,3.79 7.56,6.89 1.33,3.32 2.22,7.77 2.22,13.32 v 16.43 l -25.09,-0.22 v -18.2 H 43.74 v 49.72 h 53.28 v -15.98 h 25.09 v 13.31 c 0,5.77 -0.9,10.21 -2.22,13.33 z m 116.75,9.1 h -25.08 v -69.48 h -54.39 v 69.48 h -25.08 v -67.48 c -0.22,-5.55 0.66,-10 2.22,-13.32 1.34,-3.11 3.99,-5.55 7.56,-6.89 3.55,-1.55 8.21,-2.21 14.42,-1.99 h 55.94 c 6.22,-0.22 11.09,0.45 14.65,1.99 3.55,1.34 6,3.79 7.56,6.89 1.55,3.32 2.22,7.77 2.22,13.32 v 67.48 h -0.01 z m 35.96,-70.15 v 17.55 h 45.06 c 3.34,0 5.34,-0.45 6.44,-1.11 0.89,-0.89 1.33,-2.22 1.33,-4.44 v -6.44 c 0,-2 -0.44,-3.55 -1.33,-4.21 -1.1,-0.89 -3.11,-1.34 -6.44,-1.34 H 272.6 Z m 51.06,51.06 c 0.89,-0.89 1.34,-1.78 1.1,-3.11 v -8.21 c 0.22,-1.1 -0.21,-2.22 -1.1,-2.89 l -6.22,-1.1 H 272.6 V 0.67 h 44.84 c 3.34,0 5.55,-0.44 6.22,-0.89 z m 24.2,0.45 c 0.22,6.21 -1.55,11.09 -5.33,13.98 -3.56,3.11 -9.1,4.66 -16.65,4.66 h -78.36 v -89.9 h 72.82 c 19.08,0.22 28.41,6.43 28.41,19.09 v 10.88 c 0,7.55 -3.32,13.1 -10.21,16.2 6.22,2.89 9.33,7.77 9.33,14.66 V 0.22 Z M 453.52,0 v 18.87 h -95.24 v -89.68 h 96.12 v 20.2 h -71.03 v 16.87 h 40.83 v 18.86 H 383.37 V 0 h 70.14 z" /></g><g
                 id="g230"
                 transform="translate(415.66,282.53)"><path
                   id="path228"
                   style="fill:#b3bad0;fill-opacity:1;fill-rule:nonzero;stroke:none"
                   d="m 0,0 v -10.88 h 22.86 v -57.94 h 14.66 v 57.94 H 60.6 L 60.6,0 Z m -102.78,-68.83 v 53.72 l 27.97,-53.72 h 13.54 v 68.82 h -13.77 v -43.96 l -23.08,43.96 h -18.42 v -68.82 z m -89.9,68.82 h -15.54 v -68.82 h 15.54 z M -284.58,0 h -13.54 V -43.96 L -321.2,0 h -18.43 v -68.82 h 13.54 v 53.72 l 28.19,-53.72 h 13.32 z" /></g><g
                 id="g234"
                 transform="translate(165.71,169.31)"><path
                   id="path232"
                   style="fill:#ffffff;fill-opacity:1;fill-rule:nonzero;stroke:none"
                   d="m 0,0 v 19.53 h -84.58 c -6,0 -10.88,-0.66 -14.43,-2 -3.55,-1.55 -5.99,-3.78 -7.55,-7.1 -1.55,-3.33 -2.22,-7.76 -2.22,-13.32 v -45.06 c 0,-5.55 0.66,-10 2.22,-13.32 1.56,-3.11 3.99,-5.55 7.55,-6.89 3.55,-1.55 8.44,-2.21 14.43,-1.99 h 61.49 c 8.87,-0.22 15.09,1.34 18.86,4.66 3.55,3.55 5.33,9.32 5.11,17.55 v 31.75 h -58.16 v -18.87 h 33.75 V -49.92 H -83.69 V 0.02 L 0,0.02 Z M 217.54,19.53 179.36,-43.95 141.4,19.53 H 118.54 V -54.39 L 73.92,19.53 H 51.5 L -1.99,-70.15 h 67.04 v 20.2 H 35.08 l 27.75,44.62 37.52,-64.82 h 41.28 v 47.95 l 28.64,-47.95 h 18.43 l 28.86,47.95 v -47.95 h 23.09 v 89.68 h -23.09 z" /></g></g></g></g></g></g></g></svg>