<?xml version="1.0" encoding="UTF-8"?>
<svg xmlns="http://www.w3.org/2000/svg" xmlns:xlink="http://www.w3.org/1999/xlink" viewBox="0 0 1024 1024">
  <defs>
    <style>
      .cls-1 {
        fill: #00aeef;
      }

      .cls-1, .cls-2, .cls-3 {
        stroke-width: 0px;
      }

      .cls-2 {
        fill: #000;
        mix-blend-mode: multiply;
      }

      .cls-3 {
        fill: url(#New_Gradient_Swatch_14);
      }

      .cls-4 {
        isolation: isolate;
      }
    </style>
    <linearGradient id="New_Gradient_Swatch_14" data-name="New Gradient Swatch 14" x1="58.27" y1="437.56" x2="965.73" y2="437.56" gradientUnits="userSpaceOnUse">
      <stop offset="0" stop-color="#6ebe44"/>
      <stop offset="0" stop-color="#6ebe44"/>
      <stop offset=".08" stop-color="#73c041"/>
      <stop offset=".18" stop-color="#83c539"/>
      <stop offset=".29" stop-color="#9ecf2d"/>
      <stop offset=".41" stop-color="#c3dc1b"/>
      <stop offset=".53" stop-color="#f2ed05"/>
      <stop offset=".56" stop-color="#fff200"/>
      <stop offset="1" stop-color="#ef4223"/>
    </linearGradient>
  </defs>
  <g class="cls-4">
    <g id="Arcade">
      <rect class="cls-2" y="0" width="1024" height="1024" rx="143.49" ry="143.49"/>
      <g>
        <g>
          <path class="cls-1" d="M268.73,641.67h-28.7v-58.33h40.74c21.76,0,32.41,8.8,32.41,27.78,0,23.15-11.57,30.55-44.44,30.55M469.18,558.8h-33.33l-.93,1.85-37.5,68.98-40.28-68.98-.93-1.39h-35.65l2.78,4.63,6.94,11.11c-11.11-10.65-27.78-16.2-49.53-16.2h-71.76v89.81l-53.24-87.96-.93-1.39h-27.31l-.93,1.39-60.64,101.85-2.78,4.63h76.38v-24.07h-31.02l31.02-56.02,43.98,78.24.93,1.39h89.35c46.76,0,70.83-18.52,70.83-54.63,0-6.48-.93-12.04-2.31-17.13l42.59,70.37.93,1.39h20.83l.93-1.39,58.79-101.85,2.78-4.63"/>
          <polyline class="cls-1" points="676.11 558.8 672.87 558.8 672.87 623.15 591.86 559.73 590.93 558.8 569.64 558.8 569.64 648.61 516.4 560.65 515.47 558.8 488.16 558.8 487.23 560.65 426.59 662.04 423.81 667.13 456.22 667.13 456.22 667.13 500.66 667.13 500.66 643.06 469.64 643.06 500.66 587.04 544.64 665.28 545.56 667.13 580.75 667.13 580.75 667.13 598.34 667.13 598.34 601.86 679.35 666.2 680.28 667.13 701.57 667.13 701.57 558.8 676.11 558.8"/>
          <path class="cls-1" d="M804.34,558.8h-63.42c-22.22,0-29.63,6.94-29.63,27.31v53.7c0,20.37,7.41,27.31,29.63,27.31h63.42c22.22,0,29.63-6.94,29.63-27.31v-15.28h-31.48v16.67h-60.64v-56.94h60.64v14.81h31.48v-12.96c0-20.83-7.41-27.31-29.63-27.31"/>
          <polyline class="cls-1" points="957.58 641.67 875.17 641.67 875.17 622.69 924.71 622.69 924.71 599.08 875.17 599.08 875.17 583.34 959.43 583.34 959.43 558.8 844.16 558.8 844.16 667.13 960.82 667.13 960.82 641.67 957.58 641.67"/>
        </g>
        <path class="cls-3" d="M418.54,360.79l-36.11,84.72-15.28-84.72h-31.48l-40.74,124.99-20.83-124.99h-38.89l-59.26,134.25,8.8-56.02h-58.79l-4.63,28.7h24.54l-2.78,15.28c-13.89,6.02-37.96,4.17-48.15-14.35-6.48-11.57-12.5-37.5,14.81-61.11,22.22-19.44,60.64-22.68,82.87-12.5,0,0,2.78-16.2,5.09-31.48-42.59-14.81-75.92-2.31-98.14,11.11-30.09,18.52-44.44,47.22-40.74,86.11,4.63,44.9,62.5,73.14,112.03,44.9.46-.46.93-.46.93-.46l-4.63,10.65h33.33l20.83-46.29h36.57l7.87,46.29h53.7l27.31-86.11,17.59,86.11h21.3l41.2-95.37,4.17,95.37h31.48l-6.02-155.08h-37.96ZM233.83,439.03l13.43-30.09,6.02,30.09h-19.44ZM490.3,360.79h87.5l-5.09,33.33h-55.55l-4.17,27.31h48.61l-5.09,33.33h-48.15l-4.63,27.31h55.55l-5.09,33.33h-88.42l24.54-154.62ZM965.73,360.79l-56.94,89.81-9.72,64.81h-31.94l11.57-73.14-37.5-81.48h36.57l19.44,50.46,31.48-50.46h37.03ZM811.11,362.18c-35.18-7.87-71.76,19.91-81.48,62.5s10.65,83.79,45.83,92.12c35.18,8.33,71.76-19.91,81.48-62.5,9.72-42.59-11.11-83.79-45.83-92.12ZM823.15,452.91c-8.33,25.46-29.17,40.28-45.83,32.87-16.67-7.41-23.15-34.26-14.81-60.18,8.33-25.46,29.17-40.28,45.83-32.87,17.13,7.87,23.61,34.72,14.81,60.18ZM685.19,361.71c-17.13-.46-59.26,0-59.26,0h.46l-24.54,153.23h71.29c29.17,0,72.22-43.05,33.33-78.7,39.81-41.66,0-74.07-21.3-74.53ZM666.68,485.32h-27.78l5.09-30.55h26.39c25-.46,24.54,30.55-3.7,30.55ZM670.38,422.82h-22.22l5.09-28.7h20.37c22.68,0,18.52,28.7-3.24,28.7Z"/>
      </g>
    </g>
  </g>
</svg>