<?xml version="1.0" encoding="UTF-8"?>
<svg xmlns="http://www.w3.org/2000/svg" xmlns:xlink="http://www.w3.org/1999/xlink" viewBox="0 0 1024 1024">
  <defs>
    <style>
      .cls-1 {
        fill: #00aeef;
      }

      .cls-1, .cls-2, .cls-3, .cls-4, .cls-5, .cls-6 {
        stroke-width: 0px;
      }

      .cls-2 {
        fill: url(#linear-gradient);
      }

      .cls-3 {
        mix-blend-mode: multiply;
      }

      .cls-3, .cls-4 {
        fill: #000;
      }

      .cls-5 {
        fill: #443f3f;
      }

      .cls-7 {
        isolation: isolate;
      }

      .cls-6 {
        fill: #fff;
      }
    </style>
    <linearGradient id="linear-gradient" x1="512" y1="158.41" x2="512" y2="774.37" gradientUnits="userSpaceOnUse">
      <stop offset="0" stop-color="#a3ddf2"/>
      <stop offset="1" stop-color="#00aeef"/>
    </linearGradient>
  </defs>
  <g class="cls-7">
    <g id="Arcade">
      <rect class="cls-3" y="0" width="1024" height="1024" rx="143.49" ry="143.49"/>
      <g>
        <g>
          <rect class="cls-2" x="112.5" y="158.41" width="799" height="615.96" rx="35.22" ry="35.22"/>
          <rect class="cls-4" x="231.93" y="94.79" width="560.15" height="743.19" rx="20.72" ry="20.72" transform="translate(978.39 -45.61) rotate(90)"/>
          <rect class="cls-5" x="251.17" y="114.04" width="521.65" height="704.7" rx="10.72" ry="10.72" transform="translate(978.39 -45.61) rotate(90)"/>
          <path class="cls-6" d="M769.16,487.04c.4,2.89.85,5.96,1.23,9.04,1.33,10.75.27,21.26-3.33,31.47-1.88,5.33-4.17,10.45-7.5,15.1-8.04,11.23-18.54,18.83-32.34,20.61-17.82,2.31-32.25-3.96-42.56-18.92-1.19-1.73-2-3.73-3.26-6.11-.99.81-1.93,1.34-2.54,2.13-5.83,7.41-12.98,13.29-21.27,17.63-6.59,3.45-13.71,5.4-21.27,5.64-7.66.25-14.91-.89-21.84-4.43-6.31-3.22-11.34-7.71-15.45-13.38-.72-.99-1.48-1.95-2.45-3.21-1.56,1-2.95,1.78-4.22,2.72-9.53,7.08-19.71,12.9-31.25,16.06-10.85,2.97-21.67,3.41-32.59.08-8.59-2.62-14.78-8.19-19.96-15.18-1.02-1.38-2.03-2.76-3.25-4.42-1.65,1.33-2.92,2.49-4.33,3.47-10.04,6.98-20.56,13.03-32.53,16.05-8.65,2.18-17.34,3.38-26.39,2.43-8.22-.87-16.04-2.67-23.42-6.34-1.79-.89-3.54-1.9-5.19-3.03-1.98-1.36-3.81-1.35-5.98-.33-6.59,3.11-13.44,5.65-20.6,7-6.13,1.16-12.38,2.22-18.59,2.31-8.95.13-17.51-2.15-24.39-8.25-6.1-5.41-9.06-12.63-9.32-20.7-.16-5.1.28-10.27.96-15.34,1.09-8.19,2.56-16.33,3.94-24.48.6-3.58.15-7.07-1.12-10.35-2.09-5.41-5.71-7.29-12-6.95-5.53.29-10.39,2.65-14.32,6.71-5.18,5.36-9.3,11.37-12.51,18.14-6.4,13.54-9.53,27.91-11.57,42.61-.45,3.22-.54,6.5-1.14,9.69-.95,5.03-4.27,7.6-9.26,7.56-5.6-.04-9.24-3.5-9.22-9.16,0-3.24.47-6.49.83-9.72.61-5.6,1.3-11.18,1.92-16.78.06-.56-.14-1.16-.31-2.34-1.26.85-2.18,1.37-3,2.02-9.43,7.47-19.01,14.73-29.31,21-3,1.82-5.98,3.68-9.04,5.39-2.67,1.5-5.4,2.48-8.58,1.19-6.62-2.67-8.13-11.14-2.53-15.58,3.03-2.41,6.34-4.51,9.65-6.53,11.92-7.26,23.07-15.54,33.52-24.76,3.85-3.39,7.49-7.01,11.26-10.5,1.45-1.34,2.11-2.93,2.38-4.92,2.13-16.26,4.24-32.53,6.61-48.76,1.62-11.03,3.34-22.06,5.62-32.96,1.43-6.84,3.49-13.63,6.12-20.1,3.12-7.65,7.95-14.26,15.75-17.98,14.37-6.85,31.49-.78,36.77,15.59,2.39,7.41,2.58,15.01,1.55,22.68-1.9,14.24-6.68,27.47-14,39.81-1.21,2.05-2.35,4.14-3.46,6.25-.38.73-.57,1.57-.92,2.56.84.22,1.4.45,1.99.52,6.43.72,11.97,3.45,17,7.41,3.7,2.91,5.77,6.85,7.41,11.11,2.84,7.36,2.78,15.02,1.84,22.63-1.04,8.45-2.72,16.81-3.85,25.25-.44,3.33-.29,6.76-.14,10.13.16,3.6,2.34,5.9,5.45,7.53,4.61,2.42,9.56,1.89,14.39,1.56,6.65-.46,13.1-2.11,19.39-4.33.71-.25,1.41-.53,2.09-.84,3.58-1.65,3.76-2.04,2.28-5.7-5.41-13.34-5.9-27.01-2.94-40.97,1.28-6.06,3.32-11.8,6.23-17.26,6.03-11.33,15.02-18.7,27.96-20.41,10.12-1.33,19.18,1.39,26.44,8.73,4.8,4.85,7.43,10.92,8.34,17.73,1.45,10.85-1.05,20.81-6.26,30.31-5.16,9.43-12.7,16.69-20.67,23.61-2.15,1.86-4.28,3.73-7.01,6.11,1.79.8,2.92,1.44,4.13,1.82,5.93,1.85,12.05,2.56,18.21,2.02,8.53-.75,16.82-2.53,24.56-6.51,7.19-3.69,13.58-8.48,19.74-13.63,2.09-1.74,3.03-3.81,2.59-6.61-2.03-12.95-1.65-25.94-.72-38.97.9-12.63,2.49-25.16,4.57-37.64,2.44-14.64,6.12-28.94,11.63-42.7,3.46-8.64,7.81-16.85,14.68-23.39,7.75-7.38,16.88-9.15,26.8-5.67,8.3,2.91,12.75,9.51,14.53,17.82,1.3,6.11,1.69,12.25,1.16,18.63-.99,11.93-3.13,23.59-6.15,35.11-2.65,10.08-6.32,19.78-10.63,29.29-6.61,14.55-14.94,28.09-23.58,41.46-2.85,4.41-6.1,8.58-9.38,12.69-1.39,1.74-1.44,3.16-.6,5.12,5.12,12.08,15.72,16.28,27.49,14.74,13.27-1.74,24.22-7.99,34.55-16.2,5.04-4,6.91-7.75,5.59-14.22-1.96-9.6-1.21-19.5-.86-29.25.29-7.99,1.19-15.99,2.37-23.9,1.65-11.02,3.55-22.01,5.81-32.92,3.02-14.54,7.58-28.64,15.13-41.49,3.65-6.22,8.12-12.01,14.78-15.67,9.98-5.49,25.85-3.73,31.87,9.35,2.29,4.97,3.59,10.03,3.73,15.56.56,22.04-4.2,43.07-11.81,63.55-5.91,15.91-13.75,30.9-22.88,45.18-4.45,6.96-9.4,13.59-14.24,20.29-1.07,1.48-1.47,2.71-.72,4.45,3.83,8.87,10.12,14.8,20.04,15.35,8.02.44,15.67-1.42,22.29-6.43,10.32-7.8,16.94-18.2,21.71-30.06,3.36-8.36,5.9-17.03,10.15-25.07,4.82-9.12,11.32-16.64,20.13-21.82,10.02-5.89,20.8-8.22,32.52-5.7,6.16,1.32,11.47,4.32,16.93,7.07,3.74,1.89,7.56,3.32,11.74,3.75,9.79,1.02,18.06-1.82,24.33-9.65,2.16-2.69,4.34-5.13,8.25-5.16,7.39-.06,12.06,7.26,8.29,13.6-1.83,3.08-4.2,6-6.88,8.38-8.23,7.31-18,11.21-29.01,11.93-.62.04-1.24.15-1.84.29-.22.05-.41.27-.92.64ZM721.28,544.73c4.3.54,8.65-.42,12.58-2.95,7.06-4.54,12.21-10.7,15.22-18.57,1.94-5.07,2.83-10.31,3.17-15.76.42-6.74-.16-13.23-2.5-19.54-1.51-4.08-3.91-7.67-7.55-10.07-8.35-5.5-17.02-5.18-25.62-.61-4.39,2.33-7.93,5.92-10.68,9.9-7.73,11.16-10.5,23.68-8.53,37.12.71,4.89,2.52,9.49,5.78,13.29,4.65,5.4,10.67,7.69,18.13,7.18ZM606.15,500.62l.9.25c1.88-2.78,3.86-5.5,5.61-8.35,5.38-8.75,10.31-17.75,14.71-27.04,5.02-10.59,8.73-21.62,11.12-33.05,1.78-8.56,3.12-17.24,4.26-25.91.65-4.95.59-10.01-.7-14.94-1.32-5.05-5.04-6.19-8.98-2.72-3.22,2.84-5.85,6.11-7.82,9.99-5.5,10.82-8.93,22.32-11.55,34.09-2.48,11.12-4.54,22.33-5.48,33.71-.58,7.1-1.51,14.18-2.01,21.28-.3,4.21-.05,8.46-.05,12.69ZM515.18,499.47c.4.15.8.31,1.21.46.76-.91,1.66-1.75,2.27-2.75,2.73-4.49,5.53-8.96,8.03-13.58,3.88-7.16,7.88-14.28,11.2-21.7,4.76-10.66,8.33-21.77,10.68-33.23,2.19-10.7,3.99-21.44,3.34-32.43-.09-1.49-.15-3.02-.52-4.46-1.13-4.27-5.61-5.89-9.04-3.1-2.11,1.71-4.05,3.79-5.57,6.04-5.03,7.46-8.07,15.86-10.55,24.41-3.11,10.71-5.7,21.56-7.08,32.66-.94,7.57-1.81,15.16-2.6,22.75-.57,5.47-1.02,10.96-1.37,16.45-.18,2.82,0,5.65,0,8.48ZM297.49,466.78c.39.15.79.31,1.18.46.89-.98,1.86-1.92,2.67-2.96,5.23-6.72,9.83-13.85,14.24-21.15,6.48-10.75,11.37-22.04,13.16-34.49.6-4.18.61-8.52.22-12.72-.2-2.21-1.58-4.48-2.92-6.37-.74-1.04-2.45-1.73-3.82-1.91-4.42-.6-7.41,1.88-9.55,5.35-1.36,2.22-2.37,4.69-3.31,7.14-2.89,7.52-4.33,15.43-5.66,23.32-1.9,11.23-3.51,22.5-5.17,33.77-.47,3.17-.7,6.37-1.04,9.56ZM415.19,527.92c1.57-1.13,2.93-1.98,4.15-3,4.9-4.07,9.72-8.21,13.97-13.02,3.6-4.09,6.89-8.36,8.83-13.4,2.28-5.93,3.3-12.09.82-18.33-1.71-4.28-5.26-6.69-9.81-6.87-4.15-.17-7.5,1.44-10.58,4.06-5.41,4.6-8.03,10.71-9.95,17.32-2.18,7.53-1.54,15.18-1.1,22.78.21,3.52,1.35,7.05,3.66,10.47Z"/>
        </g>
        <path class="cls-1" d="M352.12,865.59h320c12.25,0,22.25-10,22.25-22.25s-10-22.5-22.25-22.5h-320c-12.5,0-22.5,10-22.5,22.5s10,22.25,22.5,22.25Z"/>
      </g>
    </g>
  </g>
</svg>