<?xml version="1.0" encoding="UTF-8"?>
<svg xmlns="http://www.w3.org/2000/svg" viewBox="0 0 1024 1024">
  <defs>
    <style>
      .cls-1 {
        fill: #00aeef;
      }

      .cls-1, .cls-2, .cls-3, .cls-4, .cls-5 {
        stroke-width: 0px;
      }

      .cls-2 {
        mix-blend-mode: multiply;
      }

      .cls-2, .cls-3 {
        fill: #000;
      }

      .cls-4 {
        fill: #000100;
      }

      .cls-6 {
        isolation: isolate;
      }

      .cls-5 {
        fill: #fff;
      }
    </style>
  </defs>
  <g class="cls-6">
    <g id="Arcade">
      <rect class="cls-2" y="0" width="1024" height="1024" rx="143.49" ry="143.49"/>
      <g>
        <path class="cls-5" d="M136.78,829.15c-10.05,0-19.33-5.36-24.36-14.06-5.02-8.7-5.02-19.42,0-28.13L490.38,132.32c5.02-8.7,14.31-14.06,24.36-14.06,10.05,0,19.33,5.36,24.36,14.06l377.96,654.64c5.02,8.7,5.02,19.42,0,28.13-5.02,8.7-14.31,14.06-24.36,14.06H136.78Z"/>
        <path class="cls-4" d="M514.74,146.39L136.78,801.03h755.92L514.74,146.39ZM514.74,207.69l324.86,562.68H189.87L514.74,207.69ZM572.92,585.57c0-31.18-25.36-56.54-56.54-56.54s-56.54,25.36-56.54,56.54,25.36,56.54,56.54,56.54,56.54-25.36,56.54-56.54ZM429.57,724.4h-160.06l83.19-144.09c-.06,1.75-.13,3.49-.13,5.25,0,58.46,30.8,109.84,77.01,138.83ZM429.96,446.48l84.78-146.84,83.05,143.85c-24-13.81-51.79-21.75-81.41-21.75-31.7,0-61.31,9.08-86.42,24.74ZM759.97,724.4h-156.78c46.03-28.89,76.76-80,76.99-138.19l79.79,138.19ZM516.38,462.61c-67.8,0-122.96,55.16-122.96,122.96s55.16,122.96,122.96,122.96,122.96-55.16,122.96-122.96-55.16-122.96-122.96-122.96ZM516.38,682.98c-53.71,0-97.41-43.7-97.41-97.41s43.7-97.41,97.41-97.41,97.41,43.7,97.41,97.41-43.7,97.41-97.41,97.41Z"/>
        <path class="cls-1" d="M514.74,207.69L189.87,770.37h649.73L514.74,207.69ZM514.74,299.65l83.05,143.85c-24-13.81-51.79-21.75-81.41-21.75-31.7,0-61.31,9.08-86.42,24.74l84.78-146.84ZM269.5,724.4l83.19-144.09c-.06,1.75-.13,3.49-.13,5.25,0,58.46,30.8,109.84,77.01,138.83h-160.06ZM393.43,585.57c0-67.8,55.16-122.96,122.96-122.96s122.96,55.16,122.96,122.96-55.16,122.96-122.96,122.96-122.96-55.16-122.96-122.96ZM680.19,586.21l79.79,138.19h-156.78c46.03-28.89,76.76-80,76.99-138.19Z"/>
        <path class="cls-3" d="M516.38,642.11c-31.18,0-56.54-25.36-56.54-56.54s25.36-56.54,56.54-56.54,56.54,25.36,56.54,56.54-25.36,56.54-56.54,56.54Z"/>
      </g>
    </g>
  </g>
</svg>