<?xml version="1.0" encoding="UTF-8"?>
<svg id="Arcade" xmlns="http://www.w3.org/2000/svg" viewBox="0 0 1024 1024">
  <defs>
    <style>
      .cls-1 {
        fill: #ed1c24;
      }

      .cls-1, .cls-2 {
        stroke-width: 0px;
      }

      .cls-2 {
        fill: #000;
      }
    </style>
  </defs>
  <rect class="cls-2" y="0" width="1024" height="1024" rx="143.49" ry="143.49"/>
  <g>
    <g>
      <g id="g3065">
        <path id="path3067" class="cls-1" d="M426.92,471.72c-20.9-4.58-37.17-14.52-54.87-32.47-19.49-19.71-89.04-101.96-89.04-101.96l110.93-105.35h-60.01l-101.26,99.06c-4.44,4.31-7.04,7.13-9.3,9.94h-.57c.16-3.31.29-6.81.29-10.22v-79.21c0-10.77-8.75-19.56-19.56-19.56h-52.53c-2.49,0-2.81,2.68-.93,3.55,7.96,3.65,14.21,7.93,14.21,22.15v216.33h58.8v-111.5c0-2.84-.13-5.05-.29-8.27h.57c2.01,3.3,5.53,7.09,9.3,11.68,0,0,61.8,72.67,68.36,79.51,26.19,27.42,62.87,37.11,125.61,31.06,3.38-.35,3.42-3.99.28-4.72"/>
      </g>
      <g id="g3069">
        <path id="path3071" class="cls-1" d="M541.16,458.06c-48.7,0-76.5-47.63-76.5-102.03,0-62.62,27.81-108.18,76.5-108.18s76.47,47.61,76.47,102.02c0,64.29-27.81,108.19-76.47,108.19M541.16,223.11c-81.64,0-141.86,56.85-141.86,129.87s55.45,129.83,141.86,129.83c81.61,0,141.81-56.89,141.81-129.83s-55.43-129.87-141.81-129.87"/>
      </g>
      <g id="g3081">
        <path id="path3083" class="cls-1" d="M917.51,231.94v138.36c0,6.78.32,11.06.6,17.12h-.6c-4.67-6.54-9.85-13.29-17.45-22.23l-104.04-120.32c-8.16-9.32-14.67-12.91-29.6-12.94h-52.88c-2.48,0-2.77,2.68-.89,3.55,7.99,3.65,14.22,7.93,14.22,22.15v216.33h39.55v-155.6c0-8.37-.32-14.82-.57-21.75h.57c7.29,9.84,17.36,22.83,25.47,32.23l124.85,145.12h20.8c10.81,0,19.55-8.78,19.55-19.57v-222.46h-39.58Z"/>
      </g>
    </g>
    <g>
      <g id="g3073">
        <path id="path3075" class="cls-1" d="M673.73,800.89l-36.17-220.84c-1.85-11.06-12.05-21.19-24.71-21.19h-33.89l-59.33,137.79c-2.76,6.2-4.51,11.02-5.79,14.64h-.32c-1.21-3.8-2.94-8.32-5.33-13.88l-52.38-122.86h-.03c-3.8-8.78-12.55-15.69-23.48-15.69h-51.98c-2.53,0-2.82,2.68-.93,3.55,7.09,3.23,12.17,8.37,10.03,21.95l-35.54,216.53h37.47l23.63-152.72c1.15-7.8,2.49-17.28,2.94-22.08h.29c2.34,6.29,5.34,13.83,8.73,21.63l65.25,153.17h19.36l66.02-155.85c3.83-9.26,6.36-15.78,8.11-20.73h.32c.73,5.95,1.92,15.05,3.32,24.19l24.45,152.39h59.99Z"/>
      </g>
      <g id="g3077">
        <path id="path3079" class="cls-1" d="M762.65,558.86h-54.92c-2.55,0-2.82,2.68-.93,3.55,7.96,3.65,14.21,7.93,14.21,22.15v216.33h61.19v-222.47c0-10.77-8.75-19.56-19.55-19.56"/>
      </g>
      <g id="g3085">
        <path id="path3087" class="cls-1" d="M150.45,715.88l37.9-83.42c1.85-4.23,3.5-8,4.08-10.04h.61c.75,2.42,2.34,6.11,4.09,10.18l36.91,83.27h-83.59ZM271.69,800.89h66.63l-105.17-227.1c-3.84-8.21-12.18-14.93-23.04-14.93h-45.99c-2.55,0-2.78,2.63-.92,3.55,5.62,2.81,9.51,12.14,5.43,20.84l-101.73,217.64h44.98l25.27-55.74h109.85l24.68,55.74h0Z"/>
      </g>
    </g>
  </g>
</svg>