<?xml version="1.0" encoding="UTF-8"?>
<svg xmlns="http://www.w3.org/2000/svg" xmlns:xlink="http://www.w3.org/1999/xlink" viewBox="0 0 1024 1024">
  <defs>
    <style>
      .cls-1 {
        fill: #00aeef;
      }

      .cls-1, .cls-2, .cls-3, .cls-4, .cls-5, .cls-6, .cls-7, .cls-8 {
        stroke-width: 0px;
      }

      .cls-2 {
        fill: none;
      }

      .cls-3 {
        fill: url(#linear-gradient);
      }

      .cls-4 {
        fill: #000;
        mix-blend-mode: multiply;
      }

      .cls-5 {
        fill: #fc0;
      }

      .cls-6 {
        fill: #069330;
      }

      .cls-7 {
        fill: #fe2015;
      }

      .cls-8 {
        fill: #011da9;
      }

      .cls-9 {
        isolation: isolate;
      }
    </style>
    <linearGradient id="linear-gradient" x1="682.34" y1="328.16" x2="601.68" y2="459.3" gradientUnits="userSpaceOnUse">
      <stop offset="0" stop-color="#000"/>
      <stop offset="1" stop-color="#a9d6f3"/>
    </linearGradient>
  </defs>
  <g class="cls-9">
    <g id="Arcade">
      <rect class="cls-4" y="0" width="1024" height="1024" rx="143.49" ry="143.49"/>
      <polygon class="cls-2" points="338.23 318.96 337.24 317.23 338.23 318.96 338.23 318.96"/>
      <polygon class="cls-8" points="345.31 325.17 345.64 324.59 337.24 317.23 338.23 318.96 345.31 325.17"/>
      <polygon class="cls-8" points="606.7 199.28 606.7 199.11 606.62 199.15 606.7 199.28"/>
      <polygon class="cls-5" points="605.92 198.77 512.02 157.62 417.35 199.11 511.64 240.1 605.92 198.77"/>
      <polygon class="cls-5" points="606.7 199.11 606.57 199.06 606.62 199.15 606.7 199.11"/>
      <polygon class="cls-8" points="416.96 588.05 416.97 576.13 354.31 631.15 417.35 603.93 417.35 588.22 416.96 588.05"/>
      <polygon class="cls-8" points="336.81 706.87 337.24 706.68 337.24 623.68 336.81 623.49 336.81 706.87"/>
      <polygon class="cls-8" points="686.42 623.85 686.42 706.17 686.8 706.34 686.8 623.68 686.42 623.85"/>
      <polygon class="cls-8" points="512.09 240.89 511.64 240.1 424.2 394.33 511.6 241.11 512.09 240.89"/>
      <polygon class="cls-8" points="606.27 386.98 606.27 435.15 606.7 435.34 615.19 442.79 654.73 373.46 651.66 378.84 657.67 368.3 664.4 356.51 686.8 317.23 687.2 317.05 686.42 316.71 677.92 324.16 606.27 386.98"/>
      <line class="cls-8" x1="502.11" y1="398.19" x2="511.6" y2="394.03"/>
      <polygon class="cls-8" points="417.35 588.22 417.35 575.8 416.97 576.13 416.96 588.05 417.35 588.22"/>
      <polygon class="cls-8" points="305.77 609.89 242.56 499.18 242.56 748.18 242.14 747.99 242.14 748.67 336.81 707.17 336.81 706.87 336.81 623.49 305.77 609.89"/>
      <polyline class="cls-8" points="502.11 398.19 417.35 435.34 408.85 442.79 402.78 432.15 343.61 328.4 338.23 318.96 338.23 318.96 345.31 325.17 424.2 394.33 511.6 241.11 512.09 240.89 599.03 393.33 606.27 386.98 606.27 435.15 512.02 393.84 511.6 394.03"/>
      <polygon class="cls-6" points="424.2 394.33 511.64 240.1 417.35 199.11 394.52 238.89 381.78 261.22 384.85 255.84 345.64 324.59 345.31 325.17 424.2 394.33"/>
      <polygon class="cls-7" points="512.09 240.89 599.03 393.33 606.27 386.98 677.92 324.16 671.85 313.52 612.68 209.77 606.7 199.28 606.62 199.15 606.57 199.06 606.31 198.6 605.92 198.77 511.64 240.1 512.09 240.89"/>
      <polygon class="cls-6" points="512.02 476.84 417.35 435.34 408.85 442.79 329.96 511.95 242.56 358.73 147.89 317.23 147.89 706.68 242.14 747.99 242.56 748.18 242.56 499.18 305.77 609.89 336.81 623.49 337.24 623.68 354.3 631.16 354.31 631.15 416.97 576.13 417.35 575.8 417.35 588.22 417.35 603.93 417.35 824.79 512.02 866.29 512.02 476.84"/>
      <polygon class="cls-5" points="337.24 317.23 242.56 275.73 147.89 317.23 242.56 358.73 337.24 317.23"/>
      <polygon class="cls-1" points="657.67 368.3 651.66 378.84 664.4 356.51 657.67 368.3"/>
      <polygon class="cls-3" points="657.67 368.3 651.66 378.84 664.4 356.51 657.67 368.3"/>
      <polygon class="cls-7" points="606.7 603.93 669.74 631.15 606.7 575.8 606.7 603.93"/>
      <polygon class="cls-7" points="718.27 609.89 686.8 623.68 686.8 706.34 686.8 706.68 781.48 748.18 781.48 499.18 718.27 609.89"/>
      <polygon class="cls-8" points="781.48 358.73 694.09 511.95 615.19 442.79 606.7 435.34 512.02 476.84 512.02 866.29 606.7 824.79 606.7 603.93 606.7 575.8 669.74 631.15 669.74 631.16 686.42 623.85 686.8 623.68 718.27 609.89 781.48 499.18 781.48 748.18 876.15 706.68 876.15 317.23 781.48 358.73"/>
      <polygon class="cls-5" points="781.48 358.73 876.15 317.23 781.48 275.73 687.2 317.05 686.8 317.23 781.48 358.73"/>
      <polygon class="cls-7" points="329.96 511.95 408.85 442.79 402.78 432.15 343.61 328.4 338.23 318.96 337.24 317.23 242.56 358.73 329.96 511.95"/>
      <polygon class="cls-5" points="512.02 393.84 511.6 394.03 502.11 398.19 417.35 435.34 512.02 476.84 606.7 435.34 606.27 435.15 512.02 393.84"/>
      <polygon class="cls-6" points="686.8 317.23 664.4 356.51 651.66 378.84 654.73 373.46 615.19 442.79 694.09 511.95 781.48 358.73 686.8 317.23"/>
    </g>
  </g>
</svg>