<?xml version="1.0" encoding="UTF-8"?>
<svg xmlns="http://www.w3.org/2000/svg" xmlns:xlink="http://www.w3.org/1999/xlink" viewBox="0 0 1024 1024">
  <defs>
    <style>
      .cls-1 {
        fill: url(#New_Gradient_Swatch_6);
      }

      .cls-1, .cls-2, .cls-3, .cls-4 {
        stroke-width: 0px;
      }

      .cls-2 {
        fill: #000;
        mix-blend-mode: multiply;
      }

      .cls-5 {
        isolation: isolate;
      }

      .cls-3 {
        fill: #61c3e7;
      }

      .cls-4 {
        fill: #fff;
      }
    </style>
    <linearGradient id="New_Gradient_Swatch_6" data-name="New Gradient Swatch 6" x1="45.11" y1="516.12" x2="978.85" y2="516.12" gradientUnits="userSpaceOnUse">
      <stop offset="0" stop-color="#1bb7f0"/>
      <stop offset="1" stop-color="#00274f"/>
    </linearGradient>
  </defs>
  <g class="cls-5">
    <g id="Arcade">
      <rect class="cls-2" x="0" y="0" width="1024" height="1024" rx="143.49" ry="143.49"/>
      <g>
        <path class="cls-4" d="M934.34,446.86l65.8-65.8h-173.32l-115.7,115.7v-131.15l-85.45,84.67v-84.73l-153.81,153.03v-153.89l-137.5,137.5v-136.58l-85.45,84.67v-84.87L23.88,591.35h102.54l67.56-66.91v82.17l72.24-70.69v34.42l-84.72,84.72h102.63l118.81-118.81v55.11h101.03l66.76-66.76v82.02l72.24-70.69v29.28l-23.25,26.16h225.23l68.41-67.36h-132.3l4.89-4.89h40.39l68.13-68.13h-39.62l4.11-4.11h75.35Z"/>
        <path class="cls-3" d="M828.85,385.96l-122.63,122.63v-131.22l-85.45,84.67v-84.7l-153.81,153.03v-153.84l-137.5,137.5v-136.66l-85.45,84.67v-84.76l-208.34,209.17h88.73l74.48-73.76v82.26l72.24-70.69v48.1l-77.79,77.79h88.77l125.74-125.74v62.04h94.1l73.69-73.69v82.2l72.24-70.69v42.79l-17.24,19.39h212.31l58.46-57.56h-132.17l14.69-14.69h40.4l58.33-58.33h-39.62l13.91-13.91h75.35l56-56h-159.46Z"/>
        <polygon class="cls-1" points="830.48 389.88 702.3 518.06 702.3 386.77 616.85 471.45 616.85 386.77 463.04 539.81 463.04 386 325.54 523.5 325.54 386.77 240.09 471.45 240.09 386.77 45.11 582.53 122.79 582.53 202.8 503.3 202.8 585.64 275.05 514.95 275.05 573.99 202.8 646.23 280.49 646.23 411.77 514.95 411.77 582.53 500.33 582.53 579.56 503.3 579.56 585.64 651.81 514.95 651.81 568.55 639.38 582.53 841.35 582.53 891.85 532.82 759.79 532.82 782.31 510.29 822.71 510.29 873.2 459.8 833.58 459.8 855.34 438.04 930.69 438.04 978.85 389.88 830.48 389.88"/>
      </g>
    </g>
  </g>
</svg>