<?xml version="1.0" encoding="UTF-8"?>
<svg id="Arcade" xmlns="http://www.w3.org/2000/svg" viewBox="0 0 1024 1024">
  <defs>
    <style>
      .cls-1 {
        fill: #00aeef;
      }

      .cls-1, .cls-2, .cls-3, .cls-4, .cls-5 {
        stroke-width: 0px;
      }

      .cls-2 {
        fill: #ed1c24;
      }

      .cls-3 {
        fill: #ff0;
      }

      .cls-4 {
        fill: #000;
      }

      .cls-5 {
        fill: #ec1c24;
      }
    </style>
  </defs>
  <rect class="cls-4" x="-.44" y="0" width="1024" height="1024" rx="143.49" ry="143.49"/>
  <path class="cls-2" d="M836.46,450.3c-17.98,0-32.98,15-32.98,32.98v57.62c0,17.98,15,32.98,32.98,32.98h104.42c17.98,0,32.98-15,32.98-32.98v-57.62c0-17.98-15-32.98-32.98-32.98h-104.42ZM843.93,485.33h88.7v53.51h-88.7v-53.51ZM50.13,452.76v121.26h40.45v-86.22h76.37v86.22h39.68v-88.27c0-17.98-15-32.98-32.98-32.98H50.13ZM234.02,452.76v31.89h109.9v8.62h-85.81c-17.98,0-32.98,15.14-32.98,33.12v14.64c0,17.98,15,32.98,32.98,32.98h125.5v-88.27c0-17.98-15-32.98-32.98-32.98h-116.6ZM266.45,525.57h77.46v17.24h-77.46v-17.24ZM408.51,452.76v121.26h40.51v-86.22h41.6v86.22h40.51v-86.22h42.43v86.22h39.69v-88.27c0-17.98-15-32.98-32.98-32.98h-171.76ZM669.77,450.3c-17.98,0-32.98,15-32.98,32.98v57.62c0,17.98,15,32.98,32.98,32.98h110.85v-35.04h-102.61v-53.51h102.61v-35.04h-110.85Z"/>
  <path class="cls-2" d="M357.53,317.59c-53.37-18.5-90.36-53.37-76.11-95.82,20.32-60.95,140.09-108.25,267.75-105.22,17.89.3,29.72,1.21,46.09,3.34l64.89-76.72-25.17,83.69c75.81,18.5,123.42,59.13,107.65,105.22-20.62,60.95-134.64,99.46-218.93,104.01l42.15-145.55-166.78,197.4,43.06-159.5-84.6,89.15ZM700.19,221.16c10.01-33.66-17.28-62.47-68.83-80.05l-41.85,141.61c50.64-9.1,101.58-30.63,110.68-61.56ZM587.38,128.67c-14.56-2.12-27.29-3.03-43.67-3.64-102.8-2.43-199.83,35.78-216.2,85.21-9.7,29.41,6.06,48.21,38.51,60.95l144.04-133.42-29.11,116.44,106.43-125.54"/>
  <g>
    <path class="cls-4" d="M521.96,821.55v21.64h43.14v21.63h86.11v42.73h-21.26v21.65h-43.16v21.3h-107.29c-1.06-6.44.11-13.5-.67-20.8h-42.51v-21.65h-21.64v-43.18h-21.64v-107.61h-21.1v-43.13h42.62v-21.53h21.51v-42.8h42.73v21.27h107.62v21.23h42.95v21.48h21.85v43.39h-85.69c-.86,6.86-.05,13.89-.5,21.53h-42.9v21.32c-4.47.07-9,.17-13.52.2-5.02.03-10.04,0-15.05,0h-14.13v21.31h42.54Z"/>
    <path class="cls-3" d="M493.54,800.25c5.02,0,24.1-.14,28.58-.21v-21.32h-42.66c-.12-3.37-.29-6.79-.35-10.23-.06-3.53-.01-7.06-.01-11.3h21.51v-21.31h42.54v21.31h-21.03v21.53h42.9c.45-7.63-.36-14.67.5-21.53h42.66v-21.53h43.03v-21.86h-21.85v-21.48h-42.95v-21.23h-85.8v43.05h-43.03v21.53h-21.51v43.05h-43.03v86.16h21.64v43.18h21.64v21.65h42.51c.78,7.29-.39,14.36.67,20.8h107.29v-21.3h43.16v-21.65h21.26v-21.21h-43.03v-21.53h-43.08v-21.63h-43.14v-21.64h-42.54v-21.31h14.13ZM478.9,864.47h-20.99c-.1-3.03-.27-6.47-.32-9.91-.06-3.52-.01-7.04-.01-10.91h21.33v20.82Z"/>
    <path class="cls-5" d="M457.57,714.15h43.03v-43.05h-21.81v-21.27h-42.73v42.8h21.51v21.53Z"/>
    <path class="cls-5" d="M436.06,735.67h-21.51v-21.53h-42.62v43.13h21.1v21.45h43.03v-43.05Z"/>
    <path class="cls-5" d="M608.17,757.2h43.03v-21.53h-43.03v21.53Z"/>
    <path class="cls-5" d="M651.2,886.35v-21.53h-43.03v21.53h43.03Z"/>
    <path class="cls-5" d="M436.06,692.62h-21.51v21.53h21.51v-21.53Z"/>
    <path class="cls-4" d="M522.12,757.2h21.03v-21.31h-42.54v21.31h21.51Z"/>
    <path class="cls-5" d="M436.06,714.15v21.53h21.51v-21.53h-21.51Z"/>
    <path class="cls-4" d="M500.6,757.2h-21.51c0,4.24-.05,7.77.01,11.3.06,3.43.23,6.86.35,10.23h21.15v-21.53Z"/>
    <path class="cls-1" d="M500.6,757.2v21.53h21.51v-21.53h-21.51Z"/>
    <path class="cls-4" d="M457.59,854.56c.06,3.44.22,6.88.32,9.91h20.99v-20.82h-21.33c0,3.87-.05,7.39.01,10.91Z"/>
    <path class="cls-1" d="M457.57,714.15v-21.53h-21.51v21.53h21.51Z"/>
    <path class="cls-1" d="M436.06,735.67v-21.53h-21.51v21.53h21.51Z"/>
  </g>
</svg>