<?xml version="1.0" encoding="UTF-8"?>
<svg id="Arcade" xmlns="http://www.w3.org/2000/svg" viewBox="0 0 1024 1024">
  <defs>
    <style>
      .cls-1 {
        fill: #000000;
      }

      .cls-1, .cls-2, .cls-3 {
        stroke-width: 0px;
      }

      .cls-2 {
        fill: #ed1c24;
      }

      .cls-3 {
        fill: #fff;
      }
    </style>
  </defs>
  <rect class="cls-1" x="0" y="0" width="1024" height="1024" rx="143.49" ry="143.49"/>
  <g>
    <g>
      <path class="cls-3" d="M231.22,509.83c-47.49,0-86.12-38.63-86.12-86.12s38.63-86.12,86.12-86.12h561.93c47.49,0,86.12,38.63,86.12,86.12s-38.63,86.12-86.12,86.12H231.22Z"/>
      <path class="cls-2" d="M793.15,342.59c44.8,0,81.12,36.32,81.12,81.12s-36.32,81.12-81.12,81.12H231.22c-44.8,0-81.12-36.32-81.12-81.12s36.32-81.12,81.12-81.12h561.93M793.15,332.59H231.22c-50.25,0-91.12,40.88-91.12,91.12s40.88,91.12,91.12,91.12h561.93c50.25,0,91.12-40.88,91.12-91.12s-40.88-91.12-91.12-91.12h0Z"/>
    </g>
    <g>
      <path class="cls-2" d="M302.12,464.26v-84.92h-25.54v59.38l-37.67-59.38h-27.46v84.92h25.54v-61.3l39.59,61.3h25.54Z"/>
      <path class="cls-2" d="M343.62,464.26v-57.47h-25.54v57.47h25.54Z"/>
      <path class="cls-2" d="M343.62,394.66v-15.32h-25.54v15.32h25.54Z"/>
      <path id="_3162" data-name="3162" class="cls-2" d="M433.01,464.26v-39.59c0-8.3-15.96-19.79-24.26-19.79h-7.66c-5.75,0-12.13,5.11-17.88,7.66v-5.75h-25.54v57.47h25.54v-39.59c0-3.83,8.94-8.3,12.77-8.3s10.85,4.47,10.85,8.3v39.59h26.18Z"/>
      <path id="_3162-2" data-name="3162" class="cls-2" d="M646.7,466.23v-39.59c0-8.3-15.96-19.79-24.26-19.79h-7.66c-5.75,0-12.13,5.11-17.88,7.66v-5.75h-25.54v57.47h25.54v-39.59c0-3.83,8.94-8.3,12.77-8.3s10.85,4.47,10.85,8.3v39.59h26.18Z"/>
      <path class="cls-2" d="M474.52,464.26v-57.47h13.41v-7.66h-13.41v-12.13h-26.18v12.13h-13.41v7.66h13.41v57.47h26.18Z"/>
      <path class="cls-2" d="M523.68,404.87c-20.43,0-37.67,14.05-37.67,31.29s17.24,31.93,37.67,31.93c17.88,0,32.56-10.22,36.4-23.62h-26.18v7.66c0,6.39-4.47,8.3-10.22,8.3s-9.58-1.92-9.58-8.3v-15.96h47.25c0-17.24-16.6-31.29-37.67-31.29ZM523.68,410.62c5.75,0,10.22,3.83,10.22,10.22v5.75h-19.79v-5.75c0-6.39,3.83-10.22,9.58-10.22Z"/>
      <path class="cls-2" d="M775.25,404.87c-21.07,0-37.67,14.05-37.67,31.29s16.6,31.93,37.67,31.93,37.67-14.05,37.67-31.93-17.24-31.29-37.67-31.29ZM775.25,410.62c5.75,0,9.58,3.83,9.58,10.22v31.29c0,6.39-3.83,8.3-9.58,8.3-6.39,0-10.22-1.92-10.22-8.3v-31.29c0-6.39,3.83-10.22,10.22-10.22Z"/>
      <path class="cls-2" d="M701.83,379.33v31.29s-7.66-5.75-17.88-5.75c-15.96,0-29.37,14.05-29.37,29.37s13.41,31.93,29.37,31.93c10.22,0,17.88-3.83,17.88-3.83v1.92h25.54v-84.92h-25.54ZM692.25,414.45c5.75,0,9.58,4.47,9.58,10.22v23.62c0,5.75-3.83,7.66-9.58,7.66-6.39,0-10.22-1.92-10.22-7.66v-23.62c0-5.75,3.83-10.22,10.22-10.22Z"/>
    </g>
    <g>
      <path id="_2399" data-name="2399" class="cls-3" d="M203.15,611.18v-37.03c0-7.02-7.02-14.05-14.05-14.05h-53.63v51.08h16.6v-34.48c0-2.55,1.92-5.11,4.47-5.11h25.54c2.55,0,5.11,2.55,5.11,5.11v34.48h15.96Z"/>
      <g id="use3171">
        <path id="_2399-2" data-name="2399" class="cls-3" d="M646.23,611.18v-37.03c0-7.02-7.02-14.05-14.05-14.05h-53.63v51.08h16.6v-34.48c0-2.55,1.92-5.11,4.47-5.11h25.54c2.55,0,5.11,2.55,5.11,5.11v34.48h15.96Z"/>
      </g>
      <g id="use3171-2" data-name="use3171">
        <path id="_2399-3" data-name="2399" class="cls-3" d="M888.75,611.18v-37.03c0-7.02-7.02-14.05-14.05-14.05h-53.63v51.08h16.6v-34.48c0-2.55,1.92-5.11,4.47-5.11h25.54c2.55,0,5.11,2.55,5.11,5.11v34.48h15.96Z"/>
      </g>
      <path id="_3177" data-name="3177" class="cls-3" d="M743.97,611.18v-37.03c0-7.02-7.02-14.05-14.05-14.05h-72.15v51.08h16.6v-34.48c0-2.55,1.92-5.11,4.47-5.11h9.58c1.92,0,4.47,2.55,4.47,5.11v34.48h16.6v-34.48c0-2.55,1.92-5.11,4.47-5.11h9.58c1.92,0,4.47,2.55,4.47,5.11v34.48h15.96Z"/>
      <path id="_3181" data-name="3181" class="cls-3" d="M123.97,611.18h-42.14c-7.02,0-14.05-4.47-14.05-11.49v-40.23h56.19v12.13h-37.67c-1.92,0-4.47,1.92-4.47,4.47s2.55,4.47,4.47,4.47h35.12v10.22h-35.12c-1.92,0-4.47,2.55-4.47,4.47,0,2.55,2.55,5.11,4.47,5.11h37.67v10.85Z"/>
      <path id="_3181-2" data-name="3181" class="cls-3" d="M331.52,611.18h-42.14c-7.02,0-14.05-4.47-14.05-11.49v-40.23h56.19v12.13h-37.67c-1.92,0-4.47,1.92-4.47,4.47s2.55,4.47,4.47,4.47h35.12v10.22h-35.12c-1.92,0-4.47,2.55-4.47,4.47,0,2.55,2.55,5.11,4.47,5.11h37.67v10.85Z"/>
      <path id="_3181-3" data-name="3181" class="cls-3" d="M811.91,611.18h-42.14c-7.02,0-14.05-4.47-14.05-11.49v-40.23h56.19v12.13h-37.67c-1.92,0-4.47,1.92-4.47,4.47s2.55,4.47,4.47,4.47h35.12v10.22h-35.12c-1.92,0-4.47,2.55-4.47,4.47,0,2.55,2.55,5.11,4.47,5.11h37.67v10.85Z"/>
      <path id="_2391" data-name="2391" class="cls-3" d="M210.17,560.1v11.49h16.6q4.47,0,4.47,5.11v34.48h15.96v-34.48q0-5.11,5.11-5.11h15.96v-11.49h-58.1Z"/>
      <path id="_2391-2" data-name="2391" class="cls-3" d="M413.06,560.1v11.49h16.6q4.47,0,4.47,5.11v34.48h15.96v-34.48q0-5.11,5.11-5.11h15.96v-11.49h-58.1Z"/>
      <path id="_2391-3" data-name="2391" class="cls-3" d="M898.11,560.1v11.49h16.6q4.47,0,4.47,5.11v34.48h15.96v-34.48q0-5.11,5.11-5.11h15.96v-11.49h-58.1Z"/>
      <path class="cls-3" d="M342.98,560.1v51.08h16.6v-8.94c0-2.55,1.92-5.11,4.47-5.11h21.07c2.55,0,4.47,2.55,4.47,5.11v8.94h14.05v-14.05c0-1.92-1.92-4.47-1.92-7.02,0-1.92,4.47-6.39,4.47-11.49v-4.47c0-4.47-7.02-14.05-11.49-14.05h-51.72ZM364.05,571.59h21.07c2.55,0,4.47,2.55,4.47,5.11v4.47c0,2.55-1.92,4.47-4.47,4.47h-21.07c-2.55,0-4.47-1.92-4.47-4.47v-4.47c0-2.55,1.92-5.11,4.47-5.11Z"/>
      <path class="cls-3" d="M489.84,560.1c-4.47,0-11.49,9.58-11.49,14.05v37.03h16.6v-14.05h30.01v14.05h16.6v-37.03c0-4.47-7.02-14.05-12.13-14.05h-39.59ZM499.42,571.59h21.07c1.92,0,4.47,2.55,4.47,5.11v8.94h-30.01v-8.94c0-2.55,1.92-5.11,4.47-5.11Z"/>
      <path class="cls-3" d="M569.02,611.18v-51.08h-15.96v51.08h15.96Z"/>
      <path id="_3177-2" data-name="3177" class="cls-3" d="M722.98,681.14v-37.03c0-7.02-7.02-14.05-14.05-14.05h-72.15v51.08h16.6v-34.48c0-2.55,1.92-5.11,4.47-5.11h9.58c1.92,0,4.47,2.55,4.47,5.11v34.48h16.6v-34.48c0-2.55,1.92-5.11,4.47-5.11h9.58c1.92,0,4.47,2.55,4.47,5.11v34.48h15.96Z"/>
      <path id="_3181-4" data-name="3181" class="cls-3" d="M625.35,681.14h-42.14c-7.02,0-14.05-4.47-14.05-11.49v-40.23h56.19v12.13h-37.67c-1.92,0-4.47,1.92-4.47,4.47s2.55,4.47,4.47,4.47h35.12v10.22h-35.12c-1.92,0-4.47,2.55-4.47,4.47,0,2.55,2.55,5.11,4.47,5.11h37.67v10.85Z"/>
      <path id="_2391-4" data-name="2391" class="cls-3" d="M504,630.06v11.49h16.6q4.47,0,4.47,5.11v34.48h15.96v-34.48q0-5.11,5.11-5.11h15.96v-11.49h-58.1Z"/>
      <path id="_3187" data-name="3187" class="cls-3" d="M314.89,630.33c-4.47,0-14.05,7.02-14.05,11.49v7.02c0,4.47,9.58,11.49,14.05,11.49h28.09c2.55,0,5.11,2.55,5.11,4.47,0,2.55-2.55,5.11-5.11,5.11h-42.14v11.49h47.25c4.47,0,13.41-7.02,13.41-11.49v-7.02c0-5.11-8.94-12.13-13.41-12.13h-28.09c-2.55,0-5.11-1.92-5.11-4.47s2.55-4.47,5.11-4.47h41.5v-11.49h-46.61Z"/>
      <path id="_3187-2" data-name="3187" class="cls-3" d="M450.14,630.33c-4.47,0-14.05,7.02-14.05,11.49v7.02c0,4.47,9.58,11.49,14.05,11.49h28.09c2.55,0,5.11,2.55,5.11,4.47,0,2.55-2.55,5.11-5.11,5.11h-42.14v11.49h47.25c4.47,0,13.41-7.02,13.41-11.49v-7.02c0-5.11-8.94-12.13-13.41-12.13h-28.09c-2.55,0-5.11-1.92-5.11-4.47s2.55-4.47,5.11-4.47h41.5v-11.49h-46.61Z"/>
      <path class="cls-3" d="M366.61,630.33v22.99c0,4.47,7.02,11.49,11.49,11.49h11.49v16.6h16.6v-16.6h11.49c4.47,0,11.49-7.02,11.49-11.49v-22.99h-15.96v18.52c0,1.92-2.55,4.47-5.11,4.47h-20.43c-2.55,0-5.11-2.55-5.11-4.47v-18.52h-15.96Z"/>
    </g>
  </g>
</svg>