<?xml version="1.0" encoding="UTF-8"?>
<svg xmlns="http://www.w3.org/2000/svg" viewBox="0 0 1024 1024">
  <defs>
    <style>
      .cls-1 {
        fill: #000;
        mix-blend-mode: multiply;
      }

      .cls-1, .cls-2, .cls-3, .cls-4, .cls-5, .cls-6 {
        stroke-width: 0px;
      }

      .cls-2 {
        fill: #0222a9;
      }

      .cls-3 {
        fill: #fc0;
      }

      .cls-4 {
        fill: #069330;
      }

      .cls-5 {
        fill: #fe2015;
      }

      .cls-6 {
        fill: #011da9;
      }

      .cls-7 {
        isolation: isolate;
      }
    </style>
  </defs>
  <g class="cls-7">
    <g id="Arcade">
      <rect class="cls-1" y="0" width="1024" height="1024" rx="143.49" ry="143.49"/>
      <g>
        <path class="cls-2" d="M590.5,379.29l20.74-23.57v-159.35l-99,38.19h0l-82.03,146.15,82.03-31.59,78.26,30.17Z"/>
        <path class="cls-6" d="M766.34,601.34v-268.72l100.42-38.66v422.88l-100.42,42.43h0l-147.56-192.82v255.05l-106.55,44.79v-435.61l106.55-40.54,147.56,211.21Z"/>
        <path class="cls-2" d="M352.42,717.31l-94.29-182.92v224.88h0l94.29-41.96Z"/>
        <path class="cls-4" d="M358.55,293.96h0l47.14,96.17,24.52-9.43,82.03-146.15-99-38.66-54.69,98.06Z"/>
        <path class="cls-4" d="M590.5,379.29h0l75.43-85.33,100.42,38.66v268.72l-147.56-211.21-28.29-10.84Z"/>
        <path class="cls-4" d="M512.24,866.29v-435.61l-106.55-40.54v221.11l-148.03-278.62h0l-100.42-38.66v422.88l100.42,42.43v-224.88l148.03,287.11,106.55,44.79Z"/>
        <path class="cls-5" d="M258.13,332.62l100.42-38.66,47.14,96.17h0v221.11l-147.56-278.62Z"/>
        <path class="cls-5" d="M618.78,671.58l30.17,42.43,117.39,45.26h0l-147.56-192.82v105.13Z"/>
        <path class="cls-3" d="M406.16,390.13l106.55-40.54,106.55,40.54h0l-106.55,40.54-106.55-40.54Z"/>
        <path class="cls-3" d="M766.34,255.3l100.42,38.66-100.42,38.66-100.42-38.66h0l100.42-38.66Z"/>
        <path class="cls-3" d="M258.13,255.3l100.42,38.66-100.42,38.66-100.42-38.66h0l100.42-38.66Z"/>
        <path class="cls-3" d="M512.24,157.71l-99,38.19,99,38.66,99-38.19h0l-99-38.66Z"/>
      </g>
    </g>
  </g>
</svg>