<?xml version="1.0" encoding="UTF-8"?>
<svg id="Arcade" xmlns="http://www.w3.org/2000/svg" viewBox="0 0 1024 1024">
  <defs>
    <style>
      .cls-1 {
        fill: #ed1c24;
      }

      .cls-1, .cls-2 {
        stroke-width: 0px;
      }

      .cls-2 {
        fill: #000;
      }
    </style>
  </defs>
  <rect class="cls-2" y="0" width="1024" height="1024" rx="143.49" ry="143.49"/>
  <g>
    <path class="cls-1" d="M174.4,624.63c-71.69-.02-119.6-50.83-119.6-112.43h0c0-61.6,48.01-112.99,119.49-112.83h675.43c71.47-.16,119.49,51.23,119.49,112.83h0c0,61.6-47.9,112.41-119.6,112.43H174.4ZM174.61,427.08c-56.76.11-91.6,38.04-91.6,84.98h0c0,46.92,34.62,85.17,91.6,84.97h674.77c56.98.19,91.61-38.04,91.61-84.97h0c0-46.92-34.84-84.86-91.6-84.97H174.61Z"/>
    <path class="cls-1" d="M522.07,517.18c-.05-6.42.09-10.71,2.2-14.37,2.59-4.52,7.34-6.66,11.66-6.69h-.01c4.31.03,9.07,2.17,11.66,6.69,2.11,3.67,2.2,7.96,2.14,14.38h-27.64ZM549.6,539.27s.03.33.03,4.44c0,13.4-8.82,16.38-13.71,16.38s-13.87-2.98-13.87-16.38c0-4.01.03-15.13.03-15.13,0,0,62.41.03,62.41-.01,0-22.72-21.94-41.55-48.89-41.55s-48.79,18.42-48.79,41.14,21.84,41.13,48.79,41.13c22.36,0,41.24-12.76,47.01-30.05l-33.01.03ZM653.85,488.25c12.39-.35,37.52,7.76,37.35,36.77-.03,5.15-.01,39.87-.01,39.87h-32.92v-48.12c0-6.38-6.11-13.49-15.14-13.49s-15.73,7.1-15.73,13.49c0,3.13.04,48.12.04,48.12h-32.89l.03-73.27,32.88-.03s-.04,5.89,0,7.71c6.33-6.04,15.47-10.74,26.41-11.05h0ZM384.59,488.25c12.39-.35,37.52,7.76,37.35,36.77-.03,5.15-.01,39.87-.01,39.87h-32.92v-48.12c0-6.38-6.11-13.49-15.14-13.49s-15.73,7.1-15.73,13.49c0,3.13.04,48.12.04,48.12h-32.89v-73.27s32.9-.03,32.9-.03c0,0-.04,5.89,0,7.71,6.33-6.04,15.46-10.74,26.41-11.05h0ZM762.61,454.73h32.7v110.18h-32.75s-.01-3.56-.01-4.24c-12.68,7.96-26.99,7.95-38.13,2.75-2.99-1.39-22.66-10.83-22.66-36.32,0-19.34,18.24-40.46,42.13-38.37,7.86.69,13.45,3.56,18.75,6.54-.03-16.96-.03-40.54-.03-40.54h0ZM762.85,527.9v-13.1c0-11.33-7.82-14.22-12.97-14.22s-13,2.89-13,14.22c0,3.76.01,13.06.01,13.06,0,0-.01,9.13-.01,13.03,0,11.32,7.72,14.28,12.98,14.28s13-2.96,13-14.28c0-4.71-.01-13-.01-13h0ZM867.83,527.69s-.01,11.08-.01,15.52c0,11.68-6.9,16.5-13.54,16.5s-13.58-4.82-13.58-16.5c0-4.44.01-15.8.01-15.8,0,0,.03-10.84.03-15.28,0-11.63,6.94-16.41,13.54-16.41s13.54,4.78,13.54,16.41c0,4.44-.01,12.65.03,15.59v-.04ZM854.52,486.63c-26.75,0-48.42,18.42-48.42,41.14s21.69,41.14,48.42,41.14,48.42-18.42,48.42-41.14-21.68-41.14-48.42-41.14ZM273.81,477.22v-22.52h33.21v22.52h-33.21ZM273.89,564.91v-73.28h33.13v73.28h-33.13ZM440.11,564.91v-73.13s-18,0-18,0v-10.88h18.03s-.03-14.85-.03-14.85h33.16v14.82h17.94v10.9h-17.94l.03,73.13h-33.18ZM139.05,564.91v-110.18h34.34l47.49,76.84-.03-76.84h34.07v110.18h-34.01l-47.74-76.84v76.84h-34.12Z"/>
  </g>
</svg>