<?xml version="1.0" encoding="UTF-8"?>
<svg id="Arcade" xmlns="http://www.w3.org/2000/svg" viewBox="0 0 1024 1024">
  <defs>
    <style>
      .cls-1 {
        fill: #ff0;
      }

      .cls-1, .cls-2 {
        stroke-width: 0px;
      }

      .cls-2 {
        fill: #000;
      }
    </style>
  </defs>
  <rect class="cls-2" y="0" width="1024" height="1024" rx="143.49" ry="143.49"/>
  <g id="g1402">
    <path id="path1404" class="cls-1" d="M471.88,117.69c-89.09,14.94-167.39,56.44-227.71,120.08-49.53,52.29-81.62,111.78-99.33,183.99-9.68,39.29-12.17,112.89-4.98,155.49,23.24,141.94,126.72,265.06,261.19,310.71,48.42,16.6,74.98,20.75,129.76,21.03,55.89,0,81.9-3.6,126.72-18.26,81.62-26.84,151.9-78.58,202.81-150.24,14.66-20.75,30.16-49.25,27.67-51.46-.55-.83-80.24-40.67-176.52-88.81-153-76.36-174.59-87.98-170.16-91.03,3.04-1.94,82.17-41.78,175.97-89.09,94.07-47.04,170.99-87.15,170.99-88.81,0-3.6-14.11-27.67-28.77-49.25-12.73-18.81-42.33-52.29-58.93-66.4-19.92-17.43-41.78-34.58-43.72-34.58-.55,0-8.3-4.43-17.15-10.24-35.42-22.69-88.54-42.33-138.89-51.74-25.18-4.7-104.31-5.53-128.93-1.38Z"/>
  </g>
</svg>