<?xml version="1.0" encoding="UTF-8"?>
<svg id="Arcade" xmlns="http://www.w3.org/2000/svg" viewBox="0 0 1024 1024">
  <defs>
    <style>
      .cls-1 {
        fill: #00aeef;
      }

      .cls-1, .cls-2, .cls-3 {
        stroke-width: 0px;
      }

      .cls-2 {
        fill: #ed1c24;
      }

      .cls-3 {
        fill: #000;
      }
    </style>
  </defs>
  <rect class="cls-3" y="0" width="1024" height="1024" rx="143.49" ry="143.49"/>
  <path class="cls-1" d="M652,106.47c-77.06,0-139.75,62.69-139.75,139.75s62.69,139.75,139.75,139.75,139.75-62.69,139.75-139.75-62.69-139.75-139.75-139.75Z"/>
  <g>
    <path class="cls-2" d="M192.45,625.4c-61.37,78.6-47.35,192.47,31.25,253.84,65.14,50.86,154.81,50.11,218.5,3.3l390.57-299.73.74.58c6.43-4.79,12.19-11.02,17.3-17.56,30.51-39.07,23.45-96.41-15.62-126.92-22.32-17.42-50.75-22.74-76.55-16.75l-7.19,1.56-471.89,140.63c-33.12,10.78-64.09,31.58-87.1,61.05ZM239.96,662.5c15.57-19.94,36.02-33.52,58.07-40.7l471.89-140.63,5.87-1.39c7.61-.86,15.53,1.37,22.29,6.65,13.62,10.64,15.84,28.68,5.21,42.31-1.2,1.54-2.84,2.57-4.22,3.87l-393.05,301.38c-.22.16-.36.58-.58.74-42.32,30.67-100.82,31.22-144.65-3-53.16-41.51-62.34-116.07-20.83-169.23Z"/>
    <circle class="cls-2" cx="334.99" cy="736.7" r="60.28"/>
  </g>
</svg>