<?xml version="1.0" encoding="UTF-8"?>
<svg xmlns="http://www.w3.org/2000/svg" viewBox="0 0 1024 1024">
  <defs>
    <style>
      .cls-1 {
        fill: #D41920;
      }

      .cls-1, .cls-2, .cls-3, .cls-4, .cls-5 {
        stroke-width: 0px;
      }

      .cls-1, .cls-3, .cls-4, .cls-5 {
        fill-rule: evenodd;
      }

      .cls-2 {
        fill: #000;
        mix-blend-mode: multiply;
      }

      .cls-3 {
        fill: #326db3;
      }

      .cls-6 {
        isolation: isolate;
      }

      .cls-4 {
        fill: #f3c202;
      }

      .cls-5 {
        fill: #00aeef;
      }
    </style>
  </defs>
  <g class="cls-6">
    <g id="Arcade">
      <rect class="cls-2" y="0" width="1024" height="1024" rx="143.49" ry="143.49"/>
      <path id="path7" class="cls-1" d="M542.12,343.03l-.5,458.24-122.78-39.93V222.73l156.72,41.43c100.32,26.96,161.71,79.37,160.71,171.22-1,106.83-50.41,149.75-146.73,121.8v-210.66c0-25.46-47.41-26.95-47.41-3.49h0Z"/>
      <path id="path9" class="cls-4" d="M362.44,672.48l-57.9,19.47c-37.44,12.98-69.37-17.47-34.94-29.95l27.95-9.98-105.31-33.45c-32.44,10.99-62.89,34.45-60.89,67.4,2,33.44,78.36,41.43,137.25,50.92,54.9,8.98,104.81,3.99,150.23-11.98v-34.45l-56.4-17.97h0ZM542.62,801.27l107.31-37.44-108.3-34.44v69.38l1,2.5h0Z"/>
      <path id="path11" class="cls-3" d="M828.1,700.94l1.99-.5c46.92-16.47,66.88-39.44,61.89-60.9-7.99-35.94-65.38-55.41-153.73-61.9-63.38-4.49-125.77,9.48-186.66,30.45l-9.98,3.5,109.3,33.94,63.88-21.47c66.88-12.48,93.84,9.48,29.45,29.95l-31.94,10.98,115.79,35.95h0ZM418.84,542.21l-48.42,16.47,48.42,14.98v-31.44h0Z"/>
      <path id="path13" class="cls-5" d="M649.92,763.83l178.18-62.89-115.79-35.95-170.69,58.4v6l108.3,34.44h0ZM418.84,653.51l-56.4,18.97,56.4,17.97v-36.94h0ZM541.62,682.97v-71.39l109.3,33.94-109.3,37.44h0ZM297.56,652.02l121.28-43.43v-34.94l-48.42-14.98-175.68,59.4c-.5,0-1.5.49-2.49.49l105.31,33.45h0Z"/>
    </g>
  </g>
</svg>