<?xml version="1.0" encoding="UTF-8"?>
<svg xmlns="http://www.w3.org/2000/svg" viewBox="0 0 1024 1024">
  <defs>
    <style>
      .cls-1 {
        fill: #ed1c24;
      }

      .cls-1, .cls-2 {
        stroke-width: 0px;
      }

      .cls-2 {
        fill: #000;
        mix-blend-mode: multiply;
      }

      .cls-3 {
        isolation: isolate;
      }
    </style>
  </defs>
  <g class="cls-3">
    <g id="Arcade">
      <rect class="cls-2" y="0" width="1024" height="1024" rx="143.49" ry="143.49"/>
      <g>
        <path class="cls-1" d="M735.58,273.08c-7.04-6.43-15.27-9.83-23.81-9.83-13.29,0-25.54,8.45-30.47,21.01-5.04,12.85-1.39,26.71,9.77,37.07.05.04.1.09.15.13,28.03,24.99,50.08,54.84,65.52,88.74,15.89,34.89,24.01,72.42,24.13,111.56.12,71.96-27.69,139.51-78.29,190.2-50.72,50.81-118.45,78.79-190.71,78.79s-139.6-27.92-190.24-78.63c-50.63-50.69-78.51-118.3-78.51-190.34.23-77.79,32.08-149.02,89.67-200.58.05-.04.09-.08.13-.12,11.22-10.42,14.91-24.3,9.88-37.13-4.93-12.55-17.22-20.98-30.6-20.98-8.61,0-16.93,3.41-24,9.82-71.07,63.53-111.84,154.27-111.84,248.96,0,44.84,8.96,88.54,26.63,129.88,17.04,39.86,41.36,75.75,72.3,106.69,30.94,30.94,66.83,55.26,106.69,72.3,41.35,17.67,85.04,26.63,129.88,26.63s88.64-8.96,130.02-26.63c39.89-17.03,75.81-41.36,106.76-72.29,30.95-30.93,55.28-66.83,72.32-106.69,17.68-41.34,26.64-85.04,26.64-129.88,0-94.37-40.83-185-112.04-248.67Z"/>
        <path class="cls-1" d="M511.88,527.5c18.69,0,32.25-13.88,32.25-33V200.25c0-19.41-13.56-33.5-32.25-33.5s-32,14.09-32,33.5v294.25c0,19.12,13.46,33,32,33Z"/>
      </g>
    </g>
  </g>
</svg>