<?xml version="1.0" encoding="UTF-8"?>
<svg id="Arcade" xmlns="http://www.w3.org/2000/svg" viewBox="0 0 1024 1024">
  <defs>
    <style>
      .cls-1 {
        fill: #00aeef;
      }

      .cls-1, .cls-2, .cls-3 {
        stroke-width: 0px;
      }

      .cls-2 {
        fill: #000;
      }

      .cls-3 {
        fill: #fff;
      }
    </style>
  </defs>
  <rect class="cls-2" y="0" width="1024" height="1024" rx="143.49" ry="143.49"/>
  <g>
    <path class="cls-3" d="M502.09,884.46c-.1-7.57-.21-15.14-.32-22.71-.1-7.57-.2-15.14-.28-22.72-.28-27.45,1.48-54.9,4.9-82.34.12-.96.17-1.93.2-2.89,0-.05,0-.1,0-.15.03-.95.04-1.9.08-2.85-10.91-1.47-21.87-2.68-32.78-4.2-5-.7-9.99-1.45-14.97-2.33-45.17-8.01-89.22-20.23-131.09-40.38-4.65-2.24-9.28-4.58-13.88-7.02-3.07-1.63-6.12-3.3-9.16-5.02-7.33-4.15-14.55-8.53-21.68-13.09-9.25-5.92-18.36-12.16-27.34-18.64-3.18-2.3-6.34-4.62-9.5-6.98-2.12-1.59-4.24-3.19-6.35-4.8-4.16-3.17-8.29-6.38-12.41-9.63-1.7-1.34-2.14-2.48-1.59-4.16.09-.28.21-.57.35-.89.14-.31.31-.65.51-1,2.54-4.61,5.05-9.24,7.54-13.89,2.98-5.58,5.93-11.19,8.84-16.83,1.12-2.16,2.12-3.19,3.31-3.27.66-.04,1.38.2,2.2.71.33.2.67.45,1.04.73,23.81,18.47,48.03,36.09,73.6,50.81,5.9,3.4,11.88,6.64,17.93,9.7,2.45,1.24,4.92,2.45,7.39,3.63,4.94,2.36,9.93,4.61,14.94,6.73,2.51,1.06,5.03,2.1,7.56,3.1,10.11,4.02,20.37,7.56,30.78,10.63,28.95,8.55,58.42,14.29,88.17,18.58,7.7,1.11,15.49,1.64,23.24,2.43,3.89-20.65,8.95-40.93,14.5-61.06,1.85-6.71,3.75-13.4,5.68-20.08,2.58-8.91,5.2-17.8,7.81-26.7.63-2.15.61-3.42.2-4.19-.2-.39-.51-.65-.87-.83-.24-.12-.52-.21-.81-.28s-.6-.12-.93-.16c-.48-.06-.99-.11-1.48-.19-39.45-6.27-78.91-12.54-118.37-18.81-.7-.11-1.34-.21-1.91-.31-.19-.03-.38-.07-.55-.1-.36-.07-.69-.13-.99-.2-.46-.1-.86-.22-1.21-.34-.23-.08-.44-.18-.63-.28-.66-.35-1.04-.82-1.22-1.51-.03-.11-.05-.24-.07-.36-.03-.19-.04-.39-.05-.62-.02-1.42.42-3.51,1.11-6.71,3.19-14.87,6.62-29.66,10.32-44.35,5.36-21.27,11.29-42.34,17.91-63.17,1.38-4.34,2.79-8.68,4.24-13,.49-1.46.98-2.92,1.48-4.38,1.69-4.97,3.41-9.93,5.18-14.88,9.8-27.31,20.63-53.95,32.43-79.98,2.95-6.51,5.96-12.97,9.03-19.4,1.54-3.22,3.09-6.42,4.65-9.62,7.83-15.98,16.02-31.73,24.58-47.26,21.36-38.8,44.76-75.67,69.74-111.09.41-.58.86-1.14,1.28-1.73.11-.16.22-.32.32-.49.41-.66.74-1.39.88-2.26-.56-.44-1.16-.72-1.77-.93l-4.2-.67c-.15-.02-.3-.04-.45-.06-94.63-15.06-189.26-30.08-283.89-45.11-58.42-9.15-113.25,30.72-122.54,89.15l-82.42,518.77c-9.12,57.4,29.1,111.39,85.8,122.2,103.42,16.43,206.84,32.86,310.26,49.28.47.07.94.13,1.41.18,1.42.14,2.85.17,4.27.28h0s0,0,0,0ZM344.54,345.76c5.55-34.25,10.99-68.52,16.33-102.81.64-4.09,2.08-4.74,4.98-4.22,8.62,1.55,17.25,3.03,25.94,4.08,3.85.47,5.01,1.98,4.13,7.02-2.93,16.9-5.47,33.86-8.16,50.8-2,12.56-4.04,25.11-6,37.67-.65,4.19-1.3,8.38-1.93,12.57-.6,4.02-1.71,5.44-5.09,4.81-8.92-1.68-17.89-3.06-26.88-4.29-3-.41-3.98-1.64-3.33-5.62Z"/>
    <path class="cls-1" d="M923.65,311.47c9.3-58.51-30.6-113.49-89.12-122.78l-196.68-31.25c-8.01,9.61-15.52,19.78-22.8,30.19-4.39,6.27-8.69,12.63-12.97,19.02-4.07,6.07-8.07,12.17-12.01,18.33-3.94,6.15-7.8,12.34-11.61,18.58-3.8,6.23-7.54,12.51-11.2,18.83-1.83,3.16-3.65,6.33-5.45,9.51-10.81,19.08-21.01,38.53-30.63,58.35-2.04,4.21-4.05,8.44-6.04,12.69-27.68,59.02-50.25,121.25-67.92,186.55-.36,1.33-.51,2.33-.5,3.09,0,.38.06.71.15.98.45,1.38,1.87,1.55,3.77,1.84,43.55,6.85,87.09,13.79,130.63,20.71q6.13.97,3.33,8.13c-3.55,9.08-7.09,18.16-10.54,27.28-1.12,2.97-2.24,5.95-3.35,8.93-9.88,26.68-18.83,53.77-25.09,82.01-.37,1.65-.74,3.3-1.11,4.95-1.12,4.95-2.25,9.9-3.31,14.87-.19.88-.35,1.65-.49,2.34-.46,2.32-.58,3.63-.12,4.42.58.99,2.07,1.19,4.98,1.55,3.53.44,7.07.81,10.61,1.1,11.81.96,23.68,1.1,35.59.56,2.38-.11,4.77-.24,7.15-.41,1.19-.08,2.39-.17,3.58-.26,2.51-.2,5.02-.42,7.52-.67,4.58-.46,9.14-1.01,13.7-1.64,2.92-.41,5.84-.84,8.76-1.32,7.46-1.23,14.89-2.71,22.29-4.44,4.93-1.16,9.85-2.43,14.76-3.81,12.27-3.47,24.45-7.67,36.54-12.65,4.84-1.99,9.66-4.11,14.46-6.35,1.13-.53,2.01-.77,2.71-.68.01,0,.03,0,.04,0,.45.07.83.27,1.15.63.08.09.17.2.24.31.39.57.72,1.39,1.02,2.5.69,2.52,1.4,5.04,2.11,7.56,1.43,5.03,2.9,10.03,4.43,15.01.76,2.49,1.54,4.97,2.33,7.44,1.04,3.26.77,5.05-1.18,6.56-.02.01-.03.02-.05.04-.44.34-.97.66-1.58.98-8.65,4.54-17.39,8.55-26.21,12.07-.08.03-.16.06-.24.09-4.21,1.68-8.43,3.24-12.68,4.71-2.07.71-4.13,1.41-6.21,2.07-4.3,1.38-8.62,2.68-12.95,3.87-1.8.49-3.6.97-5.4,1.44-3.61.93-7.23,1.79-10.86,2.59-3.63.81-7.27,1.55-10.91,2.24-2.25.43-4.49.83-6.74,1.22-4.49.77-8.98,1.47-13.46,2.08-4.48.61-8.97,1.14-13.45,1.59-13.44,1.34-26.86,1.92-40.25,1.69-6.7-.12-13.38-.44-20.06-.97-4.45-.36-8.9-.8-13.35-1.35-.29-.04-.56-.06-.82-.08-1.82-.12-2.99.21-3.76,1.11-.22.26-.41.56-.57.91-.16.35-.29.75-.4,1.21-.11.45-.2.96-.27,1.52-.07.56-.13,1.17-.18,1.84-.71,10.38-1.32,20.76-1.82,31.12-.12,2.59-.24,5.18-.35,7.77-.11,2.7-.22,5.4-.31,8.1-.74,20.61-.97,41.19-.53,61.74.11,5.16.26,10.32.46,15.48.07,1.95.34,3.87.52,5.81h0c.15.04.31.09.46.13s.31.08.46.11c60.49,9.61,120.98,19.21,181.46,28.86,56.66,6.39,108.86-32.89,117.9-89.77l82.42-518.77ZM716.76,299.58c-2.91,17.29-5.57,34.62-8.32,51.93-2.66,16.72-5.47,33.43-7.88,50.19-.73,5.05-2.24,6.09-6.04,5.33-8.89-1.76-17.87-3.06-26.84-4.31-2.88-.4-3.61-1.76-3.03-5.36,5.59-34.62,11.1-69.24,16.49-103.89.63-4.04,1.98-4.79,4.92-4.26,9.08,1.63,18.18,3.13,27.33,4.32,3.35.44,4.05,1.97,3.37,6.04Z"/>
  </g>
</svg>