<?xml version="1.0" encoding="UTF-8"?>
<svg id="Arcade" xmlns="http://www.w3.org/2000/svg" version="1.1" viewBox="0 0 1024 1024">
  <!-- Generator: Adobe Illustrator 29.1.0, SVG Export Plug-In . SVG Version: 2.1.0 Build 142)  -->
  <defs>
    <style>
      .st0 {
        fill: #0088ef;
      }

      .st1 {
        fill: #fff;
      }
    </style>
  </defs>
  <rect width="1024" height="1024" rx="143.5" ry="143.5"/>
  <g>
    <path class="st1" d="M502.1,884.5c-.1-7.6-.2-15.1-.3-22.7-.1-7.6-.2-15.1-.3-22.7-.3-27.5,1.5-54.9,4.9-82.3.1-1,.2-1.9.2-2.9v-.2c0-1,0-1.9,0-2.8-10.9-1.5-21.9-2.7-32.8-4.2-5-.7-10-1.5-15-2.3-45.2-8-89.2-20.2-131.1-40.4-4.6-2.2-9.3-4.6-13.9-7-3.1-1.6-6.1-3.3-9.2-5-7.3-4.2-14.5-8.5-21.7-13.1-9.2-5.9-18.4-12.2-27.3-18.6-3.2-2.3-6.3-4.6-9.5-7-2.1-1.6-4.2-3.2-6.4-4.8-4.2-3.2-8.3-6.4-12.4-9.6-1.7-1.3-2.1-2.5-1.6-4.2,0-.3.2-.6.4-.9.1-.3.3-.7.5-1,2.5-4.6,5.1-9.2,7.5-13.9,3-5.6,5.9-11.2,8.8-16.8,1.1-2.2,2.1-3.2,3.3-3.3.7,0,1.4.2,2.2.7.3.2.7.5,1,.7,23.8,18.5,48,36.1,73.6,50.8,5.9,3.4,11.9,6.6,17.9,9.7,2.5,1.2,4.9,2.5,7.4,3.6,4.9,2.4,9.9,4.6,14.9,6.7,2.5,1.1,5,2.1,7.6,3.1,10.1,4,20.4,7.6,30.8,10.6,29,8.5,58.4,14.3,88.2,18.6,7.7,1.1,15.5,1.6,23.2,2.4,3.9-20.7,9-40.9,14.5-61.1,1.8-6.7,3.8-13.4,5.7-20.1,2.6-8.9,5.2-17.8,7.8-26.7.6-2.2.6-3.4.2-4.2-.2-.4-.5-.7-.9-.8s-.5-.2-.8-.3-.6-.1-.9-.2c-.5,0-1-.1-1.5-.2-39.5-6.3-78.9-12.5-118.4-18.8-.7-.1-1.3-.2-1.9-.3-.2,0-.4,0-.5,0-.4,0-.7-.1-1-.2-.5,0-.9-.2-1.2-.3-.2,0-.4-.2-.6-.3-.7-.3-1-.8-1.2-1.5,0-.1,0-.2,0-.4,0-.2,0-.4,0-.6,0-1.4.4-3.5,1.1-6.7,3.2-14.9,6.6-29.7,10.3-44.3,5.4-21.3,11.3-42.3,17.9-63.2,1.4-4.3,2.8-8.7,4.2-13,.5-1.5,1-2.9,1.5-4.4,1.7-5,3.4-9.9,5.2-14.9,9.8-27.3,20.6-54,32.4-80,3-6.5,6-13,9-19.4,1.5-3.2,3.1-6.4,4.6-9.6,7.8-16,16-31.7,24.6-47.3,21.4-38.8,44.8-75.7,69.7-111.1.4-.6.9-1.1,1.3-1.7.1-.2.2-.3.3-.5.4-.7.7-1.4.9-2.3-.6-.4-1.2-.7-1.8-.9l-4.2-.7c-.2,0-.3,0-.5,0-94.6-15.1-189.3-30.1-283.9-45.1-58.4-9.2-113.2,30.7-122.5,89.2l-82.4,518.8c-9.1,57.4,29.1,111.4,85.8,122.2,103.4,16.4,206.8,32.9,310.3,49.3.5,0,.9.1,1.4.2,1.4.1,2.9.2,4.3.3h0ZM344.5,345.8c5.5-34.2,11-68.5,16.3-102.8.6-4.1,2.1-4.7,5-4.2,8.6,1.6,17.2,3,25.9,4.1,3.9.5,5,2,4.1,7-2.9,16.9-5.5,33.9-8.2,50.8-2,12.6-4,25.1-6,37.7-.6,4.2-1.3,8.4-1.9,12.6-.6,4-1.7,5.4-5.1,4.8-8.9-1.7-17.9-3.1-26.9-4.3-3-.4-4-1.6-3.3-5.6h0Z"/>
    <path class="st0" d="M923.7,311.5c9.3-58.5-30.6-113.5-89.1-122.8l-196.7-31.2c-8,9.6-15.5,19.8-22.8,30.2-4.4,6.3-8.7,12.6-13,19-4.1,6.1-8.1,12.2-12,18.3-3.9,6.1-7.8,12.3-11.6,18.6-3.8,6.2-7.5,12.5-11.2,18.8s-3.7,6.3-5.5,9.5c-10.8,19.1-21,38.5-30.6,58.4-2,4.2-4,8.4-6,12.7-27.7,59-50.2,121.2-67.9,186.6-.4,1.3-.5,2.3-.5,3.1,0,.4,0,.7.1,1,.5,1.4,1.9,1.5,3.8,1.8,43.5,6.8,87.1,13.8,130.6,20.7,4.1.6,5.2,3.4,3.3,8.1-3.5,9.1-7.1,18.2-10.5,27.3-1.1,3-2.2,6-3.3,8.9-9.9,26.7-18.8,53.8-25.1,82-.4,1.7-.7,3.3-1.1,5-1.1,5-2.2,9.9-3.3,14.9-.2.9-.3,1.7-.5,2.3-.5,2.3-.6,3.6-.1,4.4.6,1,2.1,1.2,5,1.5,3.5.4,7.1.8,10.6,1.1,11.8,1,23.7,1.1,35.6.6,2.4-.1,4.8-.2,7.2-.4,1.2,0,2.4-.2,3.6-.3,2.5-.2,5-.4,7.5-.7,4.6-.5,9.1-1,13.7-1.6,2.9-.4,5.8-.8,8.8-1.3,7.5-1.2,14.9-2.7,22.3-4.4,4.9-1.2,9.8-2.4,14.8-3.8,12.3-3.5,24.5-7.7,36.5-12.7,4.8-2,9.7-4.1,14.5-6.3,1.1-.5,2-.8,2.7-.7h0c.5,0,.8.3,1.2.6,0,0,.2.2.2.3.4.6.7,1.4,1,2.5.7,2.5,1.4,5,2.1,7.6,1.4,5,2.9,10,4.4,15,.8,2.5,1.5,5,2.3,7.4,1,3.3.8,5-1.2,6.6,0,0,0,0,0,0-.4.3-1,.7-1.6,1-8.7,4.5-17.4,8.5-26.2,12.1,0,0-.2,0-.2,0-4.2,1.7-8.4,3.2-12.7,4.7-2.1.7-4.1,1.4-6.2,2.1-4.3,1.4-8.6,2.7-13,3.9-1.8.5-3.6,1-5.4,1.4-3.6.9-7.2,1.8-10.9,2.6-3.6.8-7.3,1.5-10.9,2.2-2.2.4-4.5.8-6.7,1.2-4.5.8-9,1.5-13.5,2.1-4.5.6-9,1.1-13.5,1.6-13.4,1.3-26.9,1.9-40.2,1.7-6.7-.1-13.4-.4-20.1-1-4.5-.4-8.9-.8-13.3-1.3-.3,0-.6,0-.8,0-1.8-.1-3,.2-3.8,1.1-.2.3-.4.6-.6.9-.2.3-.3.8-.4,1.2-.1.5-.2,1-.3,1.5s-.1,1.2-.2,1.8c-.7,10.4-1.3,20.8-1.8,31.1-.1,2.6-.2,5.2-.3,7.8-.1,2.7-.2,5.4-.3,8.1-.7,20.6-1,41.2-.5,61.7.1,5.2.3,10.3.5,15.5,0,2,.3,3.9.5,5.8h0c.2,0,.3,0,.5.1s.3,0,.5.1c60.5,9.6,121,19.2,181.5,28.9,56.7,6.4,108.9-32.9,117.9-89.8l82.4-518.8h0ZM716.8,299.6c-2.9,17.3-5.6,34.6-8.3,51.9-2.7,16.7-5.5,33.4-7.9,50.2-.7,5-2.2,6.1-6,5.3-8.9-1.8-17.9-3.1-26.8-4.3-2.9-.4-3.6-1.8-3-5.4,5.6-34.6,11.1-69.2,16.5-103.9.6-4,2-4.8,4.9-4.3,9.1,1.6,18.2,3.1,27.3,4.3,3.3.4,4,2,3.4,6h0Z"/>
  </g>
</svg>