<?xml version="1.0" encoding="UTF-8"?>
<svg xmlns="http://www.w3.org/2000/svg" xmlns:xlink="http://www.w3.org/1999/xlink" viewBox="0 0 1024 1024">
  <defs>
    <style>
      .cls-1 {
        fill: url(#linear-gradient);
      }

      .cls-1, .cls-2, .cls-3, .cls-4 {
        stroke-width: 0px;
      }

      .cls-2 {
        fill: #000;
        mix-blend-mode: multiply;
      }

      .cls-3 {
        fill: url(#linear-gradient-2);
      }

      .cls-4 {
        fill: url(#linear-gradient-3);
      }

      .cls-5 {
        isolation: isolate;
      }
    </style>
    <linearGradient id="linear-gradient" x1="162.49" y1="512.35" x2="861.51" y2="512.35" gradientUnits="userSpaceOnUse">
      <stop offset=".1" stop-color="#8dc6ec"/>
      <stop offset=".33" stop-color="#cbe8f7"/>
      <stop offset=".5" stop-color="#f5ffff"/>
      <stop offset=".55" stop-color="#e3eef6"/>
      <stop offset=".65" stop-color="#b5c2de"/>
      <stop offset=".79" stop-color="#6c7cb9"/>
      <stop offset=".9" stop-color="#2f429a"/>
    </linearGradient>
    <linearGradient id="linear-gradient-2" x1="610.01" y1="670.89" x2="225.41" y2="233.14" gradientUnits="userSpaceOnUse">
      <stop offset="0" stop-color="#fff"/>
      <stop offset=".03" stop-color="#e8f3ff"/>
      <stop offset=".12" stop-color="#b7dbff"/>
      <stop offset=".18" stop-color="#98cbff"/>
      <stop offset=".21" stop-color="#8dc6ff"/>
      <stop offset=".29" stop-color="#79a9e9"/>
      <stop offset=".42" stop-color="#5e84cd"/>
      <stop offset=".54" stop-color="#4967b6"/>
      <stop offset=".67" stop-color="#3a52a6"/>
      <stop offset=".79" stop-color="#31469d"/>
      <stop offset=".9" stop-color="#2f429a"/>
      <stop offset=".91" stop-color="#2f429a"/>
      <stop offset="1" stop-color="#2f429a"/>
    </linearGradient>
    <linearGradient id="linear-gradient-3" x1="-683.69" y1="1267.8" x2="-1068.29" y2="830.05" gradientTransform="translate(-268.78 1621.24) rotate(-180)" xlink:href="#linear-gradient-2"/>
  </defs>
  <g class="cls-5">
    <g id="Arcade">
      <rect class="cls-2" y="3.87" width="1024" height="1024" rx="143.49" ry="143.49"/>
      <g>
        <path class="cls-1" d="M598.92,223.58s32.22-31.61,56.53-44.37c24.31-12.76,71.12-39.77,71.12-39.77,0,0-161.22-1.26-262.59,45.85s-132.51,114.28-132.51,114.28c0,0,1.22-24.31,4.25-38.29,3.04-13.98,10.33-37.08,10.33-37.08,0,0-72.79,65.65-97.86,118.53-19.93,42.04-43.31,92.09-38.9,159.86,4.92,75.72,17.63,105.77,31.61,132.51s41.94,56.53,41.94,56.53c0,0-34.65,15.8-54.1,21.27-19.45,5.47-66.26,12.76-66.26,12.76,0,0,67.49,45.03,126.43,58.96,66.86,15.8,134.94,15.8,134.94,15.8,0,0-29.78,32.82-61.39,49.24s-66.86,34.95-66.86,34.95c0,0,79.17,4.28,154.54-8.89,29.05-5.07,56.99-13.89,80.69-24.24,102.59-44.77,162.3-124.61,162.3-124.61,0,0-.61,13.98-3.65,32.82-3.04,18.84-11.55,41.94-11.55,41.94,0,0,130.99-102.87,137.98-275.96,4.86-120.35-75.98-193.9-75.98-193.9,0,0,30.39-12.16,65.04-20.06,34.65-7.9,56.53-13.37,56.53-13.37,0,0-39.51-40.12-124.61-56.53s-137.98-18.24-137.98-18.24Z"/>
        <path class="cls-3" d="M558.2,227.37s19.15-25.99,29.18-32.82,28.26-20.97,28.26-20.97c0,0-129.47,22.79-181.44,67.47-51.97,44.68-88.9,86.62-99.38,108.04-10.49,21.43-26.44,58.81-26.44,58.81,0,0-2.74-38.75-2.28-55.16.46-16.41,2.74-37.84,2.74-37.84,0,0-72.94,80.09-72.94,197.1s82.06,187.22,82.06,187.22c0,0-29.18,15.5-49.69,23.25s-44.68,12.31-44.68,12.31c0,0,59.27,33.74,145.43,35.1s160.02-10.03,160.02-10.03c0,0,20.97-65.19,24.62-138.13s-7.29-129.93-7.29-129.93l-75.22,102.57s-23.71-62.91-26.44-171.87,11.4-147.71,11.4-147.71l6.84-22.34s19.29-11.85,48.62-17.32c29.33-5.47,46.66-7.75,46.66-7.75Z"/>
        <path class="cls-4" d="M466.73,796.95s-19.15,25.99-29.18,32.82c-10.03,6.84-28.26,20.97-28.26,20.97,0,0,129.47-22.79,181.44-67.47,51.97-44.68,88.9-86.62,99.38-108.04s26.44-58.81,26.44-58.81c0,0,2.74,38.75,2.28,55.16s-2.74,37.84-2.74,37.84c0,0,72.94-80.09,72.94-197.1s-82.06-187.22-82.06-187.22c0,0,29.18-15.5,49.69-23.25,20.51-7.75,44.68-12.31,44.68-12.31,0,0-59.27-33.74-145.43-35.1-86.16-1.37-160.02,10.03-160.02,10.03,0,0-20.97,65.19-24.62,138.13s7.29,129.93,7.29,129.93l75.22-102.57s23.71,62.91,26.44,171.87c2.74,108.96-11.4,147.71-11.4,147.71l-6.84,22.34s-19.29,11.85-48.62,17.32c-29.33,5.47-46.66,7.75-46.66,7.75Z"/>
      </g>
    </g>
  </g>
</svg>