<?xml version="1.0" encoding="UTF-8"?>
<svg xmlns="http://www.w3.org/2000/svg" viewBox="0 0 1024 1024">
  <defs>
    <style>
      .cls-1 {
        fill: #000;
        mix-blend-mode: multiply;
      }

      .cls-1, .cls-2 {
        stroke-width: 0px;
      }

      .cls-3 {
        isolation: isolate;
      }

      .cls-2 {
        fill: #fff;
      }
    </style>
  </defs>
  <g class="cls-3">
    <g id="Arcade">
      <rect class="cls-1" y="0" width="1024" height="1024" rx="143.49" ry="143.49"/>
      <path class="cls-2" d="M668.5,782.12c-13.55,0-23.4-4.93-27.61-7.03l-1.39-.7-368.06-213.61c-26.56-15.05-29.44-39.01-29.44-48.66s2.88-33.37,29.44-48.41l368.06-213.61,1.39-.7c4.21-2.1,14.06-7.03,27.61-7.03,30.28,0,54,24.16,54,55v429.5c0,30.98-23.72,55.25-54,55.25ZM672.5,297.38c0-3.5-1.75-5-4-5-1.75,0-3.25.75-5.25,1.75l-367,213c-2.25,1.25-4.25,2.75-4.25,5,0,2.5,2,4,4.25,5.25l367,213c2,1,3.5,1.75,5.25,1.75,2.25,0,4-1.75,4-5.25v-429.5Z"/>
    </g>
  </g>
</svg>