<?xml version="1.0" encoding="UTF-8"?>
<svg xmlns="http://www.w3.org/2000/svg" xmlns:xlink="http://www.w3.org/1999/xlink" viewBox="0 0 1024 1024">
  <defs>
    <style>
      .cls-1 {
        fill: url(#linear-gradient);
      }

      .cls-1, .cls-2, .cls-3, .cls-4 {
        stroke-width: 0px;
      }

      .cls-2 {
        fill: #000000;
        mix-blend-mode: multiply;
      }

      .cls-3 {
        fill: #0088ef;
      }

      .cls-5 {
        isolation: isolate;
      }

      .cls-4 {
        fill: #fff;
      }
    </style>
    <linearGradient id="linear-gradient" x1="26.63" y1="608.85" x2="997.37" y2="608.85" gradientUnits="userSpaceOnUse">
      <stop offset="0" stop-color="#2e40c7"/>
      <stop offset=".5" stop-color="#61c3e7"/>
      <stop offset=".57" stop-color="#5ebde5"/>
      <stop offset=".67" stop-color="#58aee1"/>
      <stop offset=".77" stop-color="#4e94db"/>
      <stop offset=".88" stop-color="#4171d3"/>
      <stop offset=".99" stop-color="#2f43c7"/>
      <stop offset="1" stop-color="#2e40c7"/>
    </linearGradient>
  </defs>
  <g class="cls-5">
    <g id="Arcade">
      <rect class="cls-2" y="0" width="1024" height="1024" rx="143.49" ry="143.49"/>
      <path class="cls-4" d="M522.2,501.5c8.68,8.43,20.52,13.64,33.58,13.64l206.31.02-44.56-132.92c-6.09-14.12-20.36-24.01-37.51-24.01s-31.57,10.21-37.43,24.27l-14.85,43.3-.06-65.34-72.05-.04c-13.02,0-24.73,5.08-33.35,13.49l.03-13.43h-73.77c-13.74,0-26.24,5.86-34.98,15.07v-15.13l-69.53.06c-30.01-.03-54.63,23.44-54.67,54.46,0,14.36,6.28,27.38,15.53,37.03l-15.68-.03v63.18h70.05c19.68-.04,39.19-11.91,45.96-26.14l.2-.58c7.83,15.82,24.18,26.72,43.09,26.72h73.66v-13.64"/>
      <path class="cls-3" d="M300.05,504.34l59.07-.06c24.17,0,43.75-19.53,43.75-43.58s-19.59-43.63-43.75-43.63l-15.34.08c-1.21,0-2.19-.99-2.19-2.21s.98-2.21,2.19-2.21h58.96s.02-18.49.02-18.49h-59c-11.41,0-20.69,9.27-20.69,20.65s9.28,20.63,20.69,20.63l15.41.2c13.85,0,25.05,11.17,25.05,24.94s-11.2,24.98-25.05,24.98h-59.11l-.02,18.7"/>
      <path class="cls-3" d="M300.08,481.29h59.11c11.44,0,20.7-9.23,20.7-20.64s-9.26-20.61-20.7-20.61l-15.41-.17c-13.82,0-25.04-11.18-25.04-24.99s11.22-24.96,25.04-24.96h59s-.02-18.58-.02-18.58h-58.96c-24.14,0-43.75,19.5-43.75,43.59s19.61,43.6,43.75,43.6l15.26.02c1.16,0,2.14.95,2.14,2.14s-.98,2.12-2.14,2.12l-58.99.05.02,18.44"/>
      <path class="cls-3" d="M448.68,485.75c-10.25,0-18.64-8.17-18.64-18.6v-59.01c0-10.03,8.39-18.28,18.64-18.28h63.05s0-18.52,0-18.52h-63.05c-20.52,0-37.14,16.56-37.14,37.01v58.81c0,20.45,16.62,37.03,37.14,37.03l62.79.03v-18.49s-62.79.02-62.79.02"/>
      <path class="cls-3" d="M434.55,408.35c0-7.82,6.29-14.16,14.12-14.16h63.05v18.56h-54.32c-4.35,0-4.41,4.32-4.41,4.32h45.32v18.47h-63.78l.02-27.19"/>
      <path class="cls-3" d="M448.68,481.26c-7.81,0-14.15-6.3-14.15-14.1v-27.22h63.78v18.51h-45.32c.06,4.35,4.41,4.37,4.41,4.37h54.06v18.4s-62.79.03-62.79.03"/>
      <path class="cls-3" d="M555.91,485.71c-10.21,0-18.56-8.32-18.56-18.55v-58.81c0-10.24,8.29-18.49,18.51-18.49h61.07v-18.52h-61.21c-20.51,0-37.13,16.56-37.13,37.01v58.81c0,20.45,16.76,37.03,37.27,37.03l61.07.03v-87.15h-52.48v18.47h33.94v50.16h-42.47"/>
      <path class="cls-3" d="M541.71,467.16c0,7.84,6.34,14.21,14.16,14.21h38.15v-41.45h-29.51v18.54h10.95l.03,4.35h-10.9c-2.38,0-4.33-1.97-4.33-4.35l-.1-41.4s-.01-4.3,4.38-4.41h52.42l-.02-18.46h-61.07c-7.82.01-14.16,6.35-14.16,14.17v58.81"/>
      <path class="cls-3" d="M674.32,393.92c.82-2.35,3.06-4.05,5.7-4.05s4.9,1.7,5.7,4.05l29.64,87.58h-43.41l.05-20.6h14.51l-6.53-19.41-21.27,62.72h-21.88l37.49-110.28"/>
      <path class="cls-3" d="M721.35,485.71h-49.31v18.5h75.05l-39.03-115.47c-3.42-11.26-14.69-19.55-28.04-19.55s-24.61,8.25-28.05,19.5l-39.39,115.52h19.65l38.24-112.29c1.55-3.72,5.21-6.34,9.52-6.34s7.96,2.62,9.53,6.31l31.84,93.82"/>
      <path id="g3" class="cls-1" d="M677.71,595.38h98.87v43.81l-35.31,26.58h-109.14l36.15-26.96h63.89v-16.47h-98.87v-42.88l36.5-27.51h108.96l-35.99,26.95h-65.07v16.48ZM790.38,665.76h44.39v-113.82h-44.39v113.82ZM896.31,578.89h65.07l35.99-26.95h-108.97l-36.49,27.51v42.88h98.87v16.47h-63.9l-36.15,26.96h109.12l35.32-26.58v-43.81h-98.87v-16.48ZM537.14,638.8v-16.47h42.53l36.15-26.96h-78.68v-16.48h64.05l35.99-26.95h-105.77l-38.67,26.4h0v87.42h107.62l36.32-26.96h-99.54ZM226.39,638.8v-16.47h42.54l36.15-26.96h-78.69v-16.48h64.06l35.99-26.95h-105.77l-38.67,26.4h0v87.42h107.61l36.32-26.96h-99.55ZM435.91,665.76h44.4v-113.82h-44.4v33.32l-54.48-33.32h-45.06v113.82h44.4v-76.01l55.15,38.19v37.81ZM148.03,578.89l35.82-26.95H63.45l-36.82,27.71h0v86.11h109.97l33.97-25.46v-44.93h-53.47l-35.99,26.96h45.06v16.47h-55.15v-59.91h77.01Z"/>
    </g>
  </g>
</svg>