<?xml version="1.0" encoding="UTF-8"?>
<svg xmlns="http://www.w3.org/2000/svg" xmlns:xlink="http://www.w3.org/1999/xlink" viewBox="0 0 1024 1024">
  <defs>
    <style>
      .cls-1 {
        fill: url(#linear-gradient-10);
      }

      .cls-1, .cls-2, .cls-3, .cls-4, .cls-5, .cls-6, .cls-7, .cls-8, .cls-9, .cls-10 {
        stroke: #484848;
      }

      .cls-1, .cls-2, .cls-3, .cls-4, .cls-5, .cls-6, .cls-7, .cls-8, .cls-9, .cls-10, .cls-11 {
        stroke-width: 1.44px;
      }

      .cls-1, .cls-2, .cls-3, .cls-4, .cls-5, .cls-6, .cls-7, .cls-8, .cls-9, .cls-10, .cls-11, .cls-12, .cls-13 {
        stroke-linecap: round;
        stroke-linejoin: round;
      }

      .cls-14 {
        fill: url(#White_Black-2);
      }

      .cls-14, .cls-15, .cls-16, .cls-17, .cls-18, .cls-19, .cls-20, .cls-21 {
        stroke-width: 0px;
      }

      .cls-2 {
        fill: url(#linear-gradient-2);
      }

      .cls-3 {
        fill: url(#linear-gradient-4);
      }

      .cls-4 {
        fill: url(#linear-gradient-5);
      }

      .cls-5 {
        fill: url(#linear-gradient-6);
      }

      .cls-6 {
        fill: url(#linear-gradient-7);
      }

      .cls-7 {
        fill: url(#linear-gradient-8);
      }

      .cls-8 {
        fill: url(#linear-gradient-9);
      }

      .cls-9 {
        fill: url(#linear-gradient-3);
      }

      .cls-15 {
        fill: url(#radial-gradient);
      }

      .cls-16 {
        fill: url(#linear-gradient-11);
      }

      .cls-17 {
        fill: url(#linear-gradient-12);
      }

      .cls-18 {
        fill: #000;
        mix-blend-mode: multiply;
      }

      .cls-10 {
        fill: url(#linear-gradient);
      }

      .cls-19 {
        fill: url(#White_Black);
      }

      .cls-11, .cls-12 {
        fill: none;
        stroke: #333;
      }

      .cls-20 {
        fill: url(#radial-gradient-2);
      }

      .cls-22 {
        isolation: isolate;
      }

      .cls-21 {
        fill: #ccc;
      }

      .cls-13 {
        fill: url(#radial-gradient-3);
        stroke: #33317a;
        stroke-width: 2.88px;
      }
    </style>
    <linearGradient id="linear-gradient" x1="215.55" y1="758.66" x2="356.53" y2="617.68" gradientUnits="userSpaceOnUse">
      <stop offset="0" stop-color="#999"/>
      <stop offset=".98" stop-color="#f3f3f3"/>
    </linearGradient>
    <linearGradient id="linear-gradient-2" x1="63.54" y1="929.06" x2="207.19" y2="785.42" xlink:href="#linear-gradient"/>
    <linearGradient id="linear-gradient-3" x1="365.33" y1="746.72" x2="502.59" y2="609.45" xlink:href="#linear-gradient"/>
    <linearGradient id="linear-gradient-4" x1="495.85" y1="761.26" x2="646.94" y2="610.16" xlink:href="#linear-gradient"/>
    <linearGradient id="linear-gradient-5" x1="669.82" y1="767.1" x2="817.72" y2="619.2" xlink:href="#linear-gradient"/>
    <linearGradient id="linear-gradient-6" x1="228.97" y1="946.61" x2="384.32" y2="791.26" xlink:href="#linear-gradient"/>
    <linearGradient id="linear-gradient-7" x1="335.55" y1="911.66" x2="480.79" y2="766.41" xlink:href="#linear-gradient"/>
    <linearGradient id="linear-gradient-8" x1="487.33" y1="925.1" x2="634.16" y2="778.26" xlink:href="#linear-gradient"/>
    <linearGradient id="linear-gradient-9" x1="654.51" y1="931.61" x2="802.41" y2="783.71" xlink:href="#linear-gradient"/>
    <linearGradient id="linear-gradient-10" x1="816.13" y1="930.42" x2="959.78" y2="786.77" xlink:href="#linear-gradient"/>
    <radialGradient id="radial-gradient" cx="746.06" cy="302.26" fx="746.06" fy="302.26" r="98.97" gradientUnits="userSpaceOnUse">
      <stop offset=".43" stop-color="#fff"/>
      <stop offset=".64" stop-color="#7a7a7a"/>
      <stop offset=".99" stop-color="#000"/>
    </radialGradient>
    <radialGradient id="White_Black" data-name="White, Black" cx="267.24" cy="449.12" fx="267.24" fy="449.12" r="102.15" gradientUnits="userSpaceOnUse">
      <stop offset="0" stop-color="#fff"/>
      <stop offset="1" stop-color="#000"/>
    </radialGradient>
    <radialGradient id="radial-gradient-2" cx="317.79" cy="234.18" fx="317.79" fy="234.18" r="234.06" gradientUnits="userSpaceOnUse">
      <stop offset=".81" stop-color="#fff"/>
      <stop offset="1" stop-color="#575757"/>
    </radialGradient>
    <radialGradient id="White_Black-2" data-name="White, Black" cx="770.02" cy="70.84" fx="770.02" fy="70.84" r="130.88" xlink:href="#White_Black"/>
    <linearGradient id="linear-gradient-11" x1="284.08" y1="265.49" x2="244.18" y2="235.17" gradientUnits="userSpaceOnUse">
      <stop offset="0" stop-color="#000"/>
      <stop offset="1" stop-color="#fff"/>
    </linearGradient>
    <radialGradient id="radial-gradient-3" cx="549.88" cy="224.99" fx="549.88" fy="224.99" r="212.28" gradientTransform="translate(379.95 -266.43) rotate(45)" gradientUnits="userSpaceOnUse">
      <stop offset=".04" stop-color="#fff"/>
      <stop offset=".04" stop-color="#fff"/>
      <stop offset=".23" stop-color="#6e93e1"/>
      <stop offset="1" stop-color="#363499"/>
    </radialGradient>
    <linearGradient id="linear-gradient-12" x1="536.79" y1="348.97" x2="520.81" y2="296.78" gradientUnits="userSpaceOnUse">
      <stop offset="0" stop-color="#000"/>
      <stop offset=".99" stop-color="#fff"/>
    </linearGradient>
  </defs>
  <g class="cls-22">
    <g id="Arcade">
      <rect class="cls-18" y="0" width="1024" height="1024" rx="143.49" ry="143.49"/>
      <g>
        <path class="cls-10" d="M352.63,628.82c-2-3.32-4.68-5.31-8.01-6.42-60.8-17.06-100-14.62-117.36,7.76-6.24,7.31-10.02,14.4-11.14,21.71-1.34,7.31-.45,14.17,2.89,20.83h-.22c2.46,5.09,6.24,9.74,11.14,13.95h.22c4.01,3.32,8.24,5.99,13.14,8.21,3.34,1.77,11.14,2.87,23.61,3.1,2.46.22,7.13.22,14.25.22,6.24.22,11.14.22,14.7.45h.22c11.14.22,22.44,1.31,26.06,2.43,3.61,1.13,9.96,7.69,10.45,10.65.51,2.94,0,0,0,0,.67,1.77,1.34,2.24.7,6.72-.65,4.49-2.03,3.69-3.81,5.91v-.22c-2.01,1.77-5.35,3.1-10.02,4.44-6.67,1.55-14.7,2.65-24.05,2.87-9.35.22-18.71,0-28.28-1.1-9.13-1.12-17.14-2.67-23.83-4.66-3.34-1.1-6.9-.88-10.02.89-3.34,1.55-5.57,4.21-6.67,7.76-1.12,3.32-.67,6.86.88,10.18,1.79,3.1,4.47,5.32,7.81,6.43,8.01,2.65,17.59,4.42,28.73,5.76,10.92,1.1,21.59,1.55,32.29,1.32,11.59-.45,21.61-1.77,29.85-3.77,11.57-2.89,19.6-7.31,23.83-13.07h.22c3.56-4.44,6.22-8.43,7.79-11.97v-.22c1.79-4.42,2.68-8.86,2.68-13.5v-.45c-.22-3.32.06-8.17-1.72-12.83-.67-2.43-1.32-3.77-4.9-11.51-3.59-7.72-11.87-12.66-26.35-15.75h-.22c-7.12-1.34-17.37-2.44-30.5-2.89-3.78-.22-8.91-.22-15.59-.45-6.67,0-11.35,0-13.81-.22-7.12-.21-11.8-.43-13.58-.88-2.46-1.12-4.68-2.44-6.46-3.99-2-1.77-3.56-3.54-4.45-5.31v-.22c-.89-1.32-1.12-2.87-.67-4.44.67-2.87,2.23-5.97,5.12-8.86,13.36-12.85,43.21-12.85,89.75.45,3.57.88,6.91.67,10.02-1.32,3.35-1.77,5.57-4.44,6.46-7.98,1.12-3.32.67-6.66-1.12-9.98Z"/>
        <path class="cls-2" d="M203.24,796.6c-2-3.32-4.68-5.32-8.01-6.42-60.8-17.06-100-14.62-117.36,7.76-6.24,7.31-10.02,14.4-11.14,21.71-1.34,7.31-.45,14.17,2.89,20.83h-.22c2.46,5.09,6.24,9.74,11.14,13.95h.22c4.01,3.32,8.24,5.99,13.14,8.2,3.34,1.77,11.14,2.87,23.61,3.1,2.46.22,7.13.22,14.25.22,6.24.22,11.14.22,14.7.45h.22c11.14.22,22.44,1.31,26.06,2.43,3.61,1.13,9.96,7.69,10.45,10.65.51,2.94,0,0,0,0,.67,1.77,1.34,2.24.7,6.72-.65,4.49-2.03,3.69-3.81,5.91v-.22c-2.01,1.77-5.35,3.1-10.02,4.44-6.67,1.55-14.7,2.65-24.05,2.87-9.35.22-18.71,0-28.28-1.1-9.13-1.12-17.14-2.67-23.83-4.66-3.34-1.1-6.89-.88-10.02.89-3.34,1.55-5.57,4.21-6.67,7.76-1.12,3.32-.67,6.86.88,10.18,1.79,3.1,4.47,5.32,7.81,6.43,8.01,2.65,17.59,4.42,28.73,5.76,10.92,1.1,21.59,1.55,32.29,1.32,11.59-.45,21.61-1.77,29.85-3.77,11.57-2.89,19.6-7.31,23.83-13.07h.22c3.56-4.44,6.22-8.43,7.79-11.97v-.22c1.79-4.42,2.68-8.86,2.68-13.5v-.45c-.22-3.32.06-8.17-1.72-12.83-.67-2.43-1.32-3.77-4.9-11.51-3.59-7.72-11.87-12.66-26.35-15.75h-.22c-7.12-1.34-17.37-2.44-30.5-2.89-3.78-.22-8.91-.22-15.59-.45-6.67,0-11.35,0-13.81-.22-7.12-.21-11.8-.43-13.58-.88-2.46-1.12-4.68-2.44-6.46-3.99-2-1.77-3.56-3.54-4.45-5.31v-.22c-.89-1.32-1.12-2.87-.67-4.44.67-2.87,2.23-5.97,5.12-8.86,13.36-12.85,43.21-12.85,89.75.45,3.57.88,6.91.67,10.02-1.32,3.35-1.77,5.57-4.44,6.46-7.98,1.12-3.32.67-6.66-1.12-9.98Z"/>
        <path class="cls-9" d="M483.67,617.58c-2.68-2.44-5.79-3.77-9.58-3.77h-89.09c-3.56,0-6.89,1.32-9.35,3.77-2.67,2.65-4.01,5.76-4.01,9.53v110.77c0,3.54,1.34,6.88,4.01,9.31,2.46,2.67,5.79,3.99,9.35,3.99h89.09c3.78,0,6.89-1.32,9.58-3.99,2.44-2.43,3.78-5.76,3.78-9.31,0-3.77-1.34-6.86-3.78-9.53-2.68-2.43-5.79-3.77-9.58-3.77h-75.72v-28.79h55.67c3.78,0,6.89-1.32,9.58-3.99,2.44-2.44,3.78-5.76,3.78-9.31,0-3.77-1.34-6.86-3.78-9.53-2.68-2.44-5.79-3.77-9.58-3.77h-55.67v-28.79h75.72c3.78,0,6.89-1.34,9.58-3.99,2.44-2.44,3.78-5.54,3.78-9.31s-1.34-6.88-3.78-9.53Z"/>
        <path class="cls-3" d="M637.47,633.26c-.67-3.85-2.67-6.96-5.55-9.13-24.45-17.56-51.24-20.88-77.14-16.34-10.22,2.39-13.52,2.17-24.68,7.69-11.14,5.51-18.9,15.75-18.9,15.75-5.33,5.78-8.22,12.83-11.78,22.18-3.56,9.35-3.54,14-3.99,25.54-.45,11.54,1.1,22.12,4.44,32.21,3.34,10.1,8.44,19.01,15.34,26.46v-.24c6.67,7.69,14.89,13.69,24.45,17.54,9.56,4.09,20.01,6.26,31.35,6.26,26.67,0,46.02-6.02,58.02-18.04,14-12.26,19.78-30.77,17.56-55.54-.22-3.85-1.77-6.74-4.23-9.37-2.67-2.41-5.55-3.61-9.11-3.61h-57.8c-3.54,0-6.88,1.44-9.34,4.09-2.67,2.87-3.99,6.24-3.99,10.34,0,3.85,1.32,7.45,3.99,10.09,2.46,2.89,5.79,4.33,9.34,4.33h44.47c-.89,7.21-3.78,13.23-8.24,17.8-8.67,7.46-22.22,11.06-40.67,11.06-7.79,0-15.11-1.44-21.56-4.09l-.22-.24c-5.78-2.41-10.66-5.78-14.89-10.58-4.23-4.56-7.34-10.1-9.34-16.1-2.22-6.5-3.11-13.71-2.89-21.4.22-8.17,1.12-12.61,2.66-18.13,1.12-4.1,2.89-7.46,5.33-10.1,0,0,3.98-6.18,10.68-9.51,6.7-3.35,11.56-4.33,19.77-6.5h.22c19.57-4.8,38.24-.72,56.25,12.5,3.11,2.17,6.45,2.89,9.99,2.17,3.56-.96,6.45-2.89,8.46-6.25,2-3.11,2.67-6.72,2-10.82Z"/>
        <path class="cls-4" d="M805.77,750.12c2.23-3.1,3.11-6.19,2.66-9.96-14.03-92.4-39.18-137.6-75.72-135.38-36.52-2.22-61.91,41.43-75.49,130.94-.45,3.54.22,6.86,2.46,9.75,2.22,3.1,5.12,4.87,8.68,5.31,3.56.65,6.89-.22,10.02-2.44,2.89-2.22,4.68-5.09,5.35-8.64,1.68-11.12,3.51-21.39,5.49-30.8h86.46c2.25,10.65,4.34,22.39,6.26,35.23.67,3.54,2.24,6.43,5.35,8.65,2.89,2.22,6.24,3.1,9.8,2.43,3.56-.43,6.45-2.2,8.68-5.09ZM695.84,682.34c9.74-32.78,22.08-49.77,36.87-50.96,14.35,1.18,26.54,18.18,36.31,50.96h-73.18Z"/>
        <path class="cls-5" d="M239.42,925.93c2.91-2.22,4.69-5.11,5.35-8.65,1.69-11.11,3.53-21.39,5.49-30.79h86.49c2.25,10.65,4.33,22.39,6.24,35.23.67,3.54,2.22,6.43,5.35,8.63,2.89,2.22,6.22,3.11,9.8,2.44,3.56-.45,6.45-2.22,8.68-5.09,2.22-3.11,3.11-6.21,2.67-9.98-14.03-92.38-39.2-137.58-75.72-135.37-36.52-2.22-61.69,41.43-75.5,130.94-.67,3.54.22,6.86,2.44,9.74,2.23,3.11,5.12,4.88,8.7,5.31,3.78.67,6.9-.21,10.01-2.43ZM256.88,859.9c9.75-32.77,22.09-49.75,36.89-50.95,14.49,1.17,26.64,18.18,36.34,50.95h-73.23Z"/>
        <path class="cls-6" d="M483.74,792.77c-2.67-2.43-5.79-3.77-9.58-3.77h-115.8c-3.57,0-6.91,1.34-9.37,3.77-2.67,2.67-4.01,5.76-4.01,9.53,0,3.54,1.34,6.86,4.01,9.31,2.46,2.67,5.79,3.99,9.37,3.99h44.53v101.91c0,3.54,1.34,6.88,4.01,9.31,2.46,2.67,5.79,3.99,9.35,3.99,3.8,0,6.91-1.32,9.58-3.99,2.46-2.43,3.8-5.76,3.8-9.31v-101.91h44.53c3.78,0,6.91-1.32,9.58-3.99,2.46-2.44,3.78-5.76,3.78-9.31,0-3.77-1.32-6.86-3.78-9.53Z"/>
        <path class="cls-7" d="M639.77,790.12c-2.67-2.67-5.78-3.99-9.58-3.99-3.56,0-6.9,1.32-9.35,3.99-2.67,2.43-4.01,5.76-4.01,9.31v65.79c0,5.11-.89,9.98-2.89,14.41-1.79,4.64-4.68,8.41-8.03,11.95-3.56,3.32-7.34,6.21-12.02,7.98-4.45,2-9.35,2.87-14.48,2.87h-19.82c-5.12,0-9.8-.88-14.48-2.87-4.68-1.77-8.46-4.66-12.02-7.98-3.35-3.54-6.02-7.31-8.03-11.75v-.21c-1.77-4.44-2.89-9.31-2.89-14.41v-65.79c0-3.54-1.34-6.88-3.78-9.31-2.68-2.67-5.79-3.99-9.58-3.99-3.56,0-6.91,1.32-9.35,3.99-2.68,2.43-4.01,5.76-4.01,9.31v65.79c0,8.65,1.77,16.84,4.9,24.82h.22c3.11,7.76,7.79,14.4,13.58,20.38,6,5.76,12.69,10.41,20.48,13.74,7.81,3.32,16.04,4.87,24.95,4.87h19.82c8.91,0,17.14-1.55,25.17-4.87h-.22c7.79-3.34,14.48-7.98,20.5-13.74,5.78-5.99,10.45-12.62,13.81-20.38v.22c3.34-7.98,4.9-16.17,4.9-25.04v-65.79c0-3.54-1.34-6.88-3.8-9.31Z"/>
        <path class="cls-8" d="M657.73,790.25c-2.36,2.43-3.78,5.28-3.78,8.79v114.42c0,3.51,1.42,6.81,4.02,9.24,2.84,2.63,6.4,3.96,10.18,3.96,4.04,0,7.34-1.32,9.96-3.96,2.84-2.43,4.26-5.73,4.26-9.24v-102.1c30.55-1.76,54-.21,70.34,4.4,12.31,3.74,18.94,9.9,19.65,18.48.24,6.81-2.6,11.67-8.52,14.53-9.48,3.96-23.45,5.06-41.91,3.08-3.32-.22-6.16.22-9,1.98-2.84,1.53-4.74,3.74-5.92,6.61-1.18,2.63-1.18,5.49-.48,8.35.94,2.87,2.84,5.06,5.44,6.83l71.06,48.41c3.08,2.19,6.62,3.08,10.42,2.41,4.02-.43,7.1-2.2,9.47-5.28,2.14-2.86,3.08-6.16,2.62-9.67-.72-3.75-2.62-6.61-5.7-8.81l-37.65-25.52c5.44-1.31,10.18-2.86,14.21-4.84,16.1-7.49,24.16-20.24,24.4-38.07.94-21.12-12.32-35.64-39.31-43.57-21.09-6.59-52.59-8.14-94.51-4.84-3.54.22-6.62,1.76-9.24,4.41Z"/>
        <path class="cls-1" d="M822.24,792.55c-1.56,2.22-2.44,4.66-2.44,7.53v115.21c0,3.56,1.32,6.88,4.01,9.31,2.44,2.67,5.78,3.99,9.35,3.99,3.78,0,6.89-1.32,9.58-3.99,2.44-2.43,3.78-5.75,3.78-9.31v-82.18l88.41,91.28c2.01,1.98,4.23,3.32,6.91,3.97,2.66.45,5.12.22,7.79-.65,2.46-1.12,4.45-2.67,6.02-5.09,1.56-2.22,2.24-4.66,2.24-7.33v-115.21c0-3.77-1.34-6.86-3.8-9.53-2.66-2.43-5.78-3.77-9.58-3.77-3.56,0-6.89,1.34-9.35,3.77-2.67,2.67-4.01,5.76-4.01,9.53v82.2l-88.18-91.5c-2.01-1.77-4.23-3.1-6.91-3.77-2.67-.43-5.35-.22-7.79.89-2.46.88-4.68,2.44-6.02,4.64Z"/>
        <path class="cls-15" d="M788.43,273.07c7.09-.67,12.21-.69,15.37-.06v.46c10.1,6.43,15.63,12.88,16.09,20.22-3.69,11.49-15.18,24.37-33.57,38.63-22.06,16.54-52.4,33.55-89.64,51.01-16.9,7.71-34.7,15.12-53.41,22.31-21.47,8.27-18.24,65.71-2.49,60,28.11-10.18,54.44-21,78.88-32.19,41.37-19.31,74.94-38.16,100.22-57.46,32.18-24.84,50.56-48.27,53.77-70.8,5.95-21.79.75-41.2-15.77-58.75-6.48-6.89-72.67,26.94-69.46,26.64Z"/>
        <path class="cls-19" d="M415.74,470.31c-16.15,3.05-31.86,5.71-47.26,8.17l.46-.46c-31.25,4.6-58.39,6.9-81.82,7.36h-.46c-20.22,0-35.86-1.37-45.97-5.06-6.9-2.76-13.79-2.3-20.69.93-7.36,2.76-11.96,8.27-14.72,15.16-2.76,7.36-2.3,14.25.93,21.15,3.21,6.9,8.27,11.96,15.16,14.72,14.72,5.51,36.31,8.27,66.19,8.27,25.28-.46,54.71-2.76,88.73-7.82h.46c17-2.36,34.48-5.32,52.38-8.78,16.95-3.26,3.72-56.85-13.41-53.63Z"/>
        <path class="cls-20" d="M412.15,174.2c-15.55,5.16-30.71,10.52-45.5,16.06-34.48,13.34-65.28,26.67-92.86,40.92h.46c-29.88,15.16-54.24,29.88-73.09,45.5v-.46c-22.98,17.92-38.61,35.4-46.89,51.94v.46c-12.87,23.45-13.79,45.06-3.21,65.28,6.43,19.76,26.19,30.34,59.76,32.18,19.3,1.37,45.51-1.39,78.61-7.82,16.63-3.43,35.59-8.14,57-13.85,12.9-3.45-2.44-56.53-15.15-53.09-19.7,5.36-37.24,9.62-52.89,12.7-27.12,5.51-48.27,7.81-64.35,6.89-6.43,0-11.03-.46-12.86-.46l-.46-.46c-1.37-4.6-.91-10.1,2.3-15.63v-.46c5.99-10.57,16.55-22.06,32.18-34.01,17.01-13.33,38.16-26.66,63.89-39.54,25.74-13.79,54.71-26.19,86.89-38.61v.46c9.11-3.43,18.39-6.8,27.79-10.07,23.34-8.11,17.6-64.29-1.6-57.94Z"/>
        <path class="cls-21" d="M641.14,177.17c17.75-2.28,35.07-3.88,51.87-4.84,33.1-2.76,62.98-2.3,89.17.46,7.82.93,14.25-1.37,20.22-5.97,5.99-5.06,9.19-11.04,10.12-18.39.93-7.82-1.37-14.72-5.97-20.24-5.06-5.97-11.04-9.64-18.39-10.1-29.43-3.22-62.52-3.22-98.83-.93-23.32,1.58-47.48,4.23-72.67,7.96-11.57,1.71,8.25,54.11,24.47,52.03Z"/>
        <path class="cls-14" d="M641.14,177.17c17.75-2.28,35.07-3.88,51.87-4.84,33.1-2.76,62.98-2.3,89.17.46,7.82.93,14.25-1.37,20.22-5.97,5.99-5.06,9.19-11.04,10.12-18.39.93-7.82-1.37-14.72-5.97-20.24-5.06-5.97-11.04-9.64-18.39-10.1-29.43-3.22-62.52-3.22-98.83-.93-23.32,1.58-47.48,4.23-72.67,7.96-11.57,1.71,8.25,54.11,24.47,52.03Z"/>
        <path class="cls-16" d="M182.23,343.09c0,29.8,19.07,27.63,19.04,27.39,0-.02-.03-.02-.11-.02l-.46-.46c-1.37-4.6-.91-10.1,2.3-15.63v-.46c5.99-10.57,16.55-22.06,32.18-34.01,17.01-13.33,38.16-26.66,63.89-39.54,25.74-13.79,54.71-26.19,86.89-38.61v.46c9.11-3.43,18.39-6.8,27.79-10.07,10.28-3.58,14.92-16.49,15.26-29.26-12.02-1.64-24.4-2.51-37.08-2.51-27.39,0-53.49,4.02-77.2,11.28-14.38,6.37-28.01,12.83-40.94,19.52h.46c-9.31,4.72-18.07,9.4-26.32,14.08-33.26,25.51-65.69,60.06-65.69,97.82Z"/>
        <path class="cls-11" d="M812.53,148.44c.93-7.82-1.37-14.72-5.97-20.24-5.06-5.97-11.04-9.64-18.39-10.1-29.43-3.22-62.52-3.22-98.83-.93-34.03,2.3-69.88,6.89-108.02,13.79-36.33,6.43-73.1,15.18-109.87,25.28-36.77,10.12-71.7,21.61-104.8,34.01-34.48,13.34-65.28,26.67-92.86,40.92h.46c-29.88,15.16-54.24,29.88-73.09,45.5v-.46c-22.98,17.92-38.61,35.4-46.89,51.94v.46c-12.87,23.45-13.79,45.06-3.21,65.28,6.43,19.76,25.84,28.91,59.4,30.75,19.3,1.37,45.86.04,78.96-6.39,26.66-5.51,59.29-14.25,98.37-25.28,28.49-8.73,64.82-20.22,108.93-34.94l109.41-35.85c39.98-13.33,72.62-23.45,97.9-30.34,30.8-9.19,55.16-14.7,73.55-17.46,12.88-1.84,21.61-2.3,26.21-1.39v.46c10.1,6.43,15.63,12.88,16.09,20.22-3.69,11.49-15.18,24.37-33.57,38.63-22.06,16.54-52.4,33.55-89.64,51.01-36.31,16.55-76.76,31.73-121.35,46.43h-.46c-34.48,11.03-69.86,20.69-106.17,29.42-35.4,8.28-68.51,14.25-100.22,19.31l.46-.46c-31.25,4.6-58.39,6.9-81.82,7.36h-.46c-20.22,0-35.86-1.37-45.97-5.06-6.9-2.76-13.79-2.3-20.69.93-7.36,2.76-11.96,8.27-14.72,15.16-2.76,7.36-2.3,14.25.93,21.15,3.21,6.9,8.27,11.96,15.16,14.72,14.72,5.51,36.31,8.27,66.19,8.27,25.28-.46,54.71-2.76,88.73-7.82h.46c33.09-4.6,68.03-11.49,104.34-19.76h.46c37.7-9.19,74.47-19.31,110.32-30.8,46.89-14.7,89.64-31.25,127.78-48.71,41.37-19.31,74.94-38.16,100.22-57.46,32.18-24.84,50.56-48.27,53.77-70.8,8.28-30.33-5.04-56.07-40.44-78.59-11.03-8.75-31.71-11.04-62.98-6.9h-.45c-20.24,3.21-47.36,9.19-80.91,18.83-25.74,7.36-58.85,17.48-100.22,31.27l-109.4,35.85c-43.67,14.25-79.07,25.75-107.1,34.01-37.24,11.04-68.04,19.31-93.79,24.37-27.12,5.51-48.27,7.81-64.35,6.89-6.43,0-11.03-.46-12.86-.46l-.46-.46c-1.37-4.6-.91-10.1,2.3-15.63v-.46c5.99-10.57,16.55-22.06,32.18-34.01,17.01-13.33,38.16-26.66,63.89-39.54,25.74-13.79,54.71-26.19,86.89-38.61v.46c31.71-11.96,65.26-22.98,100.2-32.64,35.4-10.12,70.32-18.39,105.26-24.36,35.4-6.9,69.41-11.04,101.59-12.88,33.1-2.76,62.98-2.3,89.17.46,7.82.93,14.25-1.37,20.22-5.97,5.99-5.06,9.19-11.04,10.12-18.39Z"/>
        <circle class="cls-13" cx="511.58" cy="325.42" r="234.43" transform="translate(-80.27 457.05) rotate(-45)"/>
        <path class="cls-17" d="M276.2,364.68c-2.69.52-73.52,16.01-85.23,4.3-3.44-3.44,7.45,5.33,18.55,19.77,1.41,1.83.5,4.88-1.14,8.63-.38.86-.79,1.13-1.49,2.06-.33.44-.43,2.21-.48,2.67-.18,1.43-.94,2.58-1.15,3.84-.67,4.02-3.04,7.22-3.55,9.79-.19.97,1.25,1.85,1.15,2.64-.1.85-1.83,1.07-1.77,1.74.06.68-1.96.9-1.78,1.46.05.15-.06.71.3.8,1.37.32,4.63.63,5.09.7.7.1,7.01,1.03,16.06,1.1,9.05.07,20.18.08,29.93-1,5.97-.66,12.19-1.5,18.03-2.36,7.69-1.13,14.73-2.28,19.69-3.06,4.61-.73,6.68-.19,7.33-.13,25.41-5.54,55.91-13.76,91.87-23.91,28.49-8.73,64.82-20.22,108.93-34.94l109.41-35.85c22.06-7.36,41.88-13.73,59.47-19.12,14.3-4.39,27.1-8.12,38.43-11.22,13.95-4.15,26.56-7.55,37.91-10.3,13.73-3.32,25.57-5.67,35.64-7.17,12.88-1.84,21.61-2.3,26.21-1.39v.46c3.88,2.47,20.8.51,29.35,13.44,13.77,20.81,20.52,58.29,26.14,50.6,8.03-11,12.86-21.75,14.36-32.32,8.28-30.33-5.04-54.92-40.44-77.44-11.03-8.75-31.71-11.04-62.98-6.89h-.45c-12.26,1.95-27.05,4.92-44.28,9.1-11.19,2.71-23.41,4.79-36.63,8.59-12.77,3.66-27.36,7.98-43.86,13.1-16.76,5.2-35.5,11.2-56.36,18.16l-109.4,35.85c-30.95,10.1-57.73,18.82-80.7,25.98l-122.18,32.32Z"/>
        <path class="cls-12" d="M728.88,227.51c-11.19,2.71-26.78,7.21-39.99,11.01-25.74,7.36-58.85,17.48-100.22,31.27l-109.4,35.85c-33.29,10.87-61.46,19.67-85.53,26.69-10.45,3.05-17.79,4.67-21.55,5.78-36.34,10.77-125.33,36.7-159.88,32.91"/>
        <path class="cls-12" d="M288.77,418.26c25.41-5.54,63.06-15.13,99.02-25.28,28.49-8.73,64.82-20.22,108.93-34.94l109.41-35.85c39.98-13.33,72.62-23.45,97.9-30.34,13.95-4.15,30.02-8.13,41.37-10.87"/>
      </g>
    </g>
  </g>
</svg>