<?xml version="1.0" encoding="UTF-8"?>
<svg xmlns="http://www.w3.org/2000/svg" viewBox="0 0 1024 1024">
  <defs>
    <style>
      .cls-1 {
        fill: #b2ae85;
      }

      .cls-1, .cls-2, .cls-3 {
        stroke-width: 0px;
      }

      .cls-2 {
        mix-blend-mode: multiply;
      }

      .cls-2, .cls-3 {
        fill: #000;
      }

      .cls-4 {
        isolation: isolate;
      }
    </style>
  </defs>
  <g class="cls-4">
    <g id="Arcade">
      <rect class="cls-2" y="0" width="1024" height="1024" rx="143.49" ry="143.49"/>
      <g id="layer1">
        <rect id="rect6249" class="cls-1" x="36.51" y="446.01" width="950.99" height="131.98"/>
        <path id="path6225" class="cls-3" d="M42.01,572.03v-120.06l470.71.25,469.28-.25v119.85l-939.99.21ZM318.24,539.58h-3.81c0,3.06-2.18,4.42-3.98,4.9h-83.44v-27.01h54.14c.68,0,3.08,2.41,3.43,4.26h3.08v-25.36h-3.46c0,2.55-2.02,4.96-3.35,4.94h-53.84v-23.92h80.79c2.12.42,4.34,3.11,4.34,5h3.07v-26.02h-3.01c-.12,1.88-1.62,4.4-3.97,4.84h-115.2v2.15c3.87.07,5.63,3.12,5.63,4.44v86.87c-.25,1.73-1.91,3.96-5.84,3.73v2.9h118.02c1.47.74,3.39,1.65,3.7,4.87h3.76l-.06-26.59ZM184.4,530.33c-.71-25.83-36.84-30.28-55.85-31.21-17.75-.87-34.64-2.75-38.21-6.32-3.4-3.4-4.68-7.42,2.27-12.47,5-3.63,13.05-5.43,26.5-5.48,19.62-.07,40.19,5.81,46.11,13.19,1.94,2.42.02,2.94,3.05,3.91l16.09-24.02-2.7-1.45s-3.12,1.99-4.9,1.99c-4.47,0-27.65-11.19-58.29-11.19-25.98,0-56.72,8.52-57.5,32.05,0,7.01-.14,16.72,20.27,25.84,20.53,9.17,74.9.43,74.9,16.4,0,16.89-44.58,17.18-68.23,8.9-3.47-1.21-15.29-3.63-14.68-13.1l-2.55-.55-14.99,25.08c3.24,3.24,2.53.33,7.04.33,4.79.27,25.36,10.83,59.22,11.45,30.03.55,61.63-8.98,62.47-33.33h0ZM972.89,561.4v-99.86l-326.73-.37v100.6l326.73-.37ZM794.15,478.94c-116.59,21.76-96.34,75.33,5.19,63.64-160.76,33.5-206.99-37-5.19-63.64ZM816.74,495.63l10.14,37.12c85.05-9.57,123.91-64.07-14.8-57.88,113.65-14.81,153.73,1.02,144.03,17.3s-66.71,37.61-139.84,47.61l.47-44.15ZM470.52,545.19c-.04-2.07-3.98-1.24-6.03-4.78v-24.49c-.04-.93,2.48-3.49,5.75-3.62l-.07-2.6h-63.52c-1.46-1.44-2.52-2.93-2.82-4.37h-3.66v23.62h3.09c1.55-1.11,1.02-3.75,3.98-4.62l34.32.07v13.62c-119.4,37.34-112.61-92.26-6.44-56.75,11.09,4.52,5.54,9.08,11.1,9.08l14.36-23.95c-1.5-2.47-4.04.51-6.87.33-5.81,0-26.58-8.72-51.17-8.81-35.36.08-76.79,12.77-76.79,53.93,2.35,39.49,45.12,51.96,79,49.31,16.33,0,44.61-4.7,65.76-15.97h0ZM511.1,557.24c-1.59,0-5.94-1.18-5.86-5.62l9.57-17.34,53.82.11c1.12,2.46,9.82,15.37,9.59,18.36,0,.64-.05,4.11-5.8,4.56v2.76h43.75v-2.66c-3.17-.19-5.29-1-6.43-2.27l-51.35-88.14c.06-3.59,4.34-3.93,5.44-4.62v-2.81h-42.14l-.02,2.78c4.28.31,6,2.85,5.38,6.07l-48.68,85.93c-2.15,1.89-3.71,3.17-6.63,2.93v2.62h39.41l-.06-2.68ZM522.33,520.37l19.4-35.77,19.42,35.81-38.82-.04Z"/>
      </g>
    </g>
  </g>
</svg>