<?xml version="1.0" encoding="UTF-8"?>
<svg xmlns="http://www.w3.org/2000/svg" viewBox="0 0 1024 1024">
  <defs>
    <style>
      .cls-1 {
        fill: #000000;
        mix-blend-mode: multiply;
      }

      .cls-1, .cls-2, .cls-3 {
        stroke-width: 0px;
      }

      .cls-2 {
        fill: #000000;
      }

      .cls-4 {
        isolation: isolate;
      }

      .cls-3 {
        fill: #fff;
      }
    </style>
  </defs>
  <g class="cls-4">
    <g id="Arcade">
      <rect class="cls-1" x="0" y="0" width="1024" height="1024" rx="143.49" ry="143.49"/>
      <g>
        <path class="cls-3" d="M505.23,638.97c17.01,16.52,40.21,26.73,65.79,26.73l404.24.05-87.3-260.45c-11.92-27.67-39.9-47.05-73.5-47.05s-61.85,20.01-73.33,47.56l-29.1,84.84-.11-128.02-141.17-.07c-25.52,0-48.45,9.96-65.35,26.43l.05-26.31h-144.54c-26.92,0-51.41,11.48-68.53,29.52v-29.64l-136.23.12c-58.81-.05-107.05,45.92-107.12,106.7,0,28.14,12.3,53.66,30.43,72.56l-30.71-.05v123.8l137.25-.02c38.56-.05,76.78-23.31,90.06-51.19l.4-1.15c15.35,31,47.37,52.36,84.44,52.36l144.33-.02v-26.71"/>
        <path class="cls-2" d="M69.95,644.52l115.74-.12c47.35,0,85.73-38.26,85.73-85.4s-38.38-85.5-85.73-85.5l-30.06.16c-2.37,0-4.29-1.94-4.29-4.33s1.92-4.34,4.29-4.34l115.53.02.05-36.25h-115.6c-22.35,0-40.54,18.16-40.54,40.46s18.18,40.41,40.54,40.41l30.2.4c27.13,0,49.09,21.88,49.09,48.88s-21.95,48.94-49.09,48.94h-115.81l-.05,36.64"/>
        <path class="cls-2" d="M69.99,599.37h115.81c22.42,0,40.56-18.09,40.56-40.44s-18.14-40.39-40.56-40.39l-30.2-.33c-27.09,0-49.06-21.91-49.06-48.97s21.98-48.9,49.06-48.9l115.6-.02-.05-36.38h-115.53c-47.3,0-85.73,38.22-85.73,85.4s38.43,85.43,85.73,85.43l29.9.05c2.27,0,4.19,1.85,4.19,4.19s-1.92,4.15-4.19,4.15l-115.58.09.05,36.13"/>
        <path class="cls-2" d="M361.16,608.11c-20.08,0-36.53-16-36.53-36.44v-115.62c0-19.66,16.45-35.83,36.53-35.83l123.55.02v-36.31h-123.55c-40.2,0-72.77,32.45-72.77,72.52v115.23c0,40.07,32.57,72.56,72.77,72.56l123.03.05-.02-36.22-123,.04"/>
        <path class="cls-2" d="M333.48,456.45c0-15.32,12.33-27.74,27.67-27.74h123.55v36.36h-106.44c-8.53,0-8.64,8.46-8.64,8.46h88.8v36.2h-124.98l.04-53.28"/>
        <path class="cls-2" d="M361.16,599.3c-15.3,0-27.72-12.35-27.72-27.63v-53.33h124.98v36.27h-88.8c.12,8.53,8.64,8.57,8.64,8.57h105.93l-.02,36.06-123,.05"/>
        <path class="cls-2" d="M571.28,608.02c-20.01,0-36.36-16.31-36.36-36.34v-115.23c0-20.06,16.24-36.22,36.27-36.22h119.66v-36.29h-119.94c-40.19,0-72.75,32.45-72.75,72.52v115.23c0,40.07,32.85,72.56,73.03,72.56l119.66.05v-170.76h-102.83v36.2h66.49v98.29h-83.22"/>
        <path class="cls-2" d="M543.44,571.67c0,15.35,12.42,27.84,27.74,27.84h74.74v-81.21h-57.83v36.32h21.46l.07,8.53h-21.37c-4.66,0-8.48-3.86-8.48-8.53l-.19-81.12s-.02-8.43,8.58-8.64h102.72l-.05-36.18-119.66.02c-15.32,0-27.74,12.42-27.74,27.74v115.23"/>
        <path class="cls-2" d="M803.28,428.17c1.61-4.61,5.99-7.94,11.17-7.94s9.61,3.33,11.18,7.94l58.09,171.6h-85.05l.09-40.37h28.42l-12.8-38.03-41.68,122.89h-42.88l73.45-216.09"/>
        <path class="cls-2" d="M895.43,608.02h-96.62v36.24h147.04l-76.47-226.26c-6.7-22.07-28.79-38.31-54.95-38.31s-48.22,16.16-54.97,38.22l-77.18,226.35h38.5l74.93-220.03c3.04-7.29,10.22-12.42,18.65-12.42s15.6,5.13,18.67,12.37l62.39,183.83"/>
      </g>
    </g>
  </g>
</svg>