<?xml version="1.0" encoding="UTF-8"?>
<svg xmlns="http://www.w3.org/2000/svg" viewBox="0 0 1024 1024">
  <defs>
    <style>
      .cls-1 {
        fill: #fc0c18;
      }

      .cls-1, .cls-2, .cls-3 {
        stroke-width: 0px;
      }

      .cls-2 {
        fill: #000;
        mix-blend-mode: multiply;
      }

      .cls-4 {
        isolation: isolate;
      }

      .cls-3 {
        fill: #fff;
      }
    </style>
  </defs>
  <g class="cls-4">
    <g id="Arcade">
      <rect class="cls-2" y="0" width="1024" height="1024" rx="143.49" ry="143.49"/>
      <rect class="cls-1" x="27.41" y="710.17" width="969.19" height="64.4"/>
      <g>
        <path class="cls-3" d="M361.17,473.25l-37.92,199.63h28.88l23.38-115.73,9.24,115.73h25.15l37.92-199.63h-28.88l-19.65,104.34-12.97-104.34h-25.15ZM460.99,473.25l-37.92,199.63h25.15l37.92-199.63h-25.15ZM499.3,473.25l-37.92,199.63h29.08l23.38-115.73,9.24,115.73h25.15l37.92-199.63h-29.08l-19.45,104.34-12.97-104.34h-25.35ZM596.76,473.25l-4.72,24.76h15.72l-31.05,174.88h28.69l31.63-174.88h15.13l3.93-24.76h-59.34ZM665.93,473.25l-39.3,199.63h56.59l3.93-24.76h-27.9l11.59-67.4h27.9l3.93-20.83h-27.9l12.18-61.89h27.9l3.93-24.76h-52.86ZM729.79,473.25l-37.92,199.63h29.08l23.38-115.73,9.24,115.73h25.15l37.92-199.63h-29.08l-19.45,104.34-12.97-104.34h-25.35ZM829.8,473.25l-37.92,199.63h57.38c10.42,0,20.47-8.18,22.4-18.47l30.46-161.32c2.07-11-4.94-19.85-15.72-19.85h-56.59ZM937.67,473.25c-10.78,0-21.06,8.86-22.99,19.85l-28.1,161.32c-1.82,10.29,4.99,18.47,15.33,18.47h41.46c10.4,0,20.47-8.18,22.4-18.47l30.46-161.32c2.09-10.98-4.96-19.85-15.72-19.85h-42.83ZM851.22,496.24h11.59c7.42,0,12.48,5.94,11.2,13.36l-24.76,130.67c-1.3,7.42-8.5,13.56-15.92,13.56h-11.4l29.28-157.59ZM952.41,496.24h.79c7.42,0,12.28,5.94,11,13.36l-23.58,130.67c-1.28,7.4-8.11,13.56-15.52,13.56-7.42,0-10.51-6.14-9.24-13.56l23.38-130.67.2-.59.2-.59.2-.79.2-.59.2-.79.2-.59.2-.59.39-.59.2-.59.39-.59.2-.59.39-.59.39-.39.39-.59.39-.59.59-.39.39-.39.39-.39.59-.39.59-.39.39-.39.59-.39.59-.2.59-.39.39-.2.79-.2.59-.2h.59l.59-.2h.79l.59-.2Z"/>
        <path class="cls-3" d="M78.97,249.43c-10.78,0-21.26,8.86-23.19,19.85v.59l-.2.2v.59l-.2.39v.39l-.2.39v.59l-.2.39v.59l-.2.59-.2.59-.2,1.18-.39,1.38-.2,1.38-.39,1.38-.2,1.57-.39,1.57-.39,1.77-.39,1.57-.59,3.34-.39,1.77-.39,1.57-.2,1.57-.39,1.57-.39,1.57-.2,1.57-.2,1.38-.39,1.18-.2,1.38v.59l-.2.39v.98l-.2.59v.79l-.2.39v.39c-.2,4.8.47,11.36,1.96,12.58,1.9,10.58,37.17,59.55,36.15,67-.95,7.48-5.11,29.47-5.11,29.47-1.28,7.42-6.34,13.36-13.75,13.36-7.42,0-12.48-5.92-11.2-13.36l6.68-36.55h-26.33l-8.84,50.69c-1.8,10.29,5.17,18.47,15.52,18.47h37.53c10.4,0,20.3-8.18,22.2-18.47,0,0,9.67-47.35,9.63-50.69-.04-3.36-.98-3.73-.98-3.73,0-3.85-31.38-55.65-34.58-57.57-1.38-.81-2.51-5.94-2.55-9.04-.06-3.08,4.13-23.78,4.13-23.78,1.28-7.42,8.3-13.36,15.72-13.36s10.51,5.94,9.24,13.36l-5.7,32.81h26.53l9.24-49.32c2.09-10.98-4.94-19.85-15.72-19.85h-38.91ZM151.28,249.43l-31.44,181.16c-1.8,10.29,5.17,18.47,15.52,18.47h37.53c10.4,0,20.47-8.18,22.4-18.47l33.6-181.16h-23.58l-32.03,176.06c-.47,2.55-2.95,4.72-5.5,4.72h-18.67c-2.61,0-4.36-2.14-3.93-4.72l31.24-176.06h-25.15ZM241.67,249.43l-37.92,199.63h25.15l17.29-90.39h32.03c10.42,0,20.3-8.24,22.2-18.47l13.75-70.93c2.07-11-4.94-19.85-15.72-19.85h-56.79ZM331.46,249.43l-39.3,199.63h56.59l3.93-24.76h-27.9l11.4-67.4h27.9l3.93-20.83h-27.9l12.38-61.89h27.9l3.93-24.76h-52.86ZM399.06,249.43l-37.73,199.63h25.15l17.09-90.39h17.88c2.35,2.19,2.62,6.23,2.95,8.25.47,2.94.95,6.69.59,9.63-.32,2.92-13.75,72.5-13.75,72.5h25.15s14.15-75.81,14.15-77.02c.04-1.24,0-5.12-1.38-7.27-.91-1.38-2.5-4.54-4.32-5.7-3.51-2.25-7.47-3.73-7.47-3.73h-1.77c7.19-2.84,20.76-7.51,22.2-15.13l13.75-70.93c2.09-11-4.94-19.85-15.72-19.85h-56.79ZM265.84,273.2h12.18c2.68,0,8.35,6.13,7.86,8.84l-10.41,49.32c-.49,2.55-3.93,8.45-6.48,8.45h-15.13l-.2-.2h-.79v-.2h-.39l-.2-.2h-.2l-.2-.2-.2-.2h-.2v-.2l-.2-.2-.2-.2v-.2l-.2-.2-.2-.2v-.39l-.2-.2v-.39l-.2-.2v-.2c0-.32-.04-.81,0-1.18l11.79-60.32c1.07-.89,2.4-1.57,3.73-1.57ZM422.44,273.2h12.18c2.67,0,8.39,6.13,7.86,8.84l-10.41,49.12c-.47,2.57-6.86,8.65-9.43,8.65h-10.81c-2.23,0-3.77-1.47-3.93-3.54,0-.32-.04-.79,0-1.18l11.59-60.32.2-.2.2-.2.39-.2h.2l.2-.2.2-.2h.2l.2-.2h.2l.39-.2h.59v-.2Z"/>
      </g>
      <path class="cls-3" d="M739.69,723.98h8.32c2.01,0,3.46,1.61,3.06,3.74l-1.87,9.51h-4.58l1.02-6.28c.23-1.42-.6-2.55-2.04-2.55s-2.81,1.12-3.06,2.55l-.85,4.58c-.14.27.28,1.56.51,1.7.63.36,6.62,10.3,6.62,11.04.14.37.22.54.17.68-.18,1.25-1.87,9.68-1.87,9.68-.37,1.94-2.25,3.57-4.24,3.57h-7.13c-1.98,0-3.25-1.63-2.89-3.57l1.7-9.68h4.92l-1.19,6.96c-.23,1.42.6,2.72,2.04,2.72s2.83-1.29,3.06-2.72l1.02-5.6c-.91-2.34-6.92-10.87-7.3-12.9-.26-.23-.37-1.45-.34-2.38.05-1.01,1.36-7.3,1.36-7.3h.17v-.51l.17-.34v-.17l.17-.17v-.17l.17-.17v-.17l.17-.17.17-.17v-.17h.17l.17-.17.17-.17.17-.17v-.17h.17l.17-.17.17-.17h.17l.17-.17h.17l.17-.17h.51l.17-.17ZM778.75,723.98h6.11l.85,14.43,7.81-14.43h6.11l-12.56,22.07-3.06,16.13h-5.43l2.72-17.32-2.55-20.88ZM834.27,723.98h8.32c2.01,0,3.42,1.61,3.06,3.74l-1.87,9.51h-4.58l1.02-6.28c.23-1.42-.6-2.55-2.04-2.55s-2.83,1.12-3.06,2.55l-.85,4.58c-.18.27.23,1.56.51,1.7.6.36,6.62,10.3,6.62,11.04.18.37.17.54.17.68-.23,1.25-1.7,9.68-1.7,9.68-.37,1.94-2.27,3.57-4.24,3.57h-7.3c-1.98,0-3.25-1.63-2.89-3.57l1.7-9.68h4.92l-1.19,6.96c-.23,1.42.65,2.72,2.04,2.72s2.78-1.29,3.06-2.72l1.02-5.6c-.93-2.34-6.92-10.87-7.3-12.9-.26-.23-.37-1.45-.34-2.38.05-1.01,1.36-7.3,1.36-7.3l.17-.17v-.34l.17-.34v-.17l.17-.17v-.17l.17-.17v-.17l.17-.17.17-.17v-.17h.17l.17-.17.17-.17.17-.17.17-.17.17-.17.17-.17h.17l.17-.17h.17l.17-.17h.51l.17-.17ZM873.83,723.98h11.38l-.85,4.58h-2.89l-5.94,33.62h-5.6l5.94-33.62h-2.89l.85-4.58ZM918.32,723.98h10.19l-.85,4.58h-5.26l-2.38,12.06h5.43l-.85,3.91h-5.26l-2.21,12.9h5.26l-.68,4.75h-10.87l7.47-38.2ZM960.26,723.98h6.28l1.02,22.07,9.68-21.9,6.11-.17-6.45,38.2h-4.75l3.06-20.21-8.49,20.21h-3.4l-1.02-20.71-3.74,20.71h-5.6l7.3-38.2ZM48.29,725.33h10.02l-.68,4.75h-5.43l-2.21,11.89h5.26l-.68,4.08h-5.43l-2.04,12.9h5.26l-.85,4.75h-10.87l7.64-38.37ZM95.15,725.33h4.75l2.55,20.04,3.74-20.04h5.6l-7.3,38.37h-4.75l-1.87-22.24-4.41,22.24h-5.6l7.3-38.37ZM146.09,725.33h11.21l-.68,4.75h-2.89l-6.11,33.62h-5.43l5.94-33.62h-3.06l1.02-4.75ZM195.5,725.33h10.19l-.85,4.75h-5.26l-2.38,11.89h5.26l-.68,4.08h-5.26l-2.21,12.9h5.26l-.68,4.75h-10.87l7.47-38.37ZM243.38,725.33h10.87c2.01,0,3.29,1.78,2.89,3.91l-2.55,13.58c-.28,1.47-2.86,2.67-4.24,3.23h.68v.17h.68l.17.17h.51v.17h.34v.17h.17c.23.41.34,1.63.34,1.87s-2.72,15.11-2.72,15.11h-4.92s2.63-13.37,2.72-13.92c.05-.6-.06-1.31-.17-1.87-.04-.41-.05-1.11-.51-1.53h-3.4l-3.23,17.32h-4.92l7.3-38.37ZM291.95,725.33h11.38l-.68,4.75h-2.89l-6.11,33.62h-5.43l5.94-33.62h-3.06l.85-4.75ZM348.49,725.33h6.45l-2.04,38.37h-6.45l.85-8.83h-3.91l-3.23,8.83h-5.77l14.09-38.37ZM393.65,725.33h4.92l-7.3,38.37h-4.75l7.13-38.37ZM437.46,725.33h4.75l2.55,20.04,3.74-20.04h5.43l-7.13,38.37h-4.92l-1.7-22.24-4.41,22.24h-5.6l7.3-38.37ZM493.66,725.33h6.28l1.02,22.24,9.68-22.07h6.11l-6.45,38.2h-4.75l3.06-20.21-8.49,20.21h-3.4l-1.02-20.72-3.74,20.72h-5.43l7.13-38.37ZM555.3,725.33h10.02l-.68,4.75h-5.43l-2.21,11.89h5.26l-.68,4.08h-5.43l-2.21,12.9h5.43l-.85,4.75h-10.7l7.47-38.37ZM604.54,725.33h4.75l2.55,20.04,3.74-20.04h5.43l-7.13,38.37h-4.75l-1.87-22.24-4.41,22.24h-5.6l7.3-38.37ZM654.97,725.33h11.38l-.85,4.75h-2.89l-5.94,33.62h-5.43l5.94-33.62h-3.06l.85-4.75ZM247.97,729.92c-.26,0-.49.16-.68.34l-2.21,11.55c0,.09,0,.08,0,.17,0,.37.26.68.68.68h2.04c.51,0,1.78-1.02,1.87-1.53l1.87-9.51c.09-.55-.85-1.7-1.36-1.7h-2.21ZM348.49,741.46l-3.57,9.68h2.72l.85-9.68Z"/>
    </g>
  </g>
</svg>