<?xml version="1.0" encoding="UTF-8"?>
<svg xmlns="http://www.w3.org/2000/svg" viewBox="0 0 1024 1024">
  <defs>
    <style>
      .cls-1 {
        fill: #000;
        mix-blend-mode: multiply;
      }

      .cls-1, .cls-2 {
        stroke-width: 0px;
      }

      .cls-3 {
        isolation: isolate;
      }

      .cls-2 {
        fill: #fff;
      }
    </style>
  </defs>
  <g class="cls-3">
    <g id="Arcade">
      <rect class="cls-1" x="0" y="0" width="1024" height="1024" rx="143.49" ry="143.49"/>
      <g>
        <path class="cls-2" d="M748.68,440.71v17.84h17.42c7.6,0,12.6,4.8,15.45,7.9,2.28,2.55,52.44,59.43,53.64,60.92,1.21,1.5,1.21,1.51,1.21,2.46v28.18c0,1.29-.13,2.58-.39,3.85-.72,1.66-2.13,2.91-3.86,3.43-1.65.21-3.3.31-4.96.31l-17.44-.02v17.84h97.8v-17.84h-18.4c-1.65,0-3.29-.1-4.93-.31-1.73-.52-3.14-1.77-3.85-3.43-.26-1.27-.39-2.56-.4-3.85v-28.17c-.11-.93.12-1.86.65-2.63l54.26-61.9c4.98-5.55,7.57-6.75,14.1-6.75h18v-17.84h-80.6v17.8h12.16c1.88-.11,3.5,1.32,3.61,3.2.05.82-.2,1.62-.69,2.28-.26.36-33.74,39.74-34.17,40.13s-.69.29-1-.13c-.31-.42-33.4-40-33.4-40-2.33-2.87-.51-5.47,2.23-5.47h11.85v-17.8h-98.32Z"/>
        <path class="cls-2" d="M501.81,440.71v17.84h15.61c11.27,0,12.04,6.28,12.04,11.75v83.49c0,5,.29,11.85-6.89,11.85h-19.27v17.82h82.25v-17.82h-20.06c-8.01,0-8.37-3.66-8.46-11.45v-71.52l112.96,100.8h28.73l-1.52-113.84c.15-8.32.66-11.09,9.27-11.09h18v-17.82h-83.9v17.82h18.42c8.46,0,9.88,3.26,9.99,11.09l1.01,59.57-98.06-88.48h-70.11Z"/>
        <path class="cls-2" d="M140.45,431.74c-17.67,0-37.75,3.32-54.72,10.94-15.83,7.08-28.73,18.44-28.73,37.28-.02,9.87,3.73,19.37,10.49,26.56,4.58,4.23,11.96,11.42,31.26,15.65,8.63,1.83,27.07,4.76,45.43,6.69,18.37,1.93,36.17,3.65,43.46,5.6,5.8,1.48,15.56,3.48,15.56,14.43s-10.27,14.22-12.06,14.94c-1.79.71-14.12,6.37-36.26,6.37-14.67-.41-29.21-2.91-43.17-7.42-8.26-2.96-16.92-6.84-25.01-16.71-3.26-4.65-5.07-10.16-5.2-15.83h-20.06v56.18h22.29v-7.6c0-1.75,1.4-3.18,3.16-3.19.58,0,1.16.15,1.66.46,10.5,4.57,21.42,8.1,32.61,10.54,11.71,2.44,19.28,4.21,33.84,4.21,15.36.29,30.67-1.87,45.34-6.4,9.75-2.67,18.89-7.19,26.94-13.3,9.18-7.05,14.52-17.99,14.43-29.57.08-10.85-4.11-21.29-11.65-29.08-4.2-4.07-9.06-7.4-14.37-9.83-5.72-2.58-11.65-4.65-17.73-6.18-11.56-2.83-37.54-6.37-49.96-7.61-13.03-1.35-35.63-3.23-44.65-6.02-2.74-.86-8.32-3.5-8.32-9.98,0-4.61,2.55-8.52,7.59-11.67,8.01-5.01,24.17-8.14,41.02-8.14,16.31-.2,32.49,2.96,47.54,9.28,4.04,1.76,7.84,4.03,11.31,6.75,5.65,4.83,9.57,11.38,11.14,18.64h18v-48.9h-20.06v5.67c0,1.83-1.83,4.23-5.47,2.25-9.05-4.71-34.47-14.88-65.65-15.01h0Z"/>
        <path class="cls-2" d="M376.92,431.75c-31.61,0-65.17,10.94-84.14,28.18-14.62,13.31-22.94,32.19-22.89,51.97-.23,19.87,8.11,38.87,22.89,52.15,20.43,18.37,51.08,28.22,84.15,28.22s64.42-9.74,84.36-28.22c14.32-13.58,22.48-32.41,22.58-52.15.2-19.73-8.01-38.61-22.58-51.93-21.4-19.41-49.4-28.22-84.36-28.22h0ZM376.92,452.62c17.29,0,33.94,6.22,45.16,17.26,10.85,10.69,16.52,25.79,16.52,41.95s-5.16,30.65-16.52,41.95c-11.36,11.31-27.63,17.36-45.16,17.36s-34.02-6.18-45.24-17.36c-10.84-11.24-16.74-26.34-16.42-41.95,0-16.09,5.6-31.24,16.42-41.95,11.22-11.09,27.94-17.26,45.24-17.26h0Z"/>
      </g>
    </g>
  </g>
</svg>