<?xml version="1.0" encoding="UTF-8"?>
<svg xmlns="http://www.w3.org/2000/svg" viewBox="0 0 1024 1024">
  <defs>
    <style>
      .cls-1 {
        fill: #00aeef;
      }

      .cls-1, .cls-2, .cls-3, .cls-4, .cls-5 {
        stroke-width: 0px;
      }

      .cls-2 {
        fill: #ed1c24;
      }

      .cls-3 {
        mix-blend-mode: multiply;
      }

      .cls-3, .cls-4 {
        fill: #000;
      }

      .cls-6 {
        isolation: isolate;
      }

      .cls-5 {
        fill: #fff;
      }
    </style>
  </defs>
  <g class="cls-6">
    <g id="Arcade">
      <rect class="cls-3" y="0" width="1024" height="1024" rx="143.49" ry="143.49"/>
      <g>
        <path class="cls-5" d="M926.13,366.38s-.14-.65-.22-1.01c-.22-1.52-.51-2.96-.94-4.48-.14-.65-.36-1.23-.58-1.88-.36-1.16-.79-2.24-1.23-3.4-.29-.65-.58-1.3-.87-1.88-.51-1.08-1.08-2.1-1.66-3.11-.36-.58-.65-1.16-1.01-1.73-.72-1.08-1.52-2.1-2.31-3.11-.36-.43-.65-.87-1.01-1.23-1.23-1.37-2.53-2.67-3.9-3.9-.14-.14-.36-.29-.58-.43-1.08-.94-2.17-1.81-3.32-2.6-.14-.07-.36-.14-.51-.29-.87-.58-1.81-1.08-2.75-1.59-.87-.51-1.73-1.01-2.6-1.44-.14-.07-.29-.14-.43-.22l-364.57-162.49c-5.27-2.38-10.98-3.54-16.69-3.54s-10.91,1.08-16.04,3.25L122.87,333.8s-.58.29-.87.43c-.94.43-1.81.94-2.67,1.37-.94.51-1.88,1.01-2.82,1.59-.29.22-.58.29-.87.51-.72.51-1.37,1.08-2.1,1.66-.51.36-.94.72-1.44,1.08-1.37,1.23-2.75,2.53-3.97,3.9-.07.07-.14.22-.22.29-1.16,1.3-2.17,2.67-3.11,4.12-.29.51-.58,1.01-.94,1.52-.65,1.08-1.3,2.17-1.81,3.32-.29.58-.58,1.16-.79,1.81-.51,1.16-.94,2.31-1.3,3.54-.22.58-.36,1.16-.58,1.81-.43,1.44-.72,2.96-.94,4.48,0,.36-.14.65-.22,1.01-.22,1.73-.36,3.47-.36,5.2v285.46c0,16.55,9.97,31.5,25.29,37.86l382.05,158.08c.36.14.79.22,1.23.36,1.73.65,3.54,1.23,5.27,1.59.65.14,1.37.36,2.02.43,2.31.43,4.7.72,7.08.72h0c1.81,0,3.54-.14,5.27-.36.43,0,.94-.14,1.37-.22,1.52-.22,2.96-.58,4.41-1.01.29-.07.58-.14.87-.22,1.44-.43,2.89-.94,4.26-1.59l364.5-158.08c14.96-6.5,24.64-21.24,24.64-37.57v-285.46c0-1.73-.14-3.47-.36-5.13l.36.07Z"/>
        <polygon class="cls-4" points="521.03 209.03 885.53 371.51 521.03 516.44 138.91 371.51 521.03 209.03"/>
        <polygon class="cls-2" points="521.03 516.44 521.03 815.05 138.91 656.97 138.91 371.51 521.03 516.44"/>
        <polygon class="cls-1" points="885.53 371.51 521.03 516.44 521.03 815.05 885.53 656.97 885.53 371.51"/>
      </g>
    </g>
  </g>
</svg>