<?xml version="1.0" encoding="UTF-8"?>
<svg id="Arcade" xmlns="http://www.w3.org/2000/svg" viewBox="0 0 1024 1024">
  <defs>
    <style>
      .cls-1 {
        fill: #00aeef;
      }

      .cls-1, .cls-2, .cls-3 {
        stroke-width: 0px;
      }

      .cls-2 {
        fill: #000;
      }

      .cls-3 {
        fill: #fff;
      }
    </style>
  </defs>
  <rect class="cls-2" y="0" width="1024" height="1024" rx="143.49" ry="143.49"/>
  <g id="layer1">
    <path id="path3027" class="cls-3" d="M278.88,459.01H92.69v36.31h70.75v149.88h44.69v-149.88h70.75v-36.31h0Z"/>
    <path id="path3031" class="cls-3" d="M707.89,459.01h-186.2v36.31h70.75v149.88h44.7v-149.88h70.75v-36.31Z"/>
    <path id="path3033" class="cls-3" d="M462.87,645.21h44.69v-186.19h-44.69v186.19Z"/>
    <path id="path3037" class="cls-1" d="M339.39,645.21h121.04l-80.59-148.27c-29.99,41.38-45.63,93.41-40.45,148.27"/>
    <path id="path3041" class="cls-1" d="M227.68,645.21h63.3c6.84-65.13,36.63-122.17,80.41-163.82l-27.33-50.3-116.37,214.12h0Z"/>
    <path id="path3045" class="cls-1" d="M485.22,373.36c-18.52,0-33.52,15.01-33.52,33.51s15.01,33.51,33.52,33.51,33.51-15.01,33.51-33.51-15.01-33.51-33.51-33.51"/>
    <path id="path3049" class="cls-1" d="M435.56,443.36l-2.96-5.42c-22.39,11.48-43,26.12-61.21,43.44l8.45,15.56c15.18-20.93,34.03-39.13,55.72-53.58"/>
    <path id="path3053" class="cls-3" d="M819.59,616.22c-35.58,0-64.4-25.62-64.4-64.37s28.82-64.36,64.4-64.36,64.4,25.61,64.4,64.36-28.82,64.37-64.4,64.37M819.59,453.05c-64.02,0-111.72,39.74-111.72,98.8s47.69,98.8,111.72,98.8,111.72-39.74,111.72-98.8-47.68-98.8-111.72-98.8"/>
  </g>
</svg>