<?xml version="1.0" encoding="UTF-8"?>
<svg id="Arcade" xmlns="http://www.w3.org/2000/svg" viewBox="0 0 1024 1024">
  <defs>
    <style>
      .cls-1 {
        fill: #000;
      }

      .cls-1, .cls-2, .cls-3 {
        stroke-width: 0px;
      }

      .cls-2 {
        fill: #ec1c24;
      }

      .cls-3 {
        fill: #fff;
      }
    </style>
  </defs>
  <rect class="cls-1" y="0" width="1024" height="1024" rx="143.49" ry="143.49"/>
  <rect class="cls-2" x="98.77" y="98.77" width="826.46" height="826.46" rx="188.08" ry="188.08"/>
  <g>
    <path class="cls-3" d="M733.98,290.6c-122.54-122.36-321.37-122.36-444.1,0-122.54,122.36-122.54,320.64,0,442.81,122.54,122.36,321.37,122.36,444.1,0,122.73-122.36,122.73-320.64,0-442.81Z"/>
    <path class="cls-2" d="M714.04,434.51c-51.78,89.74-103.56,179.48-155.34,269.41-9.58,16.77-23.59,26.72-42.75,28.19-21.38,1.47-38.33-7.56-49.2-25.98-32.8-56.2-65.23-112.78-97.66-169.16-19.72-34.27-39.62-68.55-59.34-103.01-19.9-34.64,2.58-76.84,42.38-78.87,21.01-1.11,37.22,8.66,47.91,26.9,14.56,24.88,28.93,50.12,43.49,75.18,10.5,18.06,20.64,36.3,31.33,53.99,15.48,25.98,38.33,40.54,68.73,42.38,42.94,2.58,82.92-28.56,88.08-74.08.37-3.32.55-6.82.74-8.48-.18-14.74-2.95-27.27-8.85-38.88-16.03-32.06,1.11-68,35.93-75.74,28.38-6.27,57.86,14.56,61.55,43.3,1.84,12.35-.74,23.96-7,34.83h0Z"/>
  </g>
</svg>