<?xml version="1.0" encoding="UTF-8"?>
<svg xmlns="http://www.w3.org/2000/svg" viewBox="0 0 1024 1024">
  <defs>
    <style>
      .cls-1 {
        fill: #000;
        mix-blend-mode: multiply;
      }

      .cls-1, .cls-2 {
        stroke-width: 0px;
      }

      .cls-3 {
        isolation: isolate;
      }

      .cls-2 {
        fill: #a1a0a4;
      }
    </style>
  </defs>
  <g class="cls-3">
    <g id="Arcade">
      <rect class="cls-1" y="0" width="1024" height="1024" rx="143.49" ry="143.49"/>
      <path class="cls-2" d="M541.37,335.75l-69.88,273.97s-53.43-205.65-62.12-234.82c-8.7-29.22-26.58-42.02-51.95-42.02s-43.3,12.8-51.99,42.02c-8.66,29.17-62.1,234.82-62.1,234.82l-69.93-273.97h-84.2s80.87,292.31,91.86,326.17c8.55,26.42,28.81,48.02,58.83,48.02,34.33,0,50.39-25.03,57.82-48.02,7.35-22.86,59.7-215.92,59.7-215.92,0,0,52.35,193.07,59.68,215.92,7.43,22.99,23.49,48.02,57.81,48.02,30.05,0,50.27-21.6,58.87-48.02,10.97-33.85,91.78-326.17,91.78-326.17h-84.19ZM830.06,707.12h79.71v-257.84h-79.71v257.84ZM822.34,359.13c0,24.85,20.96,45.02,46.71,45.02s47.77-19.76,47.77-45.02-20.98-45.07-47.77-45.07-46.71,20.2-46.71,45.07M668.09,707.12h79.69v-257.84h-79.69v257.84ZM660.34,359.13c0,24.85,20.92,45.02,46.68,45.02s47.79-19.76,47.79-45.02-21.02-45.07-47.79-45.07-46.68,20.2-46.68,45.07"/>
    </g>
  </g>
</svg>