<?xml version="1.0" encoding="UTF-8"?>
<svg xmlns="http://www.w3.org/2000/svg" viewBox="0 0 1024 1024">
  <defs>
    <style>
      .cls-1 {
        fill: #42e335;
      }

      .cls-1, .cls-2 {
        stroke-width: 0px;
      }

      .cls-2 {
        fill: #000;
        mix-blend-mode: multiply;
      }

      .cls-3 {
        isolation: isolate;
      }
    </style>
  </defs>
  <g class="cls-3">
    <g id="Arcade">
      <rect class="cls-2" y="0" width="1024" height="1024" rx="143.49" ry="143.49"/>
      <path id="path3505" class="cls-1" d="M433.61,870.51c-87.68-22.41-185.46-85.21-185.46-119.11,0-45.39,99.24-172.42,208.02-266.27l61.2-52.8,27.45,19.12c43.11,30.03,181.06,172.91,211.93,219.51,50.08,75.6,47.84,92.46-18.58,140.27-80.12,57.67-211.12,83.17-304.54,59.29ZM206.61,714.35c-57.18-83.97-75.54-222.25-41.45-312.02,21.12-55.6,70.89-131.31,98.01-149.08,19.59-12.83,23.34-12.7,50.29,1.81,16.02,8.62,49.45,33.89,74.29,56.14l45.17,40.46-48.37,59.91c-97.2,120.37-172.06,270.62-157.58,316.25,7.31,23.02,2.18,19.63-20.36-13.47ZM811.53,711.74c-.97-70.23-55.93-176.34-155.42-300.08l-48.1-59.82,43.12-39.57c23.72-21.76,57.42-47.23,74.89-56.59l31.77-17.02,35.19,34.3c19.36,18.87,47.62,59.48,62.8,90.25,23.79,48.21,28.02,66.95,30.58,135.45,3.43,91.87-10.55,151.19-49.3,209.08l-25.08,37.47-.46-33.47h0ZM477.34,255.01c-18.93-11.21-58.68-26.94-88.35-34.97-29.66-8.03-52.19-17.42-50.05-20.88,2.13-3.45,31.33-15.1,64.88-25.89,87.82-28.24,191.76-22.02,269.2,16.11,30.14,14.84,46.67,25.01,36.73,22.59-22.13-5.38-118.56,23.84-157.16,47.61-33.88,20.87-32.1,20.98-75.26-4.57Z"/>
    </g>
  </g>
</svg>