<?xml version="1.0" encoding="UTF-8"?>
<svg id="Arcade" xmlns="http://www.w3.org/2000/svg" viewBox="0 0 1024 1024">
  <defs>
    <style>
      .cls-1 {
        fill: #42e335;
      }

      .cls-1, .cls-2 {
        stroke-width: 0px;
      }

      .cls-2 {
        fill: #000;
      }
    </style>
  </defs>
  <rect class="cls-2" y="0" width="1024" height="1024" rx="143.49" ry="143.49"/>
  <g id="layer1">
    <g id="text879-9-3">
      <path id="path1469" class="cls-1" d="M245.25,615.32c-2.97-5.94-6.68-12.47-11.13-19.59-4.16-7.13-8.76-14.4-13.81-21.82-5.05-7.72-10.39-15.29-16.03-22.71-5.34-7.42-10.69-14.4-16.03-20.93-5.34,6.83-10.98,13.95-16.92,21.38-5.94,7.42-11.73,14.99-17.37,22.71-5.34,7.42-10.39,14.7-15.14,21.82-4.75,7.13-8.76,13.51-12.02,19.15h-37.85c9.8-17.81,21.67-36.07,35.63-54.78,14.25-19,28.2-36.96,41.86-53.88l-74.37-97.97h41.42l55.67,72.14,51.21-72.14h39.19l-68.14,95.75c13.36,17.52,26.72,35.77,40.08,54.78,13.66,19,25.24,37.7,34.74,56.11h-40.97Z"/>
      <path id="path1471" class="cls-1" d="M414.03,403.79c27.91,0,49.43,8.76,64.57,26.27,15.14,17.22,22.71,43.49,22.71,78.82v12.91h-147.85c1.48,21.38,8.46,37.7,20.93,48.99,12.77,10.98,30.58,16.48,53.44,16.48,13.06,0,24.2-1.04,33.4-3.12,9.2-2.08,16.18-4.3,20.93-6.68l4.9,31.17c-4.45,2.38-12.47,4.9-24.05,7.57-11.58,2.67-24.64,4.01-39.19,4.01-17.81,0-33.55-2.67-47.2-8.02-13.36-5.64-24.49-13.21-33.4-22.71-8.91-9.5-15.59-20.78-20.04-33.85-4.45-13.36-6.68-27.76-6.68-43.2,0-18.41,2.82-34.44,8.46-48.1,5.64-13.66,13.06-24.94,22.27-33.85,9.2-8.91,19.59-15.59,31.17-20.04,11.58-4.45,23.45-6.68,35.63-6.68ZM463.9,491.96c0-17.52-4.6-31.32-13.81-41.42-9.2-10.39-21.38-15.59-36.52-15.59-8.61,0-16.48,1.63-23.6,4.9-6.83,3.27-12.77,7.57-17.81,12.91s-9.06,11.43-12.02,18.26c-2.97,6.83-4.9,13.81-5.79,20.93h109.55Z"/>
      <path id="path1473" class="cls-1" d="M539.61,414.47c17.81-6.83,34.59-10.24,50.32-10.24,8.61,0,16.63,1.34,24.05,4.01,7.72,2.38,14.25,6.23,19.59,11.58,12.77-10.39,26.42-15.59,40.97-15.59,7.13,0,13.81,1.34,20.04,4.01,6.53,2.67,12.17,6.68,16.92,12.02,5.05,5.34,9.06,12.02,12.02,20.04,2.97,8.02,4.45,17.37,4.45,28.06v146.96h-33.4v-147.85c0-10.69-2.38-18.85-7.13-24.49s-10.69-8.46-17.81-8.46c-3.56,0-7.27.89-11.13,2.67-3.86,1.78-7.42,4.6-10.69,8.46,1.78,6.83,2.67,14.4,2.67,22.71v67.24h-33.4v-67.69c0-10.39-1.63-18.56-4.9-24.49-3.27-5.94-9.65-8.91-19.15-8.91-5.94,0-12.62,1.34-20.04,4.01v176.8h-33.4v-200.84Z"/>
      <path id="path1475" class="cls-1" d="M935.06,609.53c-8.02,2.08-18.7,4.3-32.06,6.68-13.06,2.38-28.5,3.56-46.31,3.56-15.73,0-28.8-2.23-39.19-6.68-10.39-4.75-18.85-11.28-25.38-19.59-6.53-8.61-11.13-18.7-13.81-30.28-2.67-11.58-4.01-24.34-4.01-38.3v-116.23h36.52v108.21c0,25.53,3.71,43.64,11.13,54.33,7.72,10.69,20.49,16.03,38.3,16.03,3.86,0,7.72-.15,11.58-.45,4.16-.3,8.02-.59,11.58-.89,3.56-.59,6.68-1.04,9.35-1.34,2.67-.59,4.45-1.04,5.34-1.34v-174.57h36.96v200.84Z"/>
    </g>
  </g>
</svg>