<?xml version="1.0" encoding="UTF-8"?>
<svg id="Layer_1" data-name="Layer 1" xmlns="http://www.w3.org/2000/svg" viewBox="0 0 340.69 50">
  <defs>
    <style>
      .cls-1 {
        fill: #0088ef;
      }

      .cls-2 {
        fill: #ed1c24;
      }

      .cls-3 {
        fill: #fff;
      }

      .cls-4 {
        fill: #0088ef;
      }
    </style>
  </defs>
  <g>
    <path class="cls-4" d="M42.99,0c3.87,0,7.01,3.14,7.01,7.01v35.99c0,3.87-3.14,7.01-7.01,7.01H7.01c-3.87,0-7.01-3.14-7.01-7.01V7.01C0,3.14,3.14,0,7.01,0"/>
    <g>
      <path class="cls-3" d="M44.84,18.03s0-.03-.01-.05c-.01-.07-.02-.14-.04-.21,0-.03-.02-.06-.03-.09-.02-.06-.04-.11-.06-.16-.01-.03-.03-.06-.04-.09-.02-.05-.05-.1-.08-.15-.02-.03-.03-.06-.05-.08-.03-.05-.07-.1-.11-.15-.02-.02-.03-.04-.05-.06-.06-.07-.12-.13-.19-.19,0,0-.02-.01-.03-.02-.05-.04-.1-.09-.16-.12,0,0-.02,0-.02-.01-.04-.03-.09-.05-.13-.08-.04-.02-.08-.05-.12-.07,0,0-.01,0-.02-.01l-17.46-7.78c-.25-.11-.53-.17-.8-.17s-.52.05-.77.16l-18.3,7.78s-.03.01-.04.02c-.04.02-.09.04-.13.07-.04.02-.09.05-.13.08-.01.01-.03.01-.04.02-.03.02-.07.05-.1.08-.02.02-.04.03-.07.05-.07.06-.13.12-.19.19,0,0,0,.01-.01.01-.06.06-.1.13-.15.2-.01.02-.03.05-.04.07-.03.05-.06.1-.09.16-.01.03-.03.06-.04.09-.02.06-.04.11-.06.17-.01.03-.02.06-.03.09-.02.07-.03.14-.04.21,0,.02,0,.03-.01.05-.01.08-.02.17-.02.25v13.67c0,.79.48,1.51,1.21,1.81l18.3,7.57s.04.01.06.02c.08.03.17.06.25.08.03,0,.07.02.1.02.11.02.22.03.34.03h0c.09,0,.17,0,.25-.02.02,0,.04,0,.07-.01.07-.01.14-.03.21-.05.01,0,.03,0,.04-.01.07-.02.14-.04.2-.08l17.46-7.57c.72-.31,1.18-1.02,1.18-1.8v-13.67c0-.08,0-.17-.02-.25h.02Z"/>
      <polygon points="25.43 10.49 42.89 18.27 25.43 25.21 7.13 18.27 25.43 10.49"/>
      <polygon class="cls-2" points="25.43 25.21 25.43 39.52 7.13 31.94 7.13 18.27 25.43 25.21"/>
      <polygon class="cls-4" points="42.89 18.27 25.43 25.21 25.43 39.52 42.89 31.94 42.89 18.27"/>
    </g>
  </g>
  <g>
    <rect class="cls-1" x="174.06" y="-116.63" width="50" height="283.25" rx="9.41" ry="9.41" transform="translate(224.06 -174.06) rotate(90)"/>
    <path class="cls-3" d="M102.45,40.6c-7.01,0-11.2-3.88-11.2-10.39V10.74h7.27v17.71c0,5.23,2.76,6.01,4.41,6.01,3.01,0,4.73-2.22,4.73-6.09V10.74h6.91v19.96c0,8.93-8.48,9.9-12.13,9.9ZM289.06,40.44c-2.87,0-5.66-.92-7.87-2.6-2.58-1.95-3.89-5.01-3.89-9.1,0-9.37,5.95-14.72,12.58-19.02l3.61,4c-2.33,1.61-5.81,4.37-7.19,6.73l-1.63,2.77,2.97-1.18c.96-.38,2.07-.41,3.12-.41,5.56,0,9.3,3.5,9.3,8.71,0,6.24-5.71,10.1-10.99,10.1ZM288.78,26.78c-4.85,0-5.38,2.63-5.38,3.76,0,2.45,2,4.09,4.97,4.09,2.24,0,5.78-1.11,5.78-4.09,0-1.13-.52-3.76-5.38-3.76ZM236.84,40.03c-8.23,0-14.67-6.58-14.67-14.97s6.96-14.89,15.2-14.89,14.27,6.61,14.27,14.73-6.5,15.13-14.79,15.13ZM237.12,17.04c-4.18,0-8.12,4.06-8.12,8.35s3.59,8.14,8,8.14,8.29-3.93,8.29-8.59c0-4.06-3.97-7.9-8.17-7.9ZM75.18,40.03c-2.01,0-3.96-.35-6.06-.81v-5.07c1.71.54,3.33.81,4.93.81,1.93,0,5.58-.77,5.58-3.68,0-1.77-1.74-2.86-3.94-4.23-2.94-1.84-6.61-4.14-6.61-8.49,0-5.58,5.37-8.51,10.67-8.51,1.7,0,3.46.21,5.34.63v5.36c-1.25-.34-2.41-.5-3.52-.5-1.72,0-4.97.64-4.97,3.07,0,1.54,1.58,2.58,3.57,3.89,2.93,1.93,6.57,4.33,6.57,8.66,0,6.12-6.76,8.88-11.56,8.88ZM318.85,39.5v-5.77h-13.78v-7.36l15.17-15.59h5.73v17.67h3.07v5.27h-3.07v5.77h-7.11ZM310.35,28.46h8.51v-8.76l-8.51,8.76ZM196.04,39.5V10.83h13.94c4.24,0,7.44,3.25,7.44,7.57,0,2.06-.83,3.99-2.27,5.32l-.91.83.93.82c2.17,1.92,3.47,4.53,3.47,6.98,0,4.65-4.77,7.16-9.26,7.16h-13.34ZM206.67,27.06c-.97,0-1.82.15-2.72.31l-1.08.19v6.76l1.56.21c.71.1,1.44.21,2.24.21,3.09,0,5.01-1.5,5.01-3.93,0-1.41-.65-3.76-5.01-3.76ZM205.82,15.86c-.65,0-1.42.04-2.21.3l-.75.25v6.4l.92.15c.74.12,1.43.22,2.31.22,2.99,0,4.85-1.43,4.85-3.72,0-3.6-3.34-3.6-5.13-3.6ZM182.92,39.5l-4.69-9.53h-2.82v9.53h-6.91V10.87h10.31c4.57,0,9.09.66,11.16,5.47.48,1.16.72,2.37.72,3.69,0,3.7-1.72,7.08-4.38,8.61l-.9.52.46.94c1.51,3.08,3.06,6.26,4.67,9.41h-7.62ZM178.56,16.1c-.72,0-1.46.04-2.19.13l-.96.11v9.04h1.29c1.95,0,7.11,0,7.11-4.62,0-2.83-2.06-4.66-5.26-4.66ZM146.51,39.5V10.87h15.88v5.44h-8.89v6.87h8.89v4.21h-8.89v6.87h8.89v5.23h-15.88ZM119.88,39.5V10.79h13.14c4.9,0,8.73,4.1,8.73,9.32,0,2.16-.52,4.18-1.51,5.86-2.51,4.36-6.68,4.6-11.5,4.88l-2.03.12v8.52h-6.83ZM130.06,16.39c-.79,0-1.55.04-2.38.13l-.98.1v8.6h2.14c4.34,0,6.83-1.65,6.83-4.54,0-1.29-.55-4.3-5.62-4.3ZM267,39.42l-3.48-7.8-3.88,7.8h-7.1l7.51-14.49-7.48-13.94h7.68l3.48,7.8,3.88-7.8h7.08l-7.49,14.06,7.51,14.36h-7.71Z"/>
  </g>
</svg>