<?xml version="1.0" encoding="UTF-8"?>
<svg id="Layer_1" xmlns="http://www.w3.org/2000/svg" version="1.1" viewBox="0 0 340.7 50">
  <!-- Generator: Adobe Illustrator 29.1.0, SVG Export Plug-In . SVG Version: 2.1.0 Build 142)  -->
  <defs>
    <style>
      .st0 {
        fill: #0088ef;
      }

      .st1 {
        fill: #ed1c24;
      }

      .st2 {
        fill: #fff;
      }

      .cls-3 {
        fill: #ed1c24;
      }
    </style>
  </defs>
  <g>
    <path class="st0" d="M43,0c3.9,0,7,3.1,7,7v36c0,3.9-3.1,7-7,7H7c-3.9,0-7-3.1-7-7V7C0,3.1,3.1,0,7,0"/>
    <g>
      <path class="st2" d="M44.8,18h0v-.2h0v-.2h0c0-.1,0-.2,0-.2h0s0-.1-.2-.2h-.2q0-.1,0-.1h0l-17.5-7.8c-.2-.1-.5-.2-.8-.2s-.5,0-.8.2l-18.3,7.8h-.2l-.2.2h0s0,.1-.2.2h0v.2h0v.2h0v.2h0v13.9c0,.8.5,1.5,1.2,1.8l18.3,7.6h1.2l17.5-7.6c.7-.3,1.2-1,1.2-1.8v-13.9h-.7Z"/>
      <polygon points="25.4 10.5 42.9 18.3 25.4 25.2 7.1 18.3 25.4 10.5"/>
      <polygon class="st1" points="25.4 25.2 25.4 39.5 7.1 31.9 7.1 18.3 25.4 25.2"/>
      <polygon class="st0" points="42.9 18.3 25.4 25.2 25.4 39.5 42.9 31.9 42.9 18.3"/>
    </g>
  </g>
  <g>
    <rect class="st1" x="57.4" width="283.2" height="50" rx="9.4" ry="9.4"/>
    <path class="st2" d="M102.4,40.6c-7,0-11.2-3.9-11.2-10.4V10.7h7.3v17.7c0,5.2,2.8,6,4.4,6,3,0,4.7-2.2,4.7-6.1V10.7h6.9v20c0,8.9-8.5,9.9-12.1,9.9h0ZM289.1,40.4c-2.9,0-5.7-.9-7.9-2.6-2.6-2-3.9-5-3.9-9.1,0-9.4,6-14.7,12.6-19l3.6,4c-2.3,1.6-5.8,4.4-7.2,6.7l-1.6,2.8,3-1.2c1-.4,2.1-.4,3.1-.4,5.6,0,9.3,3.5,9.3,8.7s-5.7,10.1-11,10.1h0ZM288.8,26.8c-4.9,0-5.4,2.6-5.4,3.8,0,2.5,2,4.1,5,4.1s5.8-1.1,5.8-4.1-.5-3.8-5.4-3.8h0ZM236.8,40c-8.2,0-14.7-6.6-14.7-15s7-14.9,15.2-14.9,14.3,6.6,14.3,14.7-6.5,15.1-14.8,15.1h0ZM237.1,17c-4.2,0-8.1,4.1-8.1,8.4s3.6,8.1,8,8.1,8.3-3.9,8.3-8.6-4-7.9-8.2-7.9ZM75.2,40c-2,0-4-.3-6.1-.8v-5.1c1.7.5,3.3.8,4.9.8s5.6-.8,5.6-3.7-1.7-2.9-3.9-4.2c-2.9-1.8-6.6-4.1-6.6-8.5s5.4-8.5,10.7-8.5,3.5.2,5.3.6v5.4c-1.2-.3-2.4-.5-3.5-.5-1.7,0-5,.6-5,3.1s1.6,2.6,3.6,3.9c2.9,1.9,6.6,4.3,6.6,8.7s-6.8,8.9-11.6,8.9h0ZM318.9,39.5v-5.8h-13.8v-7.4l15.2-15.6h5.7v17.7h3.1v5.3h-3.1v5.8h-7.1ZM310.4,28.5h8.5v-8.8l-8.5,8.8ZM196,39.5V10.8h13.9c4.2,0,7.4,3.2,7.4,7.6s-.8,4-2.3,5.3l-.9.8.9.8c2.2,1.9,3.5,4.5,3.5,7,0,4.7-4.8,7.2-9.3,7.2h-13.3.1ZM206.7,27.1c-1,0-1.8.1-2.7.3l-1.1.2v6.8l1.6.2c.7,0,1.4.2,2.2.2,3.1,0,5-1.5,5-3.9s-.6-3.8-5-3.8h0ZM205.8,15.9c-.6,0-1.4,0-2.2.3l-.8.2v6.4h.9c.7.3,1.4.4,2.3.4,3,0,4.9-1.4,4.9-3.7,0-3.6-3.3-3.6-5.1-3.6h0ZM182.9,39.5l-4.7-9.5h-2.8v9.5h-6.9V10.9h10.3c4.6,0,9.1.7,11.2,5.5.5,1.2.7,2.4.7,3.7,0,3.7-1.7,7.1-4.4,8.6l-.9.5.5.9c1.5,3.1,3.1,6.3,4.7,9.4h-7.7ZM178.6,16.1c-.7,0-1.5,0-2.2.1h-1v9.2h1.3c1.9,0,7.1,0,7.1-4.6s-2.1-4.7-5.3-4.7h0ZM146.5,39.5V10.9h15.9v5.4h-8.9v6.9h8.9v4.2h-8.9v6.9h8.9v5.2h-15.9ZM119.9,39.5V10.8h13.1c4.9,0,8.7,4.1,8.7,9.3s-.5,4.2-1.5,5.9c-2.5,4.4-6.7,4.6-11.5,4.9h-2v8.6s-6.8,0-6.8,0ZM130.1,16.4c-.8,0-1.6,0-2.4.1h-1v8.7h2.1c4.3,0,6.8-1.6,6.8-4.5s-.6-4.3-5.6-4.3h.1ZM267,39.4l-3.5-7.8-3.9,7.8h-7.1l7.5-14.5-7.5-13.9h7.7l3.5,7.8,3.9-7.8h7.1l-7.5,14.1,7.5,14.4h-7.7Z"/>
  </g>
</svg>